AnekDevanagari-ExtraBold.ufo
<glyph name="numbersign" format="2">
  <advance width="1188"/>
  <unicode hex="0023"/>
  <outline>
    <contour>
      <point x="416" y="0" type="line"/>
      <point x="589" y="1278" type="line"/>
      <point x="317" y="1278" type="line"/>
      <point x="144" y="0" type="line"/>
    </contour>
    <contour>
      <point x="1087" y="258" type="line"/>
      <point x="1087" y="505" type="line"/>
      <point x="42" y="505" type="line"/>
      <point x="42" y="258" type="line"/>
    </contour>
    <contour>
      <point x="881" y="0" type="line"/>
      <point x="1048" y="1278" type="line"/>
      <point x="775" y="1278" type="line"/>
      <point x="607" y="0" type="line"/>
    </contour>
    <contour>
      <point x="1146" y="769" type="line"/>
      <point x="1146" y="1016" type="line"/>
      <point x="103" y="1016" type="line"/>
      <point x="103" y="769" type="line"/>
    </contour>
  </outline>
</glyph>
<glyph name="period" format="2">
  <advance width="507"/>
  <unicode hex="002E"/>
  <outline>
    <contour>
      <point x="254" y="-30" type="curve" smooth="yes"/>
      <point x="381" y="-30"/>
      <point x="442" y="40"/>
      <point x="442" y="157" type="curve" smooth="yes"/>
      <point x="442" y="168" type="line" smooth="yes"/>
      <point x="442" y="284"/>
      <point x="381" y="356"/>
      <point x="254" y="356" type="curve" smooth="yes"/>
      <point x="124" y="356"/>
      <point x="65" y="284"/>
      <point x="65" y="168" type="curve" smooth="yes"/>
      <point x="65" y="157" type="line" smooth="yes"/>
      <point x="65" y="40"/>
      <point x="124" y="-30"/>
    </contour>
  </outline>
</glyph>
<glyph name="two" format="2">
  <advance width="1012"/>
  <unicode hex="0032"/>
  <outline>
    <contour>
      <point x="959" y="0" type="line"/>
      <point x="959" y="304" type="line"/>
      <point x="363" y="304" type="line"/>
      <point x="520" y="252" type="line"/>
      <point x="520" y="316" type="line"/>
      <point x="685" y="454" type="line" smooth="yes"/>
      <point x="870" y="609"/>
      <point x="948" y="718"/>
      <point x="948" y="903" type="curve" smooth="yes"/>
      <point x="948" y="917" type="line" smooth="yes"/>
      <point x="948" y="1161"/>
      <point x="789" y="1306"/>
      <point x="481" y="1306" type="curve" smooth="yes"/>
      <point x="310" y="1306"/>
      <point x="180" y="1268"/>
      <point x="92" y="1224" type="curve"/>
      <point x="61" y="914" type="line"/>
      <point x="146" y="954"/>
      <point x="261" y="996"/>
      <point x="385" y="996" type="curve" smooth="yes"/>
      <point x="531" y="996"/>
      <point x="579" y="943"/>
      <point x="579" y="868" type="curve" smooth="yes"/>
      <point x="579" y="859" type="line" smooth="yes"/>
      <point x="579" y="770"/>
      <point x="511" y="706"/>
      <point x="361" y="581" type="curve" smooth="yes"/>
      <point x="50" y="323" type="line"/>
      <point x="50" y="0" type="line"/>
    </contour>
  </outline>
</glyph>
<glyph name="K" format="2">
  <advance width="1234"/>
  <unicode hex="004B"/>
  <anchor x="629" y="0" name="bottom"/>
  <anchor x="629" y="1278" name="top"/>
  <outline>
    <contour>
      <point x="1240" y="0" type="line"/>
      <point x="791" y="714" type="line"/>
      <point x="791" y="634" type="line"/>
      <point x="1226" y="1278" type="line"/>
      <point x="817" y="1278" type="line"/>
      <point x="479" y="754" type="line"/>
      <point x="424" y="754" type="line"/>
      <point x="424" y="554" type="line"/>
      <point x="479" y="554" type="line"/>
      <point x="821" y="0" type="line"/>
    </contour>
    <contour>
      <point x="463" y="0" type="line"/>
      <point x="463" y="1278" type="line"/>
      <point x="104" y="1278" type="line"/>
      <point x="104" y="0" type="line"/>
    </contour>
  </outline>
</glyph>
<glyph name="g" format="2">
  <advance width="1074"/>
  <unicode hex="0067"/>
  <anchor x="537" y="-344" name="bottom"/>
  <anchor x="537" y="985" name="top"/>
  <outline>
    <contour>
      <point x="545" y="310" type="curve"/>
      <point x="861" y="310"/>
      <point x="1002" y="404"/>
      <point x="1002" y="577" type="curve" smooth="yes"/>
      <point x="1002" y="583" type="line" smooth="yes"/>
      <point x="1002" y="702"/>
      <point x="937" y="764"/>
      <point x="795" y="782" type="curve"/>
      <point x="795" y="792" type="line"/>
      <point x="1051" y="787" type="line"/>
      <point x="1051" y="1031" type="line"/>
      <point x="519" y="1003" type="line" smooth="yes"/>
      <point x="198" y="986"/>
      <point x="50" y="876"/>
      <point x="50" y="656" type="curve" smooth="yes"/>
      <point x="50" y="644" type="line" smooth="yes"/>
      <point x="50" y="435"/>
      <point x="211" y="310"/>
    </contour>
    <contour>
      <point x="527" y="-132" type="line" smooth="yes"/>
      <point x="396" y="-132"/>
      <point x="348" y="-102"/>
      <point x="348" y="-53" type="curve"/>
      <point x="348" y="-51" type="line"/>
      <point x="348" y="-12"/>
      <point x="375" y="12"/>
      <point x="417" y="21" type="curve"/>
      <point x="342" y="16" type="line"/>
      <point x="636" y="-13" type="line" smooth="yes"/>
      <point x="697" y="-19"/>
      <point x="735" y="-29"/>
      <point x="735" y="-66" type="curve"/>
      <point x="735" y="-68" type="line"/>
      <point x="735" y="-109"/>
      <point x="691" y="-132"/>
      <point x="560" y="-132" type="curve" smooth="yes"/>
    </contour>
    <contour>
      <point x="552" y="-385" type="line" smooth="yes"/>
      <point x="873" y="-385"/>
      <point x="1054" y="-285"/>
      <point x="1054" y="-73" type="curve" smooth="yes"/>
      <point x="1054" y="-66" type="line" smooth="yes"/>
      <point x="1054" y="119"/>
      <point x="938" y="197"/>
      <point x="704" y="225" type="curve" smooth="yes"/>
      <point x="473" y="253" type="line" smooth="yes"/>
      <point x="418" y="260"/>
      <point x="394" y="266"/>
      <point x="394" y="291" type="curve"/>
      <point x="394" y="292" type="line"/>
      <point x="394" y="310"/>
      <point x="408" y="320"/>
      <point x="440" y="320" type="curve"/>
      <point x="503" y="320" type="line"/>
      <point x="268" y="380" type="line"/>
      <point x="268" y="341" type="line"/>
      <point x="147" y="338"/>
      <point x="78" y="290"/>
      <point x="78" y="194" type="curve"/>
      <point x="78" y="192" type="line"/>
      <point x="78" y="104"/>
      <point x="140" y="61"/>
      <point x="246" y="42" type="curve"/>
      <point x="246" y="32" type="line"/>
      <point x="111" y="23"/>
      <point x="33" y="-36"/>
      <point x="33" y="-150" type="curve" smooth="yes"/>
      <point x="33" y="-154" type="line" smooth="yes"/>
      <point x="33" y="-321"/>
      <point x="202" y="-385"/>
      <point x="511" y="-385" type="curve" smooth="yes"/>
    </contour>
    <contour>
      <point x="532" y="543" type="curve" smooth="yes"/>
      <point x="429" y="543"/>
      <point x="381" y="581"/>
      <point x="381" y="650" type="curve" smooth="yes"/>
      <point x="381" y="656" type="line" smooth="yes"/>
      <point x="381" y="725"/>
      <point x="429" y="763"/>
      <point x="532" y="763" type="curve"/>
      <point x="532" y="763" type="line"/>
      <point x="635" y="763"/>
      <point x="683" y="724"/>
      <point x="683" y="656" type="curve" smooth="yes"/>
      <point x="683" y="650" type="line" smooth="yes"/>
      <point x="683" y="581"/>
      <point x="635" y="543"/>
    </contour>
  </outline>
</glyph>
<glyph name="j" format="2">
  <advance width="550"/>
  <unicode hex="006A"/>
  <outline>
    <contour>
      <point x="459" y="162" type="line"/>
      <point x="459" y="985" type="line"/>
      <point x="105" y="985" type="line"/>
      <point x="105" y="162" type="line"/>
    </contour>
    <contour>
      <point x="282" y="1056" type="curve" smooth="yes"/>
      <point x="410" y="1056"/>
      <point x="467" y="1117"/>
      <point x="467" y="1217" type="curve" smooth="yes"/>
      <point x="467" y="1225" type="line" smooth="yes"/>
      <point x="467" y="1323"/>
      <point x="410" y="1386"/>
      <point x="282" y="1386" type="curve" smooth="yes"/>
      <point x="152" y="1386"/>
      <point x="97" y="1323"/>
      <point x="97" y="1225" type="curve" smooth="yes"/>
      <point x="97" y="1217" type="line" smooth="yes"/>
      <point x="97" y="1118"/>
      <point x="152" y="1056"/>
    </contour>
    <contour>
      <point x="96" y="-362" type="curve" smooth="yes"/>
      <point x="367" y="-362"/>
      <point x="459" y="-204"/>
      <point x="459" y="31" type="curve" smooth="yes"/>
      <point x="459" y="206" type="line"/>
      <point x="105" y="206" type="line"/>
      <point x="105" y="56" type="line" smooth="yes"/>
      <point x="105" y="-26"/>
      <point x="85" y="-77"/>
      <point x="-7" y="-77" type="curve" smooth="yes"/>
      <point x="-33" y="-77"/>
      <point x="-57" y="-73"/>
      <point x="-81" y="-66" type="curve"/>
      <point x="-56" y="-345" type="line"/>
      <point x="-18" y="-356"/>
      <point x="36" y="-362"/>
    </contour>
  </outline>
</glyph>
<glyph name="yen" format="2">
  <advance width="1196"/>
  <unicode hex="00A5"/>
  <anchor x="598" y="0" name="bottom"/>
  <anchor x="598" y="1278" name="top"/>
  <anchor x="20" y="1278" name="topleft"/>
  <outline>
    <contour>
      <point x="1086" y="502" type="line"/>
      <point x="1101" y="692" type="line"/>
      <point x="711" y="692" type="line"/>
      <point x="659" y="502" type="line"/>
    </contour>
    <contour>
      <point x="99" y="213" type="line"/>
      <point x="1086" y="213" type="line"/>
      <point x="1101" y="403" type="line"/>
      <point x="115" y="403" type="line"/>
    </contour>
    <contour>
      <point x="115" y="692" type="line"/>
      <point x="99" y="502" type="line"/>
      <point x="534" y="502" type="line"/>
      <point x="480" y="692" type="line"/>
    </contour>
    <contour>
      <point x="762" y="318" type="line"/>
      <point x="1196" y="1278" type="line"/>
      <point x="819" y="1278" type="line"/>
      <point x="682" y="928" type="line"/>
      <point x="607" y="720" type="line"/>
      <point x="590" y="720" type="line"/>
      <point x="515" y="928" type="line"/>
      <point x="377" y="1278" type="line"/>
      <point x="0" y="1278" type="line"/>
      <point x="436" y="318" type="line"/>
    </contour>
    <contour>
      <point x="777" y="0" type="line"/>
      <point x="777" y="640" type="line"/>
      <point x="421" y="640" type="line"/>
      <point x="421" y="0" type="line"/>
    </contour>
  </outline>
</glyph>
<glyph name="softhyphen" format="2">
  <advance width="735"/>
  <unicode hex="00AD"/>
  <outline>
    <contour>
      <point x="656" y="368" type="line"/>
      <point x="656" y="648" type="line"/>
      <point x="79" y="648" type="line"/>
      <point x="79" y="368" type="line"/>
    </contour>
  </outline>
</glyph>
<glyph name="paragraph" format="2">
  <advance width="867"/>
  <unicode hex="00B6"/>
  <outline>
    <contour>
      <point x="495" y="634" type="line"/>
      <point x="495" y="1278" type="line"/>
      <point x="395" y="1278" type="line" smooth="yes"/>
      <point x="157" y="1278"/>
      <point x="56" y="1169"/>
      <point x="56" y="966" type="curve" smooth="yes"/>
      <point x="56" y="946" type="line" smooth="yes"/>
      <point x="56" y="743"/>
      <point x="157" y="634"/>
      <point x="394" y="634" type="curve"/>
    </contour>
    <contour>
      <point x="763" y="1278" type="line"/>
      <point x="412" y="1278" type="line"/>
      <point x="412" y="0" type="line"/>
      <point x="763" y="0" type="line"/>
    </contour>
  </outline>
</glyph>
<glyph name="onehalf" format="2">
  <advance width="1481"/>
  <unicode hex="00BD"/>
  <outline>
    <contour>
      <point x="400" y="599" type="line"/>
      <point x="400" y="1278" type="line"/>
      <point x="204" y="1278" type="line"/>
      <point x="26" y="1203" type="line"/>
      <point x="18" y="990" type="line"/>
      <point x="162" y="1051" type="line"/>
      <point x="172" y="1051" type="line"/>
      <point x="172" y="599" type="line"/>
    </contour>
    <contour>
      <point x="351" y="0" type="line"/>
      <point x="1249" y="1278" type="line"/>
      <point x="979" y="1278" type="line"/>
      <point x="78" y="0" type="line"/>
    </contour>
    <contour>
      <point x="1453" y="0" type="line"/>
      <point x="1453" y="188" type="line"/>
      <point x="1091" y="188" type="line"/>
      <point x="1202" y="160" type="line"/>
      <point x="1202" y="194" type="line"/>
      <point x="1294" y="253" type="line" smooth="yes"/>
      <point x="1402" y="322"/>
      <point x="1447" y="381"/>
      <point x="1447" y="478" type="curve" smooth="yes"/>
      <point x="1447" y="485" type="line" smooth="yes"/>
      <point x="1447" y="615"/>
      <point x="1350" y="698"/>
      <point x="1163" y="698" type="curve" smooth="yes"/>
      <point x="1066" y="698"/>
      <point x="979" y="676"/>
      <point x="926" y="650" type="curve"/>
      <point x="905" y="462" type="line"/>
      <point x="957" y="482"/>
      <point x="1036" y="504"/>
      <point x="1106" y="504" type="curve" smooth="yes"/>
      <point x="1185" y="504"/>
      <point x="1207" y="482"/>
      <point x="1207" y="447" type="curve"/>
      <point x="1207" y="445" type="line"/>
      <point x="1207" y="400"/>
      <point x="1156" y="373"/>
      <point x="1084" y="322" type="curve" smooth="yes"/>
      <point x="901" y="193" type="line"/>
      <point x="901" y="0" type="line"/>
    </contour>
  </outline>
</glyph>
<glyph name="Agrave" format="2">
  <advance width="1275"/>
  <unicode hex="00C0"/>
  <anchor x="638" y="0" name="bottom"/>
  <anchor x="1288" y="0" name="ogonek"/>
  <anchor x="539" y="1644" name="top"/>
  <outline>
    <contour>
      <point x="380" y="0" type="line"/>
      <point x="628" y="1041" type="line"/>
      <point x="651" y="1041" type="line"/>
      <point x="895" y="0" type="line"/>
      <point x="1260" y="0" type="line"/>
      <point x="909" y="1278" type="line"/>
      <point x="370" y="1278" type="line"/>
      <point x="15" y="0" type="line"/>
    </contour>
    <contour>
      <point x="923" y="277" type="line"/>
      <point x="923" y="553" type="line"/>
      <point x="350" y="553" type="line"/>
      <point x="350" y="277" type="line"/>
    </contour>
    <contour>
      <point x="227" y="1654" type="line"/>
      <point x="227" y="1651" type="line"/>
      <point x="508" y="1373" type="line"/>
      <point x="814" y="1373" type="line"/>
      <point x="814" y="1376" type="line"/>
      <point x="600" y="1654" type="line"/>
    </contour>
  </outline>
</glyph>
<glyph name="Acircumflex" format="2">
  <advance width="1275"/>
  <unicode hex="00C2"/>
  <anchor x="638" y="0" name="bottom"/>
  <anchor x="1288" y="0" name="ogonek"/>
  <anchor x="638" y="1634" name="top"/>
  <outline>
    <contour>
      <point x="380" y="0" type="line"/>
      <point x="628" y="1041" type="line"/>
      <point x="651" y="1041" type="line"/>
      <point x="895" y="0" type="line"/>
      <point x="1260" y="0" type="line"/>
      <point x="909" y="1278" type="line"/>
      <point x="370" y="1278" type="line"/>
      <point x="15" y="0" type="line"/>
    </contour>
    <contour>
      <point x="923" y="277" type="line"/>
      <point x="923" y="553" type="line"/>
      <point x="350" y="553" type="line"/>
      <point x="350" y="277" type="line"/>
    </contour>
    <contour>
      <point x="262" y="1378" type="line"/>
      <point x="262" y="1373" type="line"/>
      <point x="530" y="1373" type="line"/>
      <point x="634" y="1490" type="line"/>
      <point x="643" y="1490" type="line"/>
      <point x="747" y="1373" type="line"/>
      <point x="1015" y="1373" type="line"/>
      <point x="1015" y="1378" type="line"/>
      <point x="815" y="1654" type="line"/>
      <point x="462" y="1654" type="line"/>
    </contour>
  </outline>
</glyph>
<glyph name="Atilde" format="2">
  <advance width="1275"/>
  <unicode hex="00C3"/>
  <anchor x="638" y="0" name="bottom"/>
  <anchor x="1288" y="0" name="ogonek"/>
  <anchor x="638" y="1640" name="top"/>
  <outline>
    <contour>
      <point x="380" y="0" type="line"/>
      <point x="628" y="1041" type="line"/>
      <point x="651" y="1041" type="line"/>
      <point x="895" y="0" type="line"/>
      <point x="1260" y="0" type="line"/>
      <point x="909" y="1278" type="line"/>
      <point x="370" y="1278" type="line"/>
      <point x="15" y="0" type="line"/>
    </contour>
    <contour>
      <point x="923" y="277" type="line"/>
      <point x="923" y="553" type="line"/>
      <point x="350" y="553" type="line"/>
      <point x="350" y="277" type="line"/>
    </contour>
    <contour>
      <point x="774" y="1380" type="curve" smooth="yes"/>
      <point x="930" y="1380"/>
      <point x="985" y="1479"/>
      <point x="985" y="1621" type="curve" smooth="yes"/>
      <point x="985" y="1655" type="line"/>
      <point x="793" y="1655" type="line"/>
      <point x="793" y="1654" type="line"/>
      <point x="792" y="1613"/>
      <point x="780" y="1593"/>
      <point x="742" y="1593" type="curve" smooth="yes"/>
      <point x="681" y="1593"/>
      <point x="605" y="1642"/>
      <point x="504" y="1642" type="curve" smooth="yes"/>
      <point x="346" y="1642"/>
      <point x="291" y="1542"/>
      <point x="291" y="1406" type="curve" smooth="yes"/>
      <point x="291" y="1367" type="line"/>
      <point x="482" y="1367" type="line"/>
      <point x="482" y="1368" type="line"/>
      <point x="483" y="1409"/>
      <point x="495" y="1429"/>
      <point x="534" y="1429" type="curve" smooth="yes"/>
      <point x="596" y="1429"/>
      <point x="678" y="1380"/>
    </contour>
  </outline>
</glyph>
<glyph name="Eacute" format="2">
  <advance width="1108"/>
  <unicode hex="00C9"/>
  <anchor x="570" y="0" name="bottom"/>
  <anchor x="1029" y="0" name="ogonek"/>
  <anchor x="570" y="1644" name="top"/>
  <anchor x="20" y="1278" name="topleft"/>
  <outline>
    <contour>
      <point x="457" y="0" type="line"/>
      <point x="457" y="1278" type="line"/>
      <point x="104" y="1278" type="line"/>
      <point x="104" y="0" type="line"/>
    </contour>
    <contour>
      <point x="1032" y="0" type="line"/>
      <point x="1032" y="301" type="line"/>
      <point x="209" y="301" type="line"/>
      <point x="209" y="0" type="line"/>
    </contour>
    <contour>
      <point x="1007" y="504" type="line"/>
      <point x="1007" y="791" type="line"/>
      <point x="312" y="791" type="line"/>
      <point x="312" y="504" type="line"/>
    </contour>
    <contour>
      <point x="1023" y="980" type="line"/>
      <point x="1023" y="1278" type="line"/>
      <point x="209" y="1278" type="line"/>
      <point x="209" y="980" type="line"/>
    </contour>
    <contour>
      <point x="393" y="1376" type="line"/>
      <point x="393" y="1373" type="line"/>
      <point x="699" y="1373" type="line"/>
      <point x="980" y="1651" type="line"/>
      <point x="980" y="1654" type="line"/>
      <point x="607" y="1654" type="line"/>
    </contour>
  </outline>
</glyph>
<glyph name="Ograve" format="2">
  <advance width="1294"/>
  <unicode hex="00D2"/>
  <anchor x="647" y="0" name="bottom"/>
  <anchor x="647" y="639" name="center"/>
  <anchor x="992" y="5" name="ogonek"/>
  <anchor x="548" y="1644" name="top"/>
  <anchor x="5" y="1278" name="topleft"/>
  <anchor x="1235" y="1278" name="topright"/>
  <outline>
    <contour>
      <point x="647" y="-33" type="curve" smooth="yes"/>
      <point x="1035" y="-33"/>
      <point x="1226" y="161"/>
      <point x="1226" y="518" type="curve" smooth="yes"/>
      <point x="1226" y="744" type="line" smooth="yes"/>
      <point x="1226" y="1103"/>
      <point x="1032" y="1307"/>
      <point x="647" y="1307" type="curve" smooth="yes"/>
      <point x="262" y="1307"/>
      <point x="68" y="1103"/>
      <point x="68" y="744" type="curve" smooth="yes"/>
      <point x="68" y="518" type="line" smooth="yes"/>
      <point x="68" y="161"/>
      <point x="259" y="-33"/>
    </contour>
    <contour>
      <point x="647" y="265" type="curve" smooth="yes"/>
      <point x="504" y="265"/>
      <point x="437" y="350"/>
      <point x="437" y="500" type="curve" smooth="yes"/>
      <point x="437" y="763" type="line" smooth="yes"/>
      <point x="437" y="923"/>
      <point x="504" y="1011"/>
      <point x="647" y="1011" type="curve" smooth="yes"/>
      <point x="789" y="1011"/>
      <point x="857" y="923"/>
      <point x="857" y="763" type="curve" smooth="yes"/>
      <point x="857" y="500" type="line" smooth="yes"/>
      <point x="857" y="350"/>
      <point x="789" y="265"/>
    </contour>
    <contour>
      <point x="236" y="1654" type="line"/>
      <point x="236" y="1651" type="line"/>
      <point x="517" y="1373" type="line"/>
      <point x="823" y="1373" type="line"/>
      <point x="823" y="1376" type="line"/>
      <point x="609" y="1654" type="line"/>
    </contour>
  </outline>
</glyph>
<glyph name="Odieresis" format="2">
  <advance width="1294"/>
  <unicode hex="00D6"/>
  <anchor x="647" y="0" name="bottom"/>
  <anchor x="647" y="639" name="center"/>
  <anchor x="992" y="5" name="ogonek"/>
  <anchor x="647" y="1633" name="top"/>
  <anchor x="5" y="1278" name="topleft"/>
  <anchor x="1235" y="1278" name="topright"/>
  <outline>
    <contour>
      <point x="647" y="-33" type="curve" smooth="yes"/>
      <point x="1035" y="-33"/>
      <point x="1226" y="161"/>
      <point x="1226" y="518" type="curve" smooth="yes"/>
      <point x="1226" y="744" type="line" smooth="yes"/>
      <point x="1226" y="1103"/>
      <point x="1032" y="1307"/>
      <point x="647" y="1307" type="curve" smooth="yes"/>
      <point x="262" y="1307"/>
      <point x="68" y="1103"/>
      <point x="68" y="744" type="curve" smooth="yes"/>
      <point x="68" y="518" type="line" smooth="yes"/>
      <point x="68" y="161"/>
      <point x="259" y="-33"/>
    </contour>
    <contour>
      <point x="647" y="265" type="curve" smooth="yes"/>
      <point x="504" y="265"/>
      <point x="437" y="350"/>
      <point x="437" y="500" type="curve" smooth="yes"/>
      <point x="437" y="763" type="line" smooth="yes"/>
      <point x="437" y="923"/>
      <point x="504" y="1011"/>
      <point x="647" y="1011" type="curve" smooth="yes"/>
      <point x="789" y="1011"/>
      <point x="857" y="923"/>
      <point x="857" y="763" type="curve" smooth="yes"/>
      <point x="857" y="500" type="line" smooth="yes"/>
      <point x="857" y="350"/>
      <point x="789" y="265"/>
    </contour>
    <contour>
      <point x="464" y="1361" type="curve" smooth="yes"/>
      <point x="570" y="1361"/>
      <point x="621" y="1418"/>
      <point x="621" y="1515" type="curve" smooth="yes"/>
      <point x="621" y="1523" type="line" smooth="yes"/>
      <point x="621" y="1621"/>
      <point x="570" y="1679"/>
      <point x="464" y="1679" type="curve" smooth="yes"/>
      <point x="360" y="1679"/>
      <point x="309" y="1621"/>
      <point x="309" y="1523" type="curve" smooth="yes"/>
      <point x="309" y="1515" type="line" smooth="yes"/>
      <point x="309" y="1418"/>
      <point x="360" y="1361"/>
    </contour>
    <contour>
      <point x="829" y="1361" type="curve" smooth="yes"/>
      <point x="933" y="1361"/>
      <point x="985" y="1418"/>
      <point x="985" y="1515" type="curve" smooth="yes"/>
      <point x="985" y="1523" type="line" smooth="yes"/>
      <point x="985" y="1621"/>
      <point x="933" y="1679"/>
      <point x="829" y="1679" type="curve" smooth="yes"/>
      <point x="724" y="1679"/>
      <point x="674" y="1621"/>
      <point x="674" y="1523" type="curve" smooth="yes"/>
      <point x="674" y="1515" type="line" smooth="yes"/>
      <point x="674" y="1418"/>
      <point x="723" y="1361"/>
    </contour>
  </outline>
</glyph>
<glyph name="Ugrave" format="2">
  <advance width="1309"/>
  <unicode hex="00D9"/>
  <anchor x="655" y="0" name="bottom"/>
  <anchor x="978" y="5" name="ogonek"/>
  <anchor x="556" y="1644" name="top"/>
  <anchor x="1303" y="1278" name="topright"/>
  <outline>
    <contour>
      <point x="655" y="-33" type="curve" smooth="yes"/>
      <point x="1036" y="-33"/>
      <point x="1214" y="151"/>
      <point x="1214" y="500" type="curve" smooth="yes"/>
      <point x="1214" y="1278" type="line"/>
      <point x="851" y="1278" type="line"/>
      <point x="851" y="495" type="line" smooth="yes"/>
      <point x="851" y="346"/>
      <point x="789" y="271"/>
      <point x="655" y="271" type="curve" smooth="yes"/>
      <point x="520" y="271"/>
      <point x="458" y="346"/>
      <point x="458" y="495" type="curve" smooth="yes"/>
      <point x="458" y="1278" type="line"/>
      <point x="95" y="1278" type="line"/>
      <point x="95" y="500" type="line" smooth="yes"/>
      <point x="95" y="151"/>
      <point x="274" y="-33"/>
    </contour>
    <contour>
      <point x="244" y="1654" type="line"/>
      <point x="244" y="1651" type="line"/>
      <point x="525" y="1373" type="line"/>
      <point x="831" y="1373" type="line"/>
      <point x="831" y="1376" type="line"/>
      <point x="617" y="1654" type="line"/>
    </contour>
  </outline>
</glyph>
<glyph name="Uacute" format="2">
  <advance width="1309"/>
  <unicode hex="00DA"/>
  <anchor x="655" y="0" name="bottom"/>
  <anchor x="978" y="5" name="ogonek"/>
  <anchor x="655" y="1644" name="top"/>
  <anchor x="1303" y="1278" name="topright"/>
  <outline>
    <contour>
      <point x="655" y="-33" type="curve" smooth="yes"/>
      <point x="1036" y="-33"/>
      <point x="1214" y="151"/>
      <point x="1214" y="500" type="curve" smooth="yes"/>
      <point x="1214" y="1278" type="line"/>
      <point x="851" y="1278" type="line"/>
      <point x="851" y="495" type="line" smooth="yes"/>
      <point x="851" y="346"/>
      <point x="789" y="271"/>
      <point x="655" y="271" type="curve" smooth="yes"/>
      <point x="520" y="271"/>
      <point x="458" y="346"/>
      <point x="458" y="495" type="curve" smooth="yes"/>
      <point x="458" y="1278" type="line"/>
      <point x="95" y="1278" type="line"/>
      <point x="95" y="500" type="line" smooth="yes"/>
      <point x="95" y="151"/>
      <point x="274" y="-33"/>
    </contour>
    <contour>
      <point x="478" y="1376" type="line"/>
      <point x="478" y="1373" type="line"/>
      <point x="784" y="1373" type="line"/>
      <point x="1065" y="1651" type="line"/>
      <point x="1065" y="1654" type="line"/>
      <point x="692" y="1654" type="line"/>
    </contour>
  </outline>
</glyph>
<glyph name="atilde" format="2">
  <advance width="1077"/>
  <unicode hex="00E3"/>
  <anchor x="537" y="0" name="bottom"/>
  <anchor x="1025" y="0" name="ogonek"/>
  <anchor x="537" y="1370" name="top"/>
  <outline>
    <contour>
      <point x="997" y="0" type="line"/>
      <point x="997" y="580" type="line" smooth="yes"/>
      <point x="997" y="833"/>
      <point x="887" y="1011"/>
      <point x="522" y="1011" type="curve" smooth="yes"/>
      <point x="360" y="1011"/>
      <point x="224" y="974"/>
      <point x="125" y="930" type="curve"/>
      <point x="96" y="661" type="line"/>
      <point x="205" y="701"/>
      <point x="325" y="737"/>
      <point x="454" y="737" type="curve" smooth="yes"/>
      <point x="596" y="737"/>
      <point x="650" y="695"/>
      <point x="650" y="603" type="curve"/>
      <point x="653" y="567" type="line"/>
      <point x="653" y="261" type="line"/>
      <point x="660" y="252" type="line"/>
      <point x="650" y="0" type="line"/>
    </contour>
    <contour>
      <point x="345" y="-24" type="curve" smooth="yes"/>
      <point x="546" y="-24"/>
      <point x="618" y="73"/>
      <point x="648" y="207" type="curve"/>
      <point x="705" y="207" type="line"/>
      <point x="655" y="327" type="line"/>
      <point x="629" y="277"/>
      <point x="576" y="235"/>
      <point x="484" y="235" type="curve" smooth="yes"/>
      <point x="410" y="235"/>
      <point x="382" y="267"/>
      <point x="382" y="314" type="curve" smooth="yes"/>
      <point x="382" y="318" type="line" smooth="yes"/>
      <point x="382" y="368"/>
      <point x="407" y="392"/>
      <point x="485" y="403" type="curve" smooth="yes"/>
      <point x="698" y="434" type="line"/>
      <point x="677" y="636" type="line"/>
      <point x="426" y="604" type="line" smooth="yes"/>
      <point x="160" y="570"/>
      <point x="46" y="488"/>
      <point x="46" y="291" type="curve" smooth="yes"/>
      <point x="46" y="266" type="line" smooth="yes"/>
      <point x="46" y="81"/>
      <point x="148" y="-24"/>
    </contour>
    <contour>
      <point x="673" y="1082" type="curve" smooth="yes"/>
      <point x="829" y="1082"/>
      <point x="884" y="1182"/>
      <point x="884" y="1325" type="curve" smooth="yes"/>
      <point x="884" y="1368" type="line"/>
      <point x="692" y="1368" type="line"/>
      <point x="692" y="1367" type="line"/>
      <point x="691" y="1325"/>
      <point x="679" y="1304"/>
      <point x="642" y="1304" type="curve" smooth="yes"/>
      <point x="580" y="1304"/>
      <point x="507" y="1355"/>
      <point x="401" y="1355" type="curve" smooth="yes"/>
      <point x="244" y="1355"/>
      <point x="190" y="1252"/>
      <point x="190" y="1109" type="curve" smooth="yes"/>
      <point x="190" y="1069" type="line"/>
      <point x="381" y="1069" type="line"/>
      <point x="381" y="1070" type="line"/>
      <point x="382" y="1112"/>
      <point x="394" y="1133"/>
      <point x="433" y="1133" type="curve" smooth="yes"/>
      <point x="495" y="1133"/>
      <point x="577" y="1082"/>
    </contour>
  </outline>
</glyph>
<glyph name="aring" format="2">
  <advance width="1077"/>
  <unicode hex="00E5"/>
  <anchor x="537" y="0" name="bottom"/>
  <anchor x="1025" y="0" name="ogonek"/>
  <anchor x="537" y="1414" name="top"/>
  <outline>
    <contour>
      <point x="997" y="0" type="line"/>
      <point x="997" y="580" type="line" smooth="yes"/>
      <point x="997" y="833"/>
      <point x="887" y="1011"/>
      <point x="522" y="1011" type="curve" smooth="yes"/>
      <point x="360" y="1011"/>
      <point x="224" y="974"/>
      <point x="125" y="930" type="curve"/>
      <point x="96" y="661" type="line"/>
      <point x="205" y="701"/>
      <point x="325" y="737"/>
      <point x="454" y="737" type="curve" smooth="yes"/>
      <point x="596" y="737"/>
      <point x="650" y="695"/>
      <point x="650" y="603" type="curve"/>
      <point x="653" y="567" type="line"/>
      <point x="653" y="261" type="line"/>
      <point x="660" y="252" type="line"/>
      <point x="650" y="0" type="line"/>
    </contour>
    <contour>
      <point x="345" y="-24" type="curve" smooth="yes"/>
      <point x="546" y="-24"/>
      <point x="618" y="73"/>
      <point x="648" y="207" type="curve"/>
      <point x="705" y="207" type="line"/>
      <point x="655" y="327" type="line"/>
      <point x="629" y="277"/>
      <point x="576" y="235"/>
      <point x="484" y="235" type="curve" smooth="yes"/>
      <point x="410" y="235"/>
      <point x="382" y="267"/>
      <point x="382" y="314" type="curve" smooth="yes"/>
      <point x="382" y="318" type="line" smooth="yes"/>
      <point x="382" y="368"/>
      <point x="407" y="392"/>
      <point x="485" y="403" type="curve" smooth="yes"/>
      <point x="698" y="434" type="line"/>
      <point x="677" y="636" type="line"/>
      <point x="426" y="604" type="line" smooth="yes"/>
      <point x="160" y="570"/>
      <point x="46" y="488"/>
      <point x="46" y="291" type="curve" smooth="yes"/>
      <point x="46" y="266" type="line" smooth="yes"/>
      <point x="46" y="81"/>
      <point x="148" y="-24"/>
    </contour>
    <contour>
      <point x="298" y="1245" type="line" smooth="yes"/>
      <point x="298" y="1137"/>
      <point x="368" y="1058"/>
      <point x="537" y="1058" type="curve" smooth="yes"/>
      <point x="706" y="1058"/>
      <point x="776" y="1137"/>
      <point x="776" y="1245" type="curve" smooth="yes"/>
      <point x="776" y="1252" type="line" smooth="yes"/>
      <point x="776" y="1361"/>
      <point x="706" y="1439"/>
      <point x="537" y="1439" type="curve" smooth="yes"/>
      <point x="368" y="1439"/>
      <point x="298" y="1361"/>
      <point x="298" y="1252" type="curve" smooth="yes"/>
    </contour>
    <contour>
      <point x="462" y="1251" type="line" smooth="yes"/>
      <point x="462" y="1288"/>
      <point x="488" y="1309"/>
      <point x="537" y="1309" type="curve" smooth="yes"/>
      <point x="585" y="1309"/>
      <point x="611" y="1288"/>
      <point x="611" y="1251" type="curve" smooth="yes"/>
      <point x="611" y="1247" type="line" smooth="yes"/>
      <point x="611" y="1209"/>
      <point x="585" y="1187"/>
      <point x="537" y="1187" type="curve" smooth="yes"/>
      <point x="488" y="1187"/>
      <point x="462" y="1209"/>
      <point x="462" y="1247" type="curve" smooth="yes"/>
    </contour>
  </outline>
</glyph>
<glyph name="ccedilla" format="2">
  <advance width="903"/>
  <unicode hex="00E7"/>
  <anchor x="531" y="-400" name="bottom"/>
  <anchor x="494" y="985" name="top"/>
  <outline>
    <contour>
      <point x="531" y="-27" type="curve" smooth="yes"/>
      <point x="650" y="-27"/>
      <point x="758" y="-2"/>
      <point x="831" y="34" type="curve"/>
      <point x="858" y="324" type="line"/>
      <point x="786" y="291"/>
      <point x="716" y="269"/>
      <point x="625" y="269" type="curve" smooth="yes"/>
      <point x="480" y="269"/>
      <point x="414" y="340"/>
      <point x="414" y="468" type="curve" smooth="yes"/>
      <point x="414" y="533" type="line" smooth="yes"/>
      <point x="414" y="656"/>
      <point x="471" y="723"/>
      <point x="615" y="723" type="curve" smooth="yes"/>
      <point x="708" y="723"/>
      <point x="783" y="698"/>
      <point x="848" y="665" type="curve"/>
      <point x="820" y="954" type="line"/>
      <point x="750" y="988"/>
      <point x="647" y="1013"/>
      <point x="530" y="1013" type="curve" smooth="yes"/>
      <point x="210" y="1013"/>
      <point x="58" y="835"/>
      <point x="58" y="539" type="curve" smooth="yes"/>
      <point x="58" y="454" type="line" smooth="yes"/>
      <point x="58" y="149"/>
      <point x="209" y="-27"/>
    </contour>
    <contour>
      <point x="392" y="37" type="line"/>
      <point x="367" y="-157" type="line"/>
      <point x="368" y="-157"/>
      <point x="370" y="-157"/>
      <point x="371" y="-157" type="curve"/>
      <point x="496" y="-161"/>
      <point x="525" y="-171"/>
      <point x="525" y="-196" type="curve"/>
      <point x="525" y="-198" type="line"/>
      <point x="525" y="-222"/>
      <point x="496" y="-228"/>
      <point x="430" y="-228" type="curve" smooth="yes"/>
      <point x="391" y="-228"/>
      <point x="345" y="-223"/>
      <point x="305" y="-215" type="curve"/>
      <point x="334" y="-383" type="line"/>
      <point x="378" y="-393"/>
      <point x="435" y="-400"/>
      <point x="496" y="-400" type="curve" smooth="yes"/>
      <point x="668" y="-400"/>
      <point x="757" y="-345"/>
      <point x="757" y="-225" type="curve" smooth="yes"/>
      <point x="757" y="-219" type="line" smooth="yes"/>
      <point x="757" y="-121"/>
      <point x="691" y="-66"/>
      <point x="540" y="-66" type="curve" smooth="yes"/>
      <point x="509" y="-66"/>
      <point x="479" y="-67"/>
      <point x="447" y="-69" type="curve"/>
      <point x="580" y="-137" type="line"/>
      <point x="607" y="37" type="line"/>
    </contour>
  </outline>
</glyph>
<glyph name="igrave" format="2">
  <advance width="538"/>
  <unicode hex="00EC"/>
  <anchor x="269" y="0" name="bottom"/>
  <anchor x="476" y="0" name="ogonek"/>
  <anchor x="160" y="1370" name="top"/>
  <outline>
    <contour>
      <point x="446" y="0" type="line"/>
      <point x="446" y="985" type="line"/>
      <point x="92" y="985" type="line"/>
      <point x="92" y="0" type="line"/>
    </contour>
    <contour>
      <point x="-29" y="1376" type="line"/>
      <point x="-29" y="1372" type="line"/>
      <point x="131" y="1075" type="line"/>
      <point x="406" y="1075" type="line"/>
      <point x="406" y="1078" type="line"/>
      <point x="315" y="1376" type="line"/>
    </contour>
  </outline>
</glyph>
<glyph name="iacute" format="2">
  <advance width="538"/>
  <unicode hex="00ED"/>
  <anchor x="269" y="0" name="bottom"/>
  <anchor x="476" y="0" name="ogonek"/>
  <anchor x="219" y="1370" name="top"/>
  <outline>
    <contour>
      <point x="446" y="0" type="line"/>
      <point x="446" y="985" type="line"/>
      <point x="92" y="985" type="line"/>
      <point x="92" y="0" type="line"/>
    </contour>
    <contour>
      <point x="131" y="1078" type="line"/>
      <point x="131" y="1075" type="line"/>
      <point x="406" y="1075" type="line"/>
      <point x="566" y="1372" type="line"/>
      <point x="566" y="1376" type="line"/>
      <point x="222" y="1376" type="line"/>
    </contour>
  </outline>
</glyph>
<glyph name="idieresis" format="2">
  <advance width="538"/>
  <unicode hex="00EF"/>
  <anchor x="269" y="0" name="bottom"/>
  <anchor x="476" y="0" name="ogonek"/>
  <anchor x="269" y="1360" name="top"/>
  <outline>
    <contour>
      <point x="446" y="0" type="line"/>
      <point x="446" y="985" type="line"/>
      <point x="92" y="985" type="line"/>
      <point x="92" y="0" type="line"/>
    </contour>
    <contour>
      <point x="106" y="1062" type="curve" smooth="yes"/>
      <point x="204" y="1062"/>
      <point x="253" y="1119"/>
      <point x="253" y="1216" type="curve" smooth="yes"/>
      <point x="253" y="1225" type="line" smooth="yes"/>
      <point x="253" y="1322"/>
      <point x="204" y="1380"/>
      <point x="106" y="1380" type="curve" smooth="yes"/>
      <point x="9" y="1380"/>
      <point x="-40" y="1322"/>
      <point x="-40" y="1225" type="curve" smooth="yes"/>
      <point x="-40" y="1216" type="line" smooth="yes"/>
      <point x="-40" y="1119"/>
      <point x="9" y="1062"/>
    </contour>
    <contour>
      <point x="432" y="1062" type="curve" smooth="yes"/>
      <point x="528" y="1062"/>
      <point x="578" y="1119"/>
      <point x="578" y="1216" type="curve" smooth="yes"/>
      <point x="578" y="1225" type="line" smooth="yes"/>
      <point x="578" y="1322"/>
      <point x="528" y="1380"/>
      <point x="432" y="1380" type="curve" smooth="yes"/>
      <point x="334" y="1380"/>
      <point x="286" y="1322"/>
      <point x="286" y="1225" type="curve" smooth="yes"/>
      <point x="286" y="1216" type="line" smooth="yes"/>
      <point x="286" y="1119"/>
      <point x="333" y="1062"/>
    </contour>
  </outline>
</glyph>
<glyph name="ntilde" format="2">
  <advance width="1156"/>
  <unicode hex="00F1"/>
  <anchor x="579" y="0" name="bottom"/>
  <anchor x="579" y="1370" name="top"/>
  <outline>
    <contour>
      <point x="1071" y="0" type="line"/>
      <point x="1071" y="627" type="line" smooth="yes"/>
      <point x="1071" y="884"/>
      <point x="972" y="1009"/>
      <point x="757" y="1009" type="curve" smooth="yes"/>
      <point x="558" y="1009"/>
      <point x="475" y="904"/>
      <point x="445" y="767" type="curve"/>
      <point x="388" y="767" type="line"/>
      <point x="442" y="621" type="line"/>
      <point x="466" y="674"/>
      <point x="515" y="717"/>
      <point x="590" y="717" type="curve" smooth="yes"/>
      <point x="686" y="717"/>
      <point x="717" y="660"/>
      <point x="717" y="566" type="curve" smooth="yes"/>
      <point x="717" y="0" type="line"/>
    </contour>
    <contour>
      <point x="446" y="0" type="line"/>
      <point x="446" y="696" type="line"/>
      <point x="433" y="732" type="line"/>
      <point x="444" y="985" type="line"/>
      <point x="92" y="985" type="line"/>
      <point x="92" y="0" type="line"/>
    </contour>
    <contour>
      <point x="715" y="1082" type="curve" smooth="yes"/>
      <point x="871" y="1082"/>
      <point x="926" y="1182"/>
      <point x="926" y="1325" type="curve" smooth="yes"/>
      <point x="926" y="1368" type="line"/>
      <point x="734" y="1368" type="line"/>
      <point x="734" y="1367" type="line"/>
      <point x="733" y="1325"/>
      <point x="721" y="1304"/>
      <point x="684" y="1304" type="curve" smooth="yes"/>
      <point x="622" y="1304"/>
      <point x="549" y="1355"/>
      <point x="443" y="1355" type="curve" smooth="yes"/>
      <point x="286" y="1355"/>
      <point x="232" y="1252"/>
      <point x="232" y="1109" type="curve" smooth="yes"/>
      <point x="232" y="1069" type="line"/>
      <point x="423" y="1069" type="line"/>
      <point x="423" y="1070" type="line"/>
      <point x="424" y="1112"/>
      <point x="436" y="1133"/>
      <point x="475" y="1133" type="curve" smooth="yes"/>
      <point x="537" y="1133"/>
      <point x="619" y="1082"/>
    </contour>
  </outline>
</glyph>
<glyph name="ograve" format="2">
  <advance width="1112"/>
  <unicode hex="00F2"/>
  <anchor x="557" y="0" name="bottom"/>
  <anchor x="557" y="493" name="center"/>
  <anchor x="857" y="10" name="ogonek"/>
  <anchor x="448" y="1370" name="top"/>
  <anchor x="1101" y="985" name="topright"/>
  <outline>
    <contour>
      <point x="556" y="-30" type="curve" smooth="yes"/>
      <point x="887" y="-30"/>
      <point x="1054" y="139"/>
      <point x="1054" y="425" type="curve" smooth="yes"/>
      <point x="1054" y="550" type="line" smooth="yes"/>
      <point x="1054" y="842"/>
      <point x="885" y="1015"/>
      <point x="556" y="1015" type="curve" smooth="yes"/>
      <point x="228" y="1015"/>
      <point x="58" y="842"/>
      <point x="58" y="550" type="curve" smooth="yes"/>
      <point x="58" y="425" type="line" smooth="yes"/>
      <point x="58" y="139"/>
      <point x="226" y="-30"/>
    </contour>
    <contour>
      <point x="556" y="248" type="curve" smooth="yes"/>
      <point x="462" y="248"/>
      <point x="412" y="307"/>
      <point x="412" y="412" type="curve" smooth="yes"/>
      <point x="412" y="564" type="line" smooth="yes"/>
      <point x="412" y="677"/>
      <point x="462" y="737"/>
      <point x="556" y="737" type="curve" smooth="yes"/>
      <point x="651" y="737"/>
      <point x="700" y="677"/>
      <point x="700" y="564" type="curve" smooth="yes"/>
      <point x="700" y="412" type="line" smooth="yes"/>
      <point x="700" y="307"/>
      <point x="651" y="248"/>
    </contour>
    <contour>
      <point x="183" y="1376" type="line"/>
      <point x="183" y="1372" type="line"/>
      <point x="427" y="1075" type="line"/>
      <point x="714" y="1075" type="line"/>
      <point x="714" y="1078" type="line"/>
      <point x="545" y="1376" type="line"/>
    </contour>
  </outline>
</glyph>
<glyph name="odieresis" format="2">
  <advance width="1112"/>
  <unicode hex="00F6"/>
  <anchor x="557" y="0" name="bottom"/>
  <anchor x="557" y="493" name="center"/>
  <anchor x="857" y="10" name="ogonek"/>
  <anchor x="557" y="1360" name="top"/>
  <anchor x="1101" y="985" name="topright"/>
  <outline>
    <contour>
      <point x="556" y="-30" type="curve" smooth="yes"/>
      <point x="887" y="-30"/>
      <point x="1054" y="139"/>
      <point x="1054" y="425" type="curve" smooth="yes"/>
      <point x="1054" y="550" type="line" smooth="yes"/>
      <point x="1054" y="842"/>
      <point x="885" y="1015"/>
      <point x="556" y="1015" type="curve" smooth="yes"/>
      <point x="228" y="1015"/>
      <point x="58" y="842"/>
      <point x="58" y="550" type="curve" smooth="yes"/>
      <point x="58" y="425" type="line" smooth="yes"/>
      <point x="58" y="139"/>
      <point x="226" y="-30"/>
    </contour>
    <contour>
      <point x="556" y="248" type="curve" smooth="yes"/>
      <point x="462" y="248"/>
      <point x="412" y="307"/>
      <point x="412" y="412" type="curve" smooth="yes"/>
      <point x="412" y="564" type="line" smooth="yes"/>
      <point x="412" y="677"/>
      <point x="462" y="737"/>
      <point x="556" y="737" type="curve" smooth="yes"/>
      <point x="651" y="737"/>
      <point x="700" y="677"/>
      <point x="700" y="564" type="curve" smooth="yes"/>
      <point x="700" y="412" type="line" smooth="yes"/>
      <point x="700" y="307"/>
      <point x="651" y="248"/>
    </contour>
    <contour>
      <point x="374" y="1062" type="curve" smooth="yes"/>
      <point x="480" y="1062"/>
      <point x="531" y="1119"/>
      <point x="531" y="1216" type="curve" smooth="yes"/>
      <point x="531" y="1224" type="line" smooth="yes"/>
      <point x="531" y="1322"/>
      <point x="480" y="1380"/>
      <point x="374" y="1380" type="curve" smooth="yes"/>
      <point x="270" y="1380"/>
      <point x="219" y="1322"/>
      <point x="219" y="1224" type="curve" smooth="yes"/>
      <point x="219" y="1216" type="line" smooth="yes"/>
      <point x="219" y="1119"/>
      <point x="270" y="1062"/>
    </contour>
    <contour>
      <point x="739" y="1062" type="curve" smooth="yes"/>
      <point x="843" y="1062"/>
      <point x="895" y="1119"/>
      <point x="895" y="1216" type="curve" smooth="yes"/>
      <point x="895" y="1224" type="line" smooth="yes"/>
      <point x="895" y="1322"/>
      <point x="843" y="1380"/>
      <point x="739" y="1380" type="curve" smooth="yes"/>
      <point x="634" y="1380"/>
      <point x="584" y="1322"/>
      <point x="584" y="1224" type="curve" smooth="yes"/>
      <point x="584" y="1216" type="line" smooth="yes"/>
      <point x="584" y="1119"/>
      <point x="633" y="1062"/>
    </contour>
  </outline>
</glyph>
<glyph name="divide" format="2">
  <advance width="1028"/>
  <unicode hex="00F7"/>
  <outline>
    <contour>
      <point x="944" y="478" type="line"/>
      <point x="944" y="758" type="line"/>
      <point x="84" y="758" type="line"/>
      <point x="84" y="478" type="line"/>
    </contour>
    <contour>
      <point x="510.2" y="117" type="curve" smooth="yes"/>
      <point x="611.8" y="117"/>
      <point x="660.6" y="173"/>
      <point x="660.6" y="266.6" type="curve" smooth="yes"/>
      <point x="660.6" y="275.4" type="line" smooth="yes"/>
      <point x="660.6" y="368.2"/>
      <point x="611.8" y="425.8"/>
      <point x="510.2" y="425.8" type="curve" smooth="yes"/>
      <point x="406.2" y="425.8"/>
      <point x="359" y="368.2"/>
      <point x="359" y="275.4" type="curve" smooth="yes"/>
      <point x="359" y="266.6" type="line" smooth="yes"/>
      <point x="359" y="173"/>
      <point x="406.2" y="117"/>
    </contour>
    <contour>
      <point x="510.2" y="810" type="curve" smooth="yes"/>
      <point x="611.8" y="810"/>
      <point x="660.6" y="866"/>
      <point x="660.6" y="959.6" type="curve" smooth="yes"/>
      <point x="660.6" y="968.4" type="line" smooth="yes"/>
      <point x="660.6" y="1061.2"/>
      <point x="611.8" y="1118.8"/>
      <point x="510.2" y="1118.8" type="curve" smooth="yes"/>
      <point x="406.2" y="1118.8"/>
      <point x="359" y="1061.2"/>
      <point x="359" y="968.4" type="curve" smooth="yes"/>
      <point x="359" y="959.6" type="line" smooth="yes"/>
      <point x="359" y="866"/>
      <point x="406.2" y="810"/>
    </contour>
  </outline>
</glyph>
<glyph name="ydieresis" format="2">
  <advance width="1075"/>
  <unicode hex="00FF"/>
  <anchor x="932" y="-43" name="bottom"/>
  <anchor x="538" y="1360" name="top"/>
  <outline>
    <contour>
      <point x="513" y="276" type="line"/>
      <point x="375" y="985" type="line"/>
      <point x="11" y="985" type="line"/>
      <point x="260" y="43" type="line"/>
      <point x="650" y="43" type="line"/>
      <point x="482" y="174" type="line"/>
      <point x="329" y="-344" type="line"/>
      <point x="682" y="-344" type="line"/>
      <point x="1064" y="985" type="line"/>
      <point x="702" y="985" type="line"/>
      <point x="505" y="194" type="line"/>
      <point x="695" y="276" type="line"/>
    </contour>
    <contour>
      <point x="355" y="1062" type="curve" smooth="yes"/>
      <point x="461" y="1062"/>
      <point x="512" y="1119"/>
      <point x="512" y="1216" type="curve" smooth="yes"/>
      <point x="512" y="1224" type="line" smooth="yes"/>
      <point x="512" y="1322"/>
      <point x="461" y="1380"/>
      <point x="355" y="1380" type="curve" smooth="yes"/>
      <point x="251" y="1380"/>
      <point x="200" y="1322"/>
      <point x="200" y="1224" type="curve" smooth="yes"/>
      <point x="200" y="1216" type="line" smooth="yes"/>
      <point x="200" y="1119"/>
      <point x="251" y="1062"/>
    </contour>
    <contour>
      <point x="720" y="1062" type="curve" smooth="yes"/>
      <point x="824" y="1062"/>
      <point x="876" y="1119"/>
      <point x="876" y="1216" type="curve" smooth="yes"/>
      <point x="876" y="1224" type="line" smooth="yes"/>
      <point x="876" y="1322"/>
      <point x="824" y="1380"/>
      <point x="720" y="1380" type="curve" smooth="yes"/>
      <point x="615" y="1380"/>
      <point x="565" y="1322"/>
      <point x="565" y="1224" type="curve" smooth="yes"/>
      <point x="565" y="1216" type="line" smooth="yes"/>
      <point x="565" y="1119"/>
      <point x="614" y="1062"/>
    </contour>
  </outline>
</glyph>
<glyph name="ring" format="2">
  <advance width="678"/>
  <unicode hex="02DA"/>
  <anchor x="339" y="985" name="_top"/>
  <anchor x="339" y="1414" name="top"/>
  <outline>
    <contour>
      <point x="100" y="1245" type="line" smooth="yes"/>
      <point x="100" y="1137"/>
      <point x="170" y="1058"/>
      <point x="339" y="1058" type="curve" smooth="yes"/>
      <point x="508" y="1058"/>
      <point x="578" y="1137"/>
      <point x="578" y="1245" type="curve" smooth="yes"/>
      <point x="578" y="1252" type="line" smooth="yes"/>
      <point x="578" y="1361"/>
      <point x="508" y="1439"/>
      <point x="339" y="1439" type="curve" smooth="yes"/>
      <point x="170" y="1439"/>
      <point x="100" y="1361"/>
      <point x="100" y="1252" type="curve" smooth="yes"/>
    </contour>
    <contour>
      <point x="264" y="1251" type="line" smooth="yes"/>
      <point x="264" y="1288"/>
      <point x="290" y="1309"/>
      <point x="339" y="1309" type="curve" smooth="yes"/>
      <point x="387" y="1309"/>
      <point x="413" y="1288"/>
      <point x="413" y="1251" type="curve" smooth="yes"/>
      <point x="413" y="1247" type="line" smooth="yes"/>
      <point x="413" y="1209"/>
      <point x="387" y="1187"/>
      <point x="339" y="1187" type="curve" smooth="yes"/>
      <point x="290" y="1187"/>
      <point x="264" y="1209"/>
      <point x="264" y="1247" type="curve" smooth="yes"/>
    </contour>
  </outline>
</glyph>
<glyph name="tilde" format="2">
  <advance width="894"/>
  <unicode hex="02DC"/>
  <anchor x="447" y="985" name="_top"/>
  <anchor x="447" y="1370" name="top"/>
  <outline>
    <contour>
      <point x="583" y="1082" type="curve" smooth="yes"/>
      <point x="739" y="1082"/>
      <point x="794" y="1182"/>
      <point x="794" y="1325" type="curve" smooth="yes"/>
      <point x="794" y="1368" type="line"/>
      <point x="602" y="1368" type="line"/>
      <point x="602" y="1367" type="line"/>
      <point x="601" y="1325"/>
      <point x="589" y="1304"/>
      <point x="552" y="1304" type="curve" smooth="yes"/>
      <point x="490" y="1304"/>
      <point x="417" y="1355"/>
      <point x="311" y="1355" type="curve" smooth="yes"/>
      <point x="154" y="1355"/>
      <point x="100" y="1252"/>
      <point x="100" y="1109" type="curve" smooth="yes"/>
      <point x="100" y="1069" type="line"/>
      <point x="291" y="1069" type="line"/>
      <point x="291" y="1070" type="line"/>
      <point x="292" y="1112"/>
      <point x="304" y="1133"/>
      <point x="343" y="1133" type="curve" smooth="yes"/>
      <point x="405" y="1133"/>
      <point x="487" y="1082"/>
    </contour>
  </outline>
</glyph>
<glyph name="macroncomb" format="2">
  <advance width="837"/>
  <unicode hex="0304"/>
  <anchor x="418" y="985" name="_top"/>
  <anchor x="419" y="1308" name="top"/>
  <outline>
    <contour>
      <point x="747" y="1094" type="line"/>
      <point x="747" y="1303" type="line"/>
      <point x="90" y="1303" type="line"/>
      <point x="90" y="1094" type="line"/>
    </contour>
  </outline>
</glyph>
<glyph name="Chandrabindu.dv" format="2">
  <unicode hex="0901"/>
  <anchor x="-287.5" y="1234.5" name="_top"/>
  <outline>
    <contour>
      <point x="-286.5" y="1651.5" type="curve" smooth="yes"/>
      <point x="-376.5" y="1651.5"/>
      <point x="-412" y="1706"/>
      <point x="-412" y="1788.5" type="curve" smooth="yes"/>
      <point x="-412" y="1797.5" type="line" smooth="yes"/>
      <point x="-412" y="1879"/>
      <point x="-376.5" y="1935"/>
      <point x="-286.5" y="1935" type="curve" smooth="yes"/>
      <point x="-196.5" y="1935"/>
      <point x="-161" y="1879"/>
      <point x="-161" y="1797.5" type="curve" smooth="yes"/>
      <point x="-161" y="1788.5" type="line" smooth="yes"/>
      <point x="-161" y="1706"/>
      <point x="-196.5" y="1651.5"/>
    </contour>
    <contour>
      <point x="143.5" y="1777" type="line"/>
      <point x="148" y="1744.03"/>
      <point x="148" y="1725.93"/>
      <point x="148" y="1712.5" type="curve" smooth="yes"/>
      <point x="148" y="1493.32"/>
      <point x="1" y="1380"/>
      <point x="-287.5" y="1380" type="curve" smooth="yes"/>
      <point x="-572.5" y="1380"/>
      <point x="-723.5" y="1493.32"/>
      <point x="-723.5" y="1712.5" type="curve" smooth="yes"/>
      <point x="-723.5" y="1727.38"/>
      <point x="-724.111" y="1739.36"/>
      <point x="-720" y="1777" type="curve"/>
      <point x="-485" y="1777" type="line"/>
      <point x="-485" y="1747" type="line" smooth="yes"/>
      <point x="-485" y="1640.5"/>
      <point x="-418" y="1587"/>
      <point x="-287.5" y="1587" type="curve" smooth="yes"/>
      <point x="-152.5" y="1587"/>
      <point x="-89" y="1642.5"/>
      <point x="-89" y="1747" type="curve" smooth="yes"/>
      <point x="-89" y="1777" type="line"/>
    </contour>
  </outline>
  <guideline angle="90" x="-169" y="0"/>
  <guideline angle="0" x="0" y="1262"/>
</glyph>
<glyph name="Bindu.dv" format="2">
  <unicode hex="0902"/>
  <anchor x="-287.5" y="1234.5" name="_top"/>
  <outline>
    <contour>
      <point x="-285.01" y="1395" type="curve" smooth="yes"/>
      <point x="-414.13" y="1395"/>
      <point x="-473.65" y="1462.2"/>
      <point x="-473.65" y="1567.8" type="curve" smooth="yes"/>
      <point x="-473.65" y="1577.4" type="line" smooth="yes"/>
      <point x="-473.65" y="1680.6"/>
      <point x="-411.73" y="1749.24"/>
      <point x="-285.01" y="1749.24" type="curve" smooth="yes"/>
      <point x="-158.29" y="1749.24"/>
      <point x="-96.85" y="1683"/>
      <point x="-96.85" y="1577.4" type="curve" smooth="yes"/>
      <point x="-96.85" y="1567.8" type="line" smooth="yes"/>
      <point x="-96.85" y="1462.2"/>
      <point x="-154.93" y="1395"/>
    </contour>
  </outline>
  <guideline angle="90" x="-169" y="0"/>
  <guideline angle="0" x="0" y="1262"/>
</glyph>
<glyph name="vowelIi.dv" format="2">
  <advance width="1158"/>
  <unicode hex="0908"/>
  <anchor x="1057" y="-264" name="bottom3"/>
  <anchor x="848" y="1234.5" name="top"/>
  <outline>
    <contour>
      <point x="616" y="1033" type="line"/>
      <point x="598.5" y="1287" type="line"/>
      <point x="1165" y="1287" type="line"/>
      <point x="1182.5" y="1033" type="line"/>
    </contour>
    <contour>
      <point x="1017.5" y="1119" type="line"/>
      <point x="1017.5" y="927.5" type="line"/>
      <point x="684" y="927.5" type="line"/>
      <point x="684" y="1119" type="line"/>
    </contour>
    <contour>
      <point x="1203.5" y="1033" type="line"/>
      <point x="-30" y="1033" type="line"/>
      <point x="-47.5" y="1287" type="line"/>
      <point x="1186" y="1287" type="line"/>
    </contour>
    <contour>
      <point x="684.5" y="1101" type="line"/>
      <point x="1018" y="1101" type="line"/>
      <point x="1018" y="694.5" type="line"/>
      <point x="684.5" y="763" type="line"/>
    </contour>
    <contour>
      <point x="891" y="-370.5" type="line"/>
      <point x="499.5" y="-370.5" type="line"/>
      <point x="251" y="-10.5" type="line"/>
      <point x="91" y="44" type="line"/>
      <point x="539" y="14.5" type="line"/>
      <point x="539" y="-52.5" type="line"/>
      <point x="661" y="-108.582"/>
      <point x="712.156" y="-151.847"/>
      <point x="788" y="-238" type="curve" smooth="yes"/>
      <point x="891" y="-355" type="line"/>
    </contour>
    <contour>
      <point x="69.5" y="327.5" type="line"/>
      <point x="214.5" y="258.5"/>
      <point x="380" y="214"/>
      <point x="540.5" y="214" type="curve" smooth="yes"/>
      <point x="728" y="214"/>
      <point x="760" y="237"/>
      <point x="760" y="289.5" type="curve"/>
      <point x="760" y="291.5" type="line"/>
      <point x="760" y="337"/>
      <point x="734" y="360.5"/>
      <point x="623.5" y="360.5" type="curve" smooth="yes"/>
      <point x="523" y="360.5"/>
      <point x="435" y="342.5"/>
      <point x="345" y="314.5" type="curve"/>
      <point x="173" y="360.5"/>
      <point x="77.5" y="465"/>
      <point x="77.5" y="627" type="curve" smooth="yes"/>
      <point x="77.5" y="636.5" type="line" smooth="yes"/>
      <point x="77.5" y="831"/>
      <point x="208.5" y="941.5"/>
      <point x="539.5" y="941.5" type="curve" smooth="yes"/>
      <point x="711" y="941.5"/>
      <point x="860" y="925.5"/>
      <point x="1018" y="897" type="curve"/>
      <point x="1018" y="687.5" type="line"/>
      <point x="895" y="702.5"/>
      <point x="780" y="710"/>
      <point x="650" y="710" type="curve" smooth="yes"/>
      <point x="455" y="710"/>
      <point x="414" y="679.5"/>
      <point x="414" y="631.5" type="curve" smooth="yes"/>
      <point x="414" y="628" type="line" smooth="yes"/>
      <point x="414" y="605"/>
      <point x="426" y="588"/>
      <point x="444.5" y="576" type="curve"/>
      <point x="530.5" y="597.5"/>
      <point x="602" y="609"/>
      <point x="704" y="609" type="curve" smooth="yes"/>
      <point x="983.5" y="609"/>
      <point x="1097.5" y="496.5"/>
      <point x="1097.5" y="299" type="curve" smooth="yes"/>
      <point x="1097.5" y="286" type="line" smooth="yes"/>
      <point x="1097.5" y="73.5"/>
      <point x="972.5" y="-45.5"/>
      <point x="597" y="-45.5" type="curve" smooth="yes"/>
      <point x="517.868" y="-45.5"/>
      <point x="406.119" y="-31.4124"/>
      <point x="324.807" y="-7.34942" type="curve"/>
      <point x="91" y="44" type="line"/>
    </contour>
    <contour>
      <point x="954" y="1262" type="line"/>
      <point x="695" y="1262" type="line"/>
      <point x="695" y="1297.5" type="line"/>
      <point x="573.123" y="1340.87"/>
      <point x="501" y="1412"/>
      <point x="501" y="1536" type="curve" smooth="yes"/>
      <point x="501" y="1544.5" type="line" smooth="yes"/>
      <point x="501" y="1703"/>
      <point x="619" y="1800.5"/>
      <point x="865" y="1800.5" type="curve" smooth="yes"/>
      <point x="945.5" y="1800.5"/>
      <point x="1013.5" y="1793.5"/>
      <point x="1076.5" y="1779" type="curve"/>
      <point x="1108" y="1523.5" type="line"/>
      <point x="1062.5" y="1530.5"/>
      <point x="1026" y="1534"/>
      <point x="982" y="1534" type="curve" smooth="yes"/>
      <point x="882.5" y="1534"/>
      <point x="835.5" y="1496"/>
      <point x="835.5" y="1426" type="curve" smooth="yes"/>
      <point x="835.5" y="1418" type="line" smooth="yes"/>
      <point x="835.5" y="1354.5"/>
      <point x="871.103" y="1311.57"/>
      <point x="954" y="1283.5" type="curve"/>
    </contour>
  </outline>
  <guideline angle="90" x="695" y="0"/>
  <guideline angle="0" x="0" y="-178"/>
  <guideline angle="90" x="728.5" y="0"/>
  <guideline angle="90" x="695" y="0"/>
  <guideline angle="90" x="967" y="0"/>
</glyph>
<glyph name="vowelChandraE.dv" format="2">
  <advance width="1191"/>
  <unicode hex="090D"/>
  <outline>
    <contour>
      <point x="1012" y="1778.5" type="line"/>
      <point x="1014.63" y="1757.5"/>
      <point x="1015" y="1738.58"/>
      <point x="1015" y="1726" type="curve" smooth="yes"/>
      <point x="1015" y="1494.65"/>
      <point x="880.162" y="1380"/>
      <point x="609.995" y="1380" type="curve" smooth="yes"/>
      <point x="340.319" y="1380"/>
      <point x="204.5" y="1494.65"/>
      <point x="204.5" y="1726" type="curve" smooth="yes"/>
      <point x="204.5" y="1740"/>
      <point x="205.5" y="1758"/>
      <point x="208.5" y="1778.5" type="curve"/>
      <point x="483" y="1778.5" type="line"/>
      <point x="483" y="1774.86"/>
      <point x="483" y="1749.12"/>
      <point x="483" y="1747" type="curve" smooth="yes"/>
      <point x="483" y="1652"/>
      <point x="521.57" y="1608.5"/>
      <point x="610" y="1608.5" type="curve" smooth="yes"/>
      <point x="698.9" y="1608.5"/>
      <point x="737" y="1653"/>
      <point x="737" y="1747" type="curve" smooth="yes"/>
      <point x="737" y="1749.32"/>
      <point x="737" y="1775.67"/>
      <point x="737" y="1778.5" type="curve"/>
    </contour>
    <contour>
      <point x="-32" y="1033" type="line"/>
      <point x="-50" y="1287" type="line"/>
      <point x="1222.5" y="1287" type="line"/>
      <point x="1240.5" y="1033" type="line"/>
    </contour>
    <contour>
      <point x="446" y="611.5" type="line" smooth="yes"/>
      <point x="446" y="345.5"/>
      <point x="564" y="258.5"/>
      <point x="813.5" y="258.5" type="curve" smooth="yes"/>
      <point x="893.5" y="258.5"/>
      <point x="980.5" y="268.5"/>
      <point x="1052" y="285.5" type="curve"/>
      <point x="1019.5" y="8.5" type="line"/>
      <point x="952.335" y="-11.6364"/>
      <point x="867.409" y="-23"/>
      <point x="761.5" y="-23" type="curve" smooth="yes"/>
      <point x="330.648" y="-23"/>
      <point x="102" y="172"/>
      <point x="102" y="607.5" type="curve" smooth="yes"/>
      <point x="102" y="1115.5" type="line"/>
      <point x="446" y="1115.5" type="line"/>
    </contour>
    <contour>
      <point x="1097.5" y="812" type="line" smooth="yes"/>
      <point x="1097.5" y="526.776"/>
      <point x="974.877" y="407.5"/>
      <point x="724.092" y="407.5" type="curve" smooth="yes"/>
      <point x="690.082" y="407.5"/>
      <point x="648.972" y="411.855"/>
      <point x="618.5" y="417.852" type="curve"/>
      <point x="618.5" y="684.5" type="line"/>
      <point x="624.935" y="684.5"/>
      <point x="628.565" y="684.5"/>
      <point x="635" y="684.5" type="curve" smooth="yes"/>
      <point x="718.595" y="684.5"/>
      <point x="756" y="718.231"/>
      <point x="756" y="815" type="curve" smooth="yes"/>
      <point x="756" y="1105" type="line"/>
      <point x="1097.5" y="1105" type="line"/>
    </contour>
  </outline>
  <guideline angle="90" x="171" y="0"/>
</glyph>
<glyph name="vowelE.dv" format="2">
  <advance width="1191"/>
  <unicode hex="090F"/>
  <anchor x="1075" y="37" name="bottom3"/>
  <anchor x="607" y="1234.5" name="top"/>
  <outline>
    <contour>
      <point x="-32" y="1033" type="line"/>
      <point x="-50" y="1287" type="line"/>
      <point x="1222.5" y="1287" type="line"/>
      <point x="1240.5" y="1033" type="line"/>
    </contour>
    <contour>
      <point x="446" y="611.5" type="line" smooth="yes"/>
      <point x="446" y="345.5"/>
      <point x="564" y="258.5"/>
      <point x="813.5" y="258.5" type="curve" smooth="yes"/>
      <point x="893.5" y="258.5"/>
      <point x="980.5" y="268.5"/>
      <point x="1052" y="285.5" type="curve"/>
      <point x="1019.5" y="8.5" type="line"/>
      <point x="952.335" y="-11.6364"/>
      <point x="867.409" y="-23"/>
      <point x="761.5" y="-23" type="curve" smooth="yes"/>
      <point x="330.648" y="-23"/>
      <point x="102" y="172"/>
      <point x="102" y="607.5" type="curve" smooth="yes"/>
      <point x="102" y="1115.5" type="line"/>
      <point x="446" y="1115.5" type="line"/>
    </contour>
    <contour>
      <point x="1097.5" y="812" type="line" smooth="yes"/>
      <point x="1097.5" y="526.776"/>
      <point x="974.877" y="407.5"/>
      <point x="724.092" y="407.5" type="curve" smooth="yes"/>
      <point x="690.082" y="407.5"/>
      <point x="648.972" y="411.855"/>
      <point x="618.5" y="417.852" type="curve"/>
      <point x="618.5" y="684.5" type="line"/>
      <point x="624.935" y="684.5"/>
      <point x="628.565" y="684.5"/>
      <point x="635" y="684.5" type="curve" smooth="yes"/>
      <point x="718.595" y="684.5"/>
      <point x="756" y="718.231"/>
      <point x="756" y="815" type="curve" smooth="yes"/>
      <point x="756" y="1105" type="line"/>
      <point x="1097.5" y="1105" type="line"/>
    </contour>
  </outline>
</glyph>
<glyph name="vowelAu.dv" format="2">
  <advance width="2196"/>
  <unicode hex="0914"/>
  <anchor x="1949" y="1234.5" name="top"/>
  <outline>
    <contour>
      <point x="1382.5" y="1664.5" type="line"/>
      <point x="1774.5" y="1411" type="line"/>
      <point x="1783" y="1422" type="line"/>
      <point x="1653.4" y="1535.33"/>
      <point x="1591.36" y="1609.42"/>
      <point x="1526.5" y="1721" type="curve" smooth="yes"/>
      <point x="1442.5" y="1865.5" type="line"/>
      <point x="1442.5" y="1893" type="line"/>
      <point x="1782" y="1893" type="line"/>
      <point x="2045.5" y="1272.5" type="line"/>
      <point x="2045.5" y="1234.5" type="line"/>
      <point x="1725" y="1234.5" type="line"/>
      <point x="1725" y="1300" type="line"/>
      <point x="1472.5" y="1334.3"/>
      <point x="1352.48" y="1378.72"/>
      <point x="1197.5" y="1481" type="curve" smooth="yes"/>
      <point x="974" y="1628.5" type="line"/>
      <point x="974" y="1664.5" type="line"/>
    </contour>
    <contour>
      <point x="2080.5" y="0" type="line"/>
      <point x="1736.5" y="0" type="line"/>
      <point x="1736.5" y="1119" type="line"/>
      <point x="2080.5" y="1119" type="line"/>
    </contour>
    <contour>
      <point x="2245.5" y="1033" type="line"/>
      <point x="1589" y="1033" type="line"/>
      <point x="1571.5" y="1287" type="line"/>
      <point x="2228" y="1287" type="line"/>
    </contour>
    <contour>
      <point x="1670.5" y="1033" type="line"/>
      <point x="1026.5" y="1033" type="line"/>
      <point x="1009" y="1287" type="line"/>
      <point x="1653" y="1287" type="line"/>
    </contour>
    <contour>
      <point x="1161" y="0" type="line"/>
      <point x="1161" y="1123.5" type="line"/>
      <point x="1505.5" y="1123.5" type="line"/>
      <point x="1505.5" y="0" type="line"/>
    </contour>
    <contour>
      <point x="49.5" y="363" type="line"/>
      <point x="148.5" y="314"/>
      <point x="272.5" y="281"/>
      <point x="396" y="281" type="curve" smooth="yes"/>
      <point x="550" y="281"/>
      <point x="599.5" y="317.5"/>
      <point x="599.5" y="397" type="curve" smooth="yes"/>
      <point x="599.5" y="403.5" type="line" smooth="yes"/>
      <point x="599.5" y="478"/>
      <point x="542.515" y="516.407"/>
      <point x="377.5" y="522.5" type="curve" smooth="yes"/>
      <point x="215" y="528.5" type="line"/>
      <point x="215" y="790" type="line"/>
      <point x="362" y="796" type="line" smooth="yes"/>
      <point x="539" y="805"/>
      <point x="583.5" y="838.5"/>
      <point x="583.5" y="911.5" type="curve" smooth="yes"/>
      <point x="583.5" y="917.5" type="line" smooth="yes"/>
      <point x="583.5" y="992.665"/>
      <point x="538" y="1028.5"/>
      <point x="405.5" y="1028.5" type="curve" smooth="yes"/>
      <point x="290.5" y="1028.5"/>
      <point x="183.5" y="1003"/>
      <point x="87" y="962" type="curve"/>
      <point x="105.5" y="1243" type="line"/>
      <point x="202.5" y="1282.5"/>
      <point x="323" y="1305"/>
      <point x="468" y="1305" type="curve" smooth="yes"/>
      <point x="785" y="1305"/>
      <point x="921" y="1179.52"/>
      <point x="921" y="978" type="curve" smooth="yes"/>
      <point x="921" y="962.5" type="line" smooth="yes"/>
      <point x="921" y="818.316"/>
      <point x="843.5" y="722.621"/>
      <point x="621" y="711.5" type="curve"/>
      <point x="626" y="584.5" type="line"/>
      <point x="877" y="516.465"/>
      <point x="938" y="434.422"/>
      <point x="938" y="305.5" type="curve" smooth="yes"/>
      <point x="938" y="297.5" type="line" smooth="yes"/>
      <point x="938" y="119.862"/>
      <point x="792.546" y="4.5"/>
      <point x="467.5" y="4.5" type="curve" smooth="yes"/>
      <point x="318.219" y="4.5"/>
      <point x="177.688" y="28.3041"/>
      <point x="66.5" y="78.5" type="curve"/>
    </contour>
    <contour>
      <point x="608" y="735" type="line"/>
      <point x="769.5" y="743.5" type="line"/>
      <point x="773" y="729" type="line"/>
      <point x="849.6" y="747.425"/>
      <point x="924.039" y="760"/>
      <point x="1027" y="760" type="curve" smooth="yes"/>
      <point x="1279.5" y="760" type="line"/>
      <point x="1279.5" y="490" type="line"/>
      <point x="1030" y="490" type="line" smooth="yes"/>
      <point x="913.379" y="490"/>
      <point x="847.31" y="513.742"/>
      <point x="764.5" y="550.5" type="curve"/>
      <point x="755.5" y="527.5" type="line"/>
      <point x="608" y="559.5" type="line"/>
    </contour>
  </outline>
  <guideline angle="90" x="1047" y="0"/>
  <guideline angle="0" x="0" y="1262"/>
</glyph>
<glyph name="Nya.dv" format="2">
  <advance width="1441"/>
  <unicode hex="091E"/>
  <anchor x="1154.5" y="37" name="bottom"/>
  <anchor x="1147" y="37" name="bottom2"/>
  <anchor x="1326" y="37" name="bottom3"/>
  <anchor x="1154" y="55" name="bottom5"/>
  <anchor x="1154" y="1234.5" name="top"/>
  <outline>
    <contour>
      <point x="-32" y="1033" type="line"/>
      <point x="-49.5" y="1287" type="line"/>
      <point x="1473.5" y="1287" type="line"/>
      <point x="1491" y="1033" type="line"/>
    </contour>
    <contour>
      <point x="116" y="896.5" type="line"/>
      <point x="198" y="919"/>
      <point x="281.5" y="929.5"/>
      <point x="377" y="929.5" type="curve" smooth="yes"/>
      <point x="668.5" y="929.5"/>
      <point x="803.5" y="801"/>
      <point x="803.5" y="521" type="curve" smooth="yes"/>
      <point x="803.5" y="485" type="line" smooth="yes"/>
      <point x="803.5" y="197.5"/>
      <point x="667.5" y="79"/>
      <point x="370.5" y="79" type="curve" smooth="yes"/>
      <point x="251.5" y="79"/>
      <point x="158" y="96.5"/>
      <point x="87" y="126.5" type="curve"/>
      <point x="72" y="399" type="line"/>
      <point x="131.5" y="377.5"/>
      <point x="206.5" y="359.5"/>
      <point x="285.5" y="359.5" type="curve" smooth="yes"/>
      <point x="423.5" y="359.5"/>
      <point x="469.5" y="401.2"/>
      <point x="469.5" y="498.5" type="curve" smooth="yes"/>
      <point x="469.5" y="512" type="line" smooth="yes"/>
      <point x="469.5" y="611.391"/>
      <point x="427" y="649.5"/>
      <point x="287.5" y="649.5" type="curve" smooth="yes"/>
      <point x="223.5" y="649.5"/>
      <point x="156.5" y="638.5"/>
      <point x="93.5" y="621.5" type="curve"/>
    </contour>
    <contour>
      <point x="734" y="647" type="line"/>
      <point x="1048" y="647" type="line"/>
      <point x="1048" y="374" type="line"/>
      <point x="734" y="374" type="line"/>
    </contour>
    <contour>
      <point x="1326" y="1119" type="line"/>
      <point x="1326" y="0" type="line"/>
      <point x="982" y="0" type="line"/>
      <point x="982" y="1119" type="line"/>
    </contour>
    <contour>
      <point x="934" y="1033" type="line"/>
      <point x="916.5" y="1287" type="line"/>
      <point x="1473.5" y="1287" type="line"/>
      <point x="1491" y="1033" type="line"/>
    </contour>
  </outline>
  <guideline angle="90" x="1029.5" y="0"/>
  <guideline angle="0" x="0" y="9"/>
  <guideline angle="90" x="1034.5" y="0"/>
  <guideline angle="90" x="1017.5" y="0"/>
  <guideline angle="0" x="0" y="1262"/>
  <guideline angle="90" x="1154.5" y="0"/>
  <guideline angle="0" x="0" y="30"/>
</glyph>
<glyph name="Nna.dv" format="2">
  <advance width="1703"/>
  <unicode hex="0923"/>
  <anchor x="1416" y="37" name="bottom"/>
  <anchor x="1408.5" y="37" name="bottom2"/>
  <anchor x="1587.5" y="37" name="bottom3"/>
  <anchor x="1415.5" y="55" name="bottom5"/>
  <anchor x="1415.5" y="1234.5" name="top"/>
  <outline>
    <contour>
      <point x="1587.5" y="1119" type="line"/>
      <point x="1587.5" y="0" type="line"/>
      <point x="1243.5" y="0" type="line"/>
      <point x="1243.5" y="1119" type="line"/>
    </contour>
    <contour>
      <point x="1195.5" y="1033" type="line"/>
      <point x="1178" y="1287" type="line"/>
      <point x="1735" y="1287" type="line"/>
      <point x="1752.5" y="1033" type="line"/>
    </contour>
    <contour>
      <point x="-34" y="1033" type="line"/>
      <point x="-51.5" y="1287" type="line"/>
      <point x="1735" y="1287" type="line"/>
      <point x="1752.5" y="1033" type="line"/>
    </contour>
    <contour>
      <point x="571" y="230.5" type="curve" smooth="yes"/>
      <point x="259.5" y="230.5"/>
      <point x="105.5" y="369.5"/>
      <point x="105.5" y="674.5" type="curve" smooth="yes"/>
      <point x="105.5" y="1119.5" type="line"/>
      <point x="445" y="1119.5" type="line"/>
      <point x="445" y="664" type="line" smooth="yes"/>
      <point x="445" y="553"/>
      <point x="485.117" y="506"/>
      <point x="571.486" y="506" type="curve" smooth="yes"/>
      <point x="657.383" y="506"/>
      <point x="697.5" y="553"/>
      <point x="697.5" y="664" type="curve" smooth="yes"/>
      <point x="697.5" y="1119.5" type="line"/>
      <point x="1036.5" y="1119.5" type="line"/>
      <point x="1036.5" y="674.5" type="line" smooth="yes"/>
      <point x="1036.5" y="369.5"/>
      <point x="882" y="230.5"/>
    </contour>
  </outline>
  <guideline angle="90" x="1291" y="0"/>
  <guideline angle="0" x="0" y="9"/>
  <guideline angle="90" x="1296" y="0"/>
  <guideline angle="90" x="1279" y="0"/>
  <guideline angle="0" x="0" y="1262"/>
  <guideline angle="90" x="1416" y="0"/>
  <guideline angle="0" x="0" y="30"/>
</glyph>
<glyph name="Na.dv" format="2">
  <advance width="1245"/>
  <unicode hex="0928"/>
  <anchor x="958.5" y="37" name="bottom"/>
  <anchor x="951" y="37" name="bottom2"/>
  <anchor x="1130" y="37" name="bottom3"/>
  <anchor x="958" y="55" name="bottom5"/>
  <anchor x="958" y="1234.5" name="top"/>
  <outline>
    <contour>
      <point x="1130" y="1119" type="line"/>
      <point x="1130" y="0" type="line"/>
      <point x="786" y="0" type="line"/>
      <point x="786" y="1119" type="line"/>
    </contour>
    <contour>
      <point x="738" y="1033" type="line"/>
      <point x="720.5" y="1287" type="line"/>
      <point x="1277.5" y="1287" type="line"/>
      <point x="1295" y="1033" type="line"/>
    </contour>
    <contour>
      <point x="1195" y="1033" type="line"/>
      <point x="-37.5" y="1033" type="line"/>
      <point x="-55" y="1287" type="line"/>
      <point x="1177.5" y="1287" type="line"/>
    </contour>
    <contour>
      <point x="922.5" y="798.5" type="line"/>
      <point x="922.5" y="522.5" type="line"/>
      <point x="370.5" y="522.5" type="line"/>
      <point x="370.5" y="798.5" type="line"/>
    </contour>
    <contour>
      <point x="207.5" y="210" type="line"/>
      <point x="121.5" y="340"/>
      <point x="59.5" y="505.5"/>
      <point x="45" y="693.5" type="curve"/>
      <point x="199" y="798.5" type="line"/>
      <point x="495.5" y="798.5" type="line"/>
      <point x="495.5" y="210" type="line"/>
    </contour>
  </outline>
  <guideline angle="90" x="833.5" y="0"/>
  <guideline angle="0" x="0" y="9"/>
  <guideline angle="90" x="838.5" y="0"/>
  <guideline angle="90" x="821.5" y="0"/>
  <guideline angle="0" x="0" y="1262"/>
  <guideline angle="90" x="958.5" y="0"/>
  <guideline angle="0" x="0" y="30"/>
</glyph>
<glyph name="Pa.dv" format="2">
  <advance width="1255"/>
  <unicode hex="092A"/>
  <anchor x="968.5" y="37" name="bottom"/>
  <anchor x="961" y="37" name="bottom2"/>
  <anchor x="1140" y="37" name="bottom3"/>
  <anchor x="968" y="55" name="bottom5"/>
  <anchor x="968" y="1234.5" name="top"/>
  <outline>
    <contour>
      <point x="1140" y="1119" type="line"/>
      <point x="1140" y="0" type="line"/>
      <point x="796" y="0" type="line"/>
      <point x="796" y="1119" type="line"/>
    </contour>
    <contour>
      <point x="748" y="1033" type="line"/>
      <point x="730.5" y="1287" type="line"/>
      <point x="1287.5" y="1287" type="line"/>
      <point x="1305" y="1033" type="line"/>
    </contour>
    <contour>
      <point x="-32" y="1033" type="line"/>
      <point x="-49.5" y="1287" type="line"/>
      <point x="1287.5" y="1287" type="line"/>
      <point x="1305" y="1033" type="line"/>
    </contour>
    <contour>
      <point x="482.5" y="238.5" type="curve" smooth="yes"/>
      <point x="241" y="238.5"/>
      <point x="105.5" y="373.5"/>
      <point x="105.5" y="666" type="curve" smooth="yes"/>
      <point x="105.5" y="1119.5" type="line"/>
      <point x="449.5" y="1119.5" type="line"/>
      <point x="449.5" y="715" type="line" smooth="yes"/>
      <point x="449.5" y="570.5"/>
      <point x="502.5" y="522"/>
      <point x="620" y="522" type="curve" smooth="yes"/>
      <point x="725" y="522"/>
      <point x="786" y="573.5"/>
      <point x="800.5" y="647.5" type="curve"/>
      <point x="819" y="449" type="line"/>
      <point x="784.5" y="449" type="line"/>
      <point x="754.5" y="326.5"/>
      <point x="667.5" y="238.5"/>
    </contour>
  </outline>
  <guideline angle="0" x="0" y="239"/>
  <guideline angle="90" x="843.5" y="0"/>
  <guideline angle="0" x="0" y="9"/>
  <guideline angle="90" x="848.5" y="0"/>
  <guideline angle="90" x="831.5" y="0"/>
  <guideline angle="0" x="0" y="1262"/>
  <guideline angle="90" x="968.5" y="0"/>
  <guideline angle="0" x="0" y="30"/>
</glyph>
<glyph name="La.dv" format="2">
  <advance width="1572"/>
  <unicode hex="0932"/>
  <anchor x="1285" y="37" name="bottom"/>
  <anchor x="1277.5" y="37" name="bottom2"/>
  <anchor x="1456.5" y="37" name="bottom3"/>
  <anchor x="1284.5" y="55" name="bottom5"/>
  <anchor x="1284.5" y="1234.5" name="top"/>
  <outline>
    <contour>
      <point x="1456.5" y="1119" type="line"/>
      <point x="1456.5" y="0" type="line"/>
      <point x="1112.5" y="0" type="line"/>
      <point x="1112.5" y="1119" type="line"/>
    </contour>
    <contour>
      <point x="1064.5" y="1033" type="line"/>
      <point x="1047" y="1287" type="line"/>
      <point x="1604" y="1287" type="line"/>
      <point x="1621.5" y="1033" type="line"/>
    </contour>
    <contour>
      <point x="-32" y="1033" type="line"/>
      <point x="-50" y="1287" type="line"/>
      <point x="1504" y="1287" type="line"/>
      <point x="1522" y="1033" type="line"/>
    </contour>
    <contour>
      <point x="478.224" y="882" type="curve" smooth="yes"/>
      <point x="647.883" y="882"/>
      <point x="736.766" y="822"/>
      <point x="771" y="714" type="curve"/>
      <point x="780" y="714" type="line"/>
      <point x="806.6" y="821"/>
      <point x="893.02" y="880"/>
      <point x="1003.8" y="880" type="curve" smooth="yes"/>
      <point x="1065" y="880"/>
      <point x="1109.41" y="866"/>
      <point x="1139" y="837" type="curve"/>
      <point x="1122" y="534" type="line"/>
      <point x="1110.14" y="576"/>
      <point x="1085.46" y="599"/>
      <point x="1038.96" y="599" type="curve" smooth="yes"/>
      <point x="983.258" y="599"/>
      <point x="949.808" y="566.535"/>
      <point x="946" y="466.068" type="curve" smooth="yes"/>
      <point x="938" y="255" type="line"/>
      <point x="631" y="255" type="line"/>
      <point x="622" y="466.059" type="line" smooth="yes"/>
      <point x="617.89" y="562.453"/>
      <point x="593.45" y="600"/>
      <point x="526.053" y="600" type="curve" smooth="yes"/>
      <point x="458.354" y="600"/>
      <point x="424" y="549"/>
      <point x="424" y="460" type="curve" smooth="yes"/>
      <point x="424" y="314"/>
      <point x="503.854" y="182.354"/>
      <point x="619" y="4.87601" type="curve"/>
      <point x="619" y="0" type="line"/>
      <point x="239" y="0" type="line"/>
      <point x="135.533" y="157.925"/>
      <point x="70" y="294"/>
      <point x="70" y="481" type="curve" smooth="yes"/>
      <point x="70" y="739"/>
      <point x="219.912" y="882"/>
    </contour>
  </outline>
  <guideline angle="90" x="70" y="0"/>
  <guideline angle="90" x="1160" y="0"/>
  <guideline angle="0" x="0" y="9"/>
  <guideline angle="90" x="1165" y="0"/>
  <guideline angle="90" x="1148" y="0"/>
  <guideline angle="0" x="0" y="1262"/>
  <guideline angle="90" x="1285" y="0"/>
  <guideline angle="0" x="0" y="30"/>
</glyph>
<glyph name="Avagraha.dv" format="2">
  <advance width="1099"/>
  <unicode hex="093D"/>
  <outline>
    <contour>
      <point x="74" y="402.5" type="line"/>
      <point x="203" y="321.446"/>
      <point x="348.5" y="258"/>
      <point x="507" y="258" type="curve" smooth="yes"/>
      <point x="620" y="258"/>
      <point x="676.5" y="296"/>
      <point x="676.5" y="363.5" type="curve" smooth="yes"/>
      <point x="676.5" y="369" type="line" smooth="yes"/>
      <point x="676.5" y="435.5"/>
      <point x="639.544" y="477.086"/>
      <point x="452" y="551.5" type="curve" smooth="yes"/>
      <point x="179.415" y="659.657"/>
      <point x="82" y="758.5"/>
      <point x="82" y="940" type="curve" smooth="yes"/>
      <point x="82" y="954" type="line" smooth="yes"/>
      <point x="82" y="1163"/>
      <point x="219.596" y="1287"/>
      <point x="526.5" y="1287" type="curve" smooth="yes"/>
      <point x="922.5" y="1287" type="line"/>
      <point x="954.5" y="1025.5" type="line"/>
      <point x="554" y="1025.5" type="line" smooth="yes"/>
      <point x="465" y="1025.5"/>
      <point x="429.5" y="997.5"/>
      <point x="429.5" y="945" type="curve" smooth="yes"/>
      <point x="429.5" y="938.5" type="line" smooth="yes"/>
      <point x="429.5" y="879"/>
      <point x="476.146" y="848.097"/>
      <point x="677.269" y="770.226" type="curve" smooth="yes"/>
      <point x="946.459" y="666"/>
      <point x="1025" y="552.5"/>
      <point x="1025" y="363" type="curve" smooth="yes"/>
      <point x="1025" y="351" type="line" smooth="yes"/>
      <point x="1025" y="104.5"/>
      <point x="867.432" y="-29"/>
      <point x="538" y="-29" type="curve" smooth="yes"/>
      <point x="356.631" y="-29"/>
      <point x="207.372" y="11.5"/>
      <point x="92" y="84" type="curve"/>
    </contour>
  </outline>
  <guideline angle="0" x="0" y="666"/>
</glyph>
<glyph name="matraI.dv" format="2">
  <advance width="575"/>
  <unicode hex="093F"/>
  <outline>
    <contour>
      <point x="459.5" y="0" type="line"/>
      <point x="115.5" y="0" type="line"/>
      <point x="115.5" y="1119" type="line"/>
      <point x="459.5" y="1119" type="line"/>
    </contour>
    <contour>
      <point x="624.5" y="1033" type="line"/>
      <point x="-32" y="1033" type="line"/>
      <point x="-49.5" y="1287" type="line"/>
      <point x="607" y="1287" type="line"/>
    </contour>
    <contour>
      <point x="749.739" y="1777" type="curve" smooth="yes"/>
      <point x="1042.63" y="1777"/>
      <point x="1293.17" y="1721.14"/>
      <point x="1516.5" y="1618.5" type="curve"/>
      <point x="1557" y="1330" type="line"/>
      <point x="1550.08" y="1328" type="line"/>
      <point x="1283.35" y="1447.5"/>
      <point x="1039.67" y="1498.5"/>
      <point x="791.565" y="1498.5" type="curve" smooth="yes"/>
      <point x="552.139" y="1498.5"/>
      <point x="455" y="1426.5"/>
      <point x="455" y="1287" type="curve" smooth="yes"/>
      <point x="455" y="1236.5" type="line"/>
      <point x="119" y="1236.5" type="line"/>
      <point x="119" y="1297.91" type="line" smooth="yes"/>
      <point x="119" y="1616.45"/>
      <point x="326.859" y="1777"/>
    </contour>
  </outline>
  <guideline angle="90" x="1516" y="0"/>
  <guideline angle="0" x="0" y="1451"/>
</glyph>
<glyph name="matraRu.dv" format="2">
  <unicode hex="0943"/>
  <anchor x="-288" y="37" name="_bottom"/>
  <outline>
    <contour>
      <point x="-318.5" y="-628" type="curve" smooth="yes"/>
      <point x="-586.5" y="-628"/>
      <point x="-754.5" y="-510.5"/>
      <point x="-754.5" y="-292.5" type="curve" smooth="yes"/>
      <point x="-754.5" y="-283" type="line" smooth="yes"/>
      <point x="-754.5" y="-84"/>
      <point x="-617" y="30.5"/>
      <point x="-349.5" y="30.5" type="curve" smooth="yes"/>
      <point x="-115.5" y="30.5" type="line"/>
      <point x="-115.5" y="-209.5" type="line"/>
      <point x="-294.5" y="-209.5" type="line" smooth="yes"/>
      <point x="-405" y="-209.5"/>
      <point x="-442" y="-235"/>
      <point x="-442" y="-285" type="curve" smooth="yes"/>
      <point x="-442" y="-288.5" type="line" smooth="yes"/>
      <point x="-442" y="-342"/>
      <point x="-393" y="-372.5"/>
      <point x="-275.5" y="-372.5" type="curve" smooth="yes"/>
      <point x="-178.5" y="-372.5"/>
      <point x="-89.5" y="-352.5"/>
      <point x="-15" y="-317.5" type="curve"/>
      <point x="-40" y="-574" type="line"/>
      <point x="-112.97" y="-609.5"/>
      <point x="-205.379" y="-628"/>
    </contour>
  </outline>
  <guideline angle="0" x="0" y="5936"/>
  <guideline angle="90" x="-186" y="0"/>
  <guideline angle="0" x="0" y="9"/>
  <guideline angle="90" x="-206" y="0"/>
  <guideline angle="0" x="0" y="15"/>
  <guideline angle="90" x="-396" y="0"/>
</glyph>
<glyph name="matraAi.dv" format="2">
  <unicode hex="0948"/>
  <anchor x="-287.5" y="1234.5" name="_top"/>
  <outline>
    <contour>
      <point x="-809.5" y="1664.5" type="line"/>
      <point x="-417.5" y="1411" type="line"/>
      <point x="-409" y="1422" type="line"/>
      <point x="-538.6" y="1535.33"/>
      <point x="-600.636" y="1609.42"/>
      <point x="-665.5" y="1721" type="curve" smooth="yes"/>
      <point x="-749.5" y="1865.5" type="line"/>
      <point x="-749.5" y="1893" type="line"/>
      <point x="-410" y="1893" type="line"/>
      <point x="-146.5" y="1272.5" type="line"/>
      <point x="-146.5" y="1234.5" type="line"/>
      <point x="-467" y="1234.5" type="line"/>
      <point x="-467" y="1300" type="line"/>
      <point x="-719.5" y="1334.3"/>
      <point x="-839.519" y="1378.72"/>
      <point x="-994.5" y="1481" type="curve" smooth="yes"/>
      <point x="-1218" y="1628.5" type="line"/>
      <point x="-1218" y="1664.5" type="line"/>
    </contour>
  </outline>
  <guideline angle="90" x="-169" y="0"/>
  <guideline angle="0" x="0" y="1262"/>
</glyph>
<glyph name="Halant.dv" format="2">
  <unicode hex="094D"/>
  <anchor x="-292.5" y="37" name="_bottom2"/>
  <outline>
    <contour>
      <point x="-487" y="-133.5" type="line"/>
      <point x="-116.5" y="-133.5" type="line"/>
      <point x="222" y="-574.5" type="line"/>
      <point x="222" y="-590" type="line"/>
      <point x="-104" y="-590" type="line"/>
      <point x="-487" y="-165.5" type="line"/>
    </contour>
  </outline>
  <guideline angle="90" x="-169" y="0"/>
  <guideline angle="90" x="-45" y="0"/>
  <guideline angle="90" x="-174" y="0"/>
  <guideline angle="0" x="0" y="9"/>
</glyph>
<glyph name="uni094F" format="2">
  <advance width="575"/>
  <unicode hex="094F"/>
  <outline>
    <contour>
      <point x="-588" y="1602.5" type="curve" smooth="yes"/>
      <point x="-588" y="1635.38"/>
      <point x="-580.875" y="1672.34"/>
      <point x="-570" y="1699" type="curve"/>
      <point x="-334" y="1699" type="line"/>
      <point x="-334" y="1676" type="line" smooth="yes"/>
      <point x="-334" y="1595"/>
      <point x="-290.098" y="1574.51"/>
      <point x="-167.5" y="1562" type="curve" smooth="yes"/>
      <point x="-45" y="1549.5" type="line" smooth="yes"/>
      <point x="118.652" y="1532.8"/>
      <point x="175.581" y="1497.5"/>
      <point x="226" y="1428" type="curve"/>
      <point x="234" y="1430.5" type="line"/>
      <point x="222.758" y="1523.66"/>
      <point x="190.908" y="1566.28"/>
      <point x="43" y="1612" type="curve" smooth="yes"/>
      <point x="-67" y="1646" type="line" smooth="yes"/>
      <point x="-222.496" y="1694.06"/>
      <point x="-291" y="1761.07"/>
      <point x="-291" y="1875" type="curve" smooth="yes"/>
      <point x="-291" y="1915.57"/>
      <point x="-283.382" y="1947.32"/>
      <point x="-272.5" y="1974" type="curve"/>
      <point x="-18.5" y="1973" type="line"/>
      <point x="-18.5" y="1955" type="line" smooth="yes"/>
      <point x="-18.5" y="1888.93"/>
      <point x="-1.62117" y="1852.27"/>
      <point x="109" y="1813" type="curve" smooth="yes"/>
      <point x="197.637" y="1781.53" type="line" smooth="yes"/>
      <point x="396.128" y="1711.06"/>
      <point x="439" y="1582"/>
      <point x="439" y="1355" type="curve" smooth="yes"/>
      <point x="439" y="1250.5" type="line"/>
      <point x="117" y="1250.5" type="line"/>
      <point x="117" y="1268" type="line" smooth="yes"/>
      <point x="117" y="1315.14"/>
      <point x="98.8918" y="1346.92"/>
      <point x="-82.4938" y="1359.58" type="curve" smooth="yes"/>
      <point x="-217.5" y="1369" type="line" smooth="yes"/>
      <point x="-476.37" y="1387.07"/>
      <point x="-588" y="1453.12"/>
    </contour>
    <contour>
      <point x="459.5" y="0" type="line"/>
      <point x="115.5" y="0" type="line"/>
      <point x="115.5" y="1119" type="line"/>
      <point x="459.5" y="1119" type="line"/>
    </contour>
    <contour>
      <point x="624.5" y="1033" type="line"/>
      <point x="-32" y="1033" type="line"/>
      <point x="-49.5" y="1287" type="line"/>
      <point x="607" y="1287" type="line"/>
    </contour>
  </outline>
</glyph>
<glyph name="Anudatta.dv" format="2">
  <unicode hex="0952"/>
  <anchor x="-115.5" y="37" name="_bottom3"/>
  <outline>
    <contour>
      <point x="-1016.5" y="-474.5" type="line"/>
      <point x="-1034.5" y="-217" type="line"/>
      <point x="-115.5" y="-217" type="line"/>
      <point x="-97.5" y="-474.5" type="line"/>
    </contour>
  </outline>
  <guideline angle="90" x="-151" y="0"/>
  <guideline angle="0" x="0" y="9"/>
</glyph>
<glyph name="uni0953" format="2">
  <unicode hex="0953"/>
  <anchor x="-287.5" y="1234.5" name="_top"/>
  <outline>
    <contour>
      <point x="-478" y="1379.5" type="line"/>
      <point x="-796" y="1767" type="line"/>
      <point x="-796" y="1785" type="line"/>
      <point x="-404.5" y="1785" type="line"/>
      <point x="-155" y="1390.5" type="line"/>
      <point x="-155" y="1379.5" type="line"/>
    </contour>
  </outline>
  <guideline angle="90" x="-169" y="0"/>
  <guideline angle="0" x="0" y="1262"/>
</glyph>
<glyph name="uni0954" format="2">
  <unicode hex="0954"/>
  <anchor x="-287.5" y="1234.5" name="_top"/>
  <outline>
    <contour>
      <point x="-109.5" y="1379.5" type="line"/>
      <point x="-433" y="1379.5" type="line"/>
      <point x="-433" y="1390.5" type="line"/>
      <point x="-183" y="1785.5" type="line"/>
      <point x="208.5" y="1785.5" type="line"/>
      <point x="208.5" y="1767.5" type="line"/>
    </contour>
  </outline>
  <guideline angle="90" x="-169" y="0"/>
  <guideline angle="0" x="0" y="1262"/>
</glyph>
<glyph name="uni0957" format="2">
  <unicode hex="0957"/>
  <anchor x="-287.5" y="55" name="_bottom5"/>
  <outline>
    <contour>
      <point x="-287.901" y="-426.56" type="curve" smooth="yes"/>
      <point x="-461.181" y="-426.56"/>
      <point x="-604.352" y="-392.942"/>
      <point x="-707.223" y="-339.36" type="curve"/>
      <point x="-721.042" y="-89.3597" type="line"/>
      <point x="-608.242" y="-146.244"/>
      <point x="-462.364" y="-184.96"/>
      <point x="-287.842" y="-184.96" type="curve" smooth="yes"/>
      <point x="-113.319" y="-184.96"/>
      <point x="32.5583" y="-146.244"/>
      <point x="145.358" y="-89.3597" type="curve"/>
      <point x="131.385" y="-340.887" type="line"/>
      <point x="33.1232" y="-394.772"/>
      <point x="-114.622" y="-426.56"/>
    </contour>
    <contour>
      <point x="-287.946" y="-778.56" type="curve" smooth="yes"/>
      <point x="-465.839" y="-778.56"/>
      <point x="-612.821" y="-744.942"/>
      <point x="-717.042" y="-691.36" type="curve"/>
      <point x="-731.042" y="-441.36" type="line"/>
      <point x="-616.762" y="-499.244"/>
      <point x="-466.009" y="-536.96"/>
      <point x="-287.85" y="-536.96" type="curve" smooth="yes"/>
      <point x="-109.691" y="-536.96"/>
      <point x="41.0615" y="-499.244"/>
      <point x="155.358" y="-441.36" type="curve"/>
      <point x="141.199" y="-692.887" type="line"/>
      <point x="41.6262" y="-746.772"/>
      <point x="-110.053" y="-778.56"/>
    </contour>
  </outline>
  <guideline angle="90" x="-169" y="0"/>
  <guideline angle="0" x="0" y="9"/>
</glyph>
<glyph name="GaNukta.dv" format="2">
  <advance width="1284"/>
  <unicode hex="095A"/>
  <anchor x="997.5" y="37" name="bottom"/>
  <anchor x="990" y="37" name="bottom2"/>
  <anchor x="1169" y="37" name="bottom3"/>
  <anchor x="997" y="55" name="bottom5"/>
  <anchor x="997" y="1234.5" name="top"/>
  <outline>
    <contour>
      <point x="1234.5" y="1033" type="line"/>
      <point x="-32" y="1033" type="line"/>
      <point x="-49.5" y="1287" type="line"/>
      <point x="1217" y="1287" type="line"/>
    </contour>
    <contour>
      <point x="183.5" y="1063" type="curve"/>
      <point x="543.5" y="1063" type="line"/>
      <point x="602.5" y="996.471"/>
      <point x="627" y="902.175"/>
      <point x="627" y="763.204" type="curve" smooth="yes"/>
      <point x="627" y="731.587" type="line" smooth="yes"/>
      <point x="627" y="438.64"/>
      <point x="487.229" y="305"/>
      <point x="215" y="305" type="curve" smooth="yes"/>
      <point x="158.566" y="305"/>
      <point x="107.622" y="311.03"/>
      <point x="63" y="324.5" type="curve"/>
      <point x="41.5" y="617" type="line"/>
      <point x="61.8666" y="613.821"/>
      <point x="86.4216" y="611"/>
      <point x="109.5" y="611" type="curve" smooth="yes"/>
      <point x="227.962" y="611"/>
      <point x="279.5" y="653.347"/>
      <point x="279.5" y="787.079" type="curve" smooth="yes"/>
      <point x="279.5" y="814.985" type="line" smooth="yes"/>
      <point x="279.5" y="925.206"/>
      <point x="252.5" y="1004.61"/>
    </contour>
    <contour>
      <point x="1169" y="1119" type="line"/>
      <point x="1169" y="0" type="line"/>
      <point x="825" y="0" type="line"/>
      <point x="825" y="1119" type="line"/>
    </contour>
    <contour>
      <point x="777" y="1033" type="line"/>
      <point x="759.5" y="1287" type="line"/>
      <point x="1316.5" y="1287" type="line"/>
      <point x="1334" y="1033" type="line"/>
    </contour>
    <contour>
      <point x="307.5" y="-113.5" type="curve" smooth="yes"/>
      <point x="189.5" y="-113.5"/>
      <point x="129" y="-48.5"/>
      <point x="129" y="55" type="curve"/>
      <point x="129" y="56.4362"/>
      <point x="129" y="60.2559"/>
      <point x="129" y="61.5" type="curve"/>
      <point x="129" y="165.5"/>
      <point x="189.5" y="230.5"/>
      <point x="307.5" y="230.5" type="curve" smooth="yes"/>
      <point x="425.5" y="230.5"/>
      <point x="485" y="164.5"/>
      <point x="485" y="61.5" type="curve"/>
      <point x="485" y="60.0638"/>
      <point x="485" y="56.2441"/>
      <point x="485" y="55" type="curve"/>
      <point x="485" y="-48.5"/>
      <point x="425" y="-113.5"/>
    </contour>
  </outline>
  <guideline angle="0" x="0" y="119"/>
  <guideline angle="90" x="872.5" y="0"/>
  <guideline angle="0" x="0" y="9"/>
  <guideline angle="90" x="877.5" y="0"/>
  <guideline angle="90" x="860.5" y="0"/>
  <guideline angle="0" x="0" y="1262"/>
  <guideline angle="90" x="997.5" y="0"/>
  <guideline angle="0" x="0" y="30"/>
</glyph>
<glyph name="Doubledanda.dv" format="2">
  <advance width="1320"/>
  <unicode hex="0965"/>
  <outline>
    <contour>
      <point x="1100.5" y="1310.5" type="line"/>
      <point x="1100.5" y="0" type="line"/>
      <point x="767" y="0" type="line"/>
      <point x="767" y="1352" type="line"/>
    </contour>
    <contour>
      <point x="552" y="1310.5" type="line"/>
      <point x="552" y="0" type="line"/>
      <point x="218.5" y="0" type="line"/>
      <point x="218.5" y="1352" type="line"/>
    </contour>
  </outline>
</glyph>
<glyph name="Ek.dv" format="2">
  <advance width="1141"/>
  <unicode hex="0967"/>
  <outline>
    <contour>
      <point x="1039.48" y="823.5" type="curve" smooth="yes"/>
      <point x="1039.48" y="0" type="line"/>
      <point x="695.02" y="0" type="line"/>
      <point x="695.02" y="855" type="line" smooth="yes"/>
      <point x="695.02" y="976"/>
      <point x="652.5" y="1021"/>
      <point x="555" y="1021" type="curve" smooth="yes"/>
      <point x="465" y="1021"/>
      <point x="417.48" y="974.8"/>
      <point x="417.48" y="869.706" type="curve" smooth="yes"/>
      <point x="417.48" y="851.6" type="line" smooth="yes"/>
      <point x="417.48" y="751.26"/>
      <point x="458.578" y="699.6"/>
      <point x="555.46" y="699.6" type="curve" smooth="yes"/>
      <point x="635.253" y="699.6"/>
      <point x="686.283" y="734.9"/>
      <point x="701.36" y="797.26" type="curve"/>
      <point x="712.88" y="600.84" type="line"/>
      <point x="682" y="601" type="line"/>
      <point x="654.502" y="486"/>
      <point x="573.5" y="416.75"/>
      <point x="409.14" y="416.65" type="curve" smooth="yes"/>
      <point x="207" y="416.526"/>
      <point x="69.44" y="535.7"/>
      <point x="69.44" y="832.52" type="curve" smooth="yes"/>
      <point x="69.44" y="869.42" type="line" smooth="yes"/>
      <point x="69.44" y="1150.66"/>
      <point x="231.76" y="1300.64"/>
      <point x="548.88" y="1300.64" type="curve" smooth="yes"/>
      <point x="893.42" y="1300.64"/>
      <point x="1039.48" y="1144.5"/>
    </contour>
  </outline>
  <guideline angle="0" x="0" y="717"/>
</glyph>
<glyph name="Teen.dv" format="2">
  <advance width="1064"/>
  <unicode hex="0969"/>
  <outline>
    <contour>
      <point x="56" y="366.04" type="line"/>
      <point x="164.7" y="317.22"/>
      <point x="289.94" y="278.4"/>
      <point x="433.68" y="278.4" type="curve" smooth="yes"/>
      <point x="589.36" y="278.4"/>
      <point x="637.6" y="321.74"/>
      <point x="637.6" y="388.96" type="curve" smooth="yes"/>
      <point x="637.6" y="394.56" type="line" smooth="yes"/>
      <point x="637.6" y="470.46"/>
      <point x="593.033" y="504.105"/>
      <point x="406.94" y="511.54" type="curve" smooth="yes"/>
      <point x="227.22" y="518.72" type="line"/>
      <point x="227.22" y="790.12" type="line"/>
      <point x="383.74" y="795.38" type="line" smooth="yes"/>
      <point x="575.674" y="801.83"/>
      <point x="625" y="834.04"/>
      <point x="625" y="907.6" type="curve" smooth="yes"/>
      <point x="625" y="912.86" type="line" smooth="yes"/>
      <point x="625" y="983.68"/>
      <point x="579.44" y="1020.74"/>
      <point x="446.44" y="1020.74" type="curve" smooth="yes"/>
      <point x="325.32" y="1020.74"/>
      <point x="212.6" y="995.7"/>
      <point x="101.16" y="951.56" type="curve"/>
      <point x="121.1" y="1235.46" type="line"/>
      <point x="223.56" y="1276.02"/>
      <point x="357.5" y="1300.64"/>
      <point x="504.66" y="1300.64" type="curve" smooth="yes"/>
      <point x="826.5" y="1300.64"/>
      <point x="974.8" y="1166.58"/>
      <point x="974.8" y="953.94" type="curve" smooth="yes"/>
      <point x="974.8" y="939.32" type="line" smooth="yes"/>
      <point x="974.8" y="789.96"/>
      <point x="903.36" y="682.44"/>
      <point x="679.96" y="658.14" type="curve"/>
      <point x="679.96" y="649.96" type="line"/>
      <point x="905.36" y="624.66"/>
      <point x="988.4" y="512.48"/>
      <point x="988.4" y="347.06" type="curve" smooth="yes"/>
      <point x="988.4" y="330.86" type="line" smooth="yes"/>
      <point x="988.4" y="124.7"/>
      <point x="853.28" y="-7.26003"/>
      <point x="492.64" y="-7.26003" type="curve" smooth="yes"/>
      <point x="406.28" y="-7.26003"/>
      <point x="326.34" y="0.919972"/>
      <point x="257.5" y="14.36" type="curve"/>
      <point x="73.02" y="69.78" type="line"/>
    </contour>
    <contour>
      <point x="799.44" y="-322.8" type="line"/>
      <point x="409.36" y="-322.8" type="line"/>
      <point x="213.84" y="22.96" type="line"/>
      <point x="73.02" y="69.78" type="line"/>
      <point x="104.94" y="87.2" type="line"/>
      <point x="499.26" y="61.18" type="line"/>
      <point x="499.26" y="-15.6" type="line"/>
      <point x="599.612" y="-66.86"/>
      <point x="649.65" y="-105.718"/>
      <point x="729.828" y="-216.198" type="curve" smooth="yes"/>
      <point x="799.44" y="-312.12" type="line"/>
    </contour>
  </outline>
</glyph>
<glyph name="Paach.dv" format="2">
  <advance width="1173"/>
  <unicode hex="096B"/>
  <outline>
    <contour>
      <point x="161.8" y="1268.92" type="curve"/>
      <point x="516.02" y="1268.92" type="line"/>
      <point x="451.36" y="1166.72"/>
      <point x="424.08" y="1060.44"/>
      <point x="424.08" y="932.4" type="curve" smooth="yes"/>
      <point x="424.08" y="910.22" type="line" smooth="yes"/>
      <point x="424.08" y="768.64"/>
      <point x="475.8" y="715.42"/>
      <point x="584.24" y="715.42" type="curve" smooth="yes"/>
      <point x="671.5" y="715.42"/>
      <point x="724.8" y="755.14"/>
      <point x="738.9" y="833.68" type="curve"/>
      <point x="747.24" y="614.82" type="line"/>
      <point x="722.54" y="614.82" type="line"/>
      <point x="694" y="499.12"/>
      <point x="608.14" y="432.02"/>
      <point x="442.58" y="432.02" type="curve" smooth="yes"/>
      <point x="214.38" y="432.02"/>
      <point x="73.28" y="551.83"/>
      <point x="73.28" y="859.446" type="curve" smooth="yes"/>
      <point x="73.28" y="897.44" type="line" smooth="yes"/>
      <point x="73.28" y="1061.8"/>
      <point x="100.06" y="1170.92"/>
    </contour>
    <contour>
      <point x="734.5" y="503" type="curve" smooth="yes"/>
      <point x="734.5" y="1091" type="line"/>
      <point x="1078.5" y="1091" type="line"/>
      <point x="1078.5" y="485.5" type="line" smooth="yes"/>
      <point x="1078.5" y="136"/>
      <point x="935.5" y="-24"/>
      <point x="564" y="-24" type="curve" smooth="yes"/>
      <point x="445.5" y="-24"/>
      <point x="319" y="-0.5"/>
      <point x="226" y="44" type="curve"/>
      <point x="207.5" y="337" type="line"/>
      <point x="306.5" y="288"/>
      <point x="407.5" y="258"/>
      <point x="513" y="258" type="curve" smooth="yes"/>
      <point x="671.5" y="258"/>
      <point x="734.5" y="323"/>
    </contour>
  </outline>
  <guideline angle="0" x="0" y="-21"/>
</glyph>
<glyph name="Saha.dv" format="2">
  <advance width="1096"/>
  <unicode hex="096C"/>
  <outline>
    <contour>
      <point x="506.903" y="-41" type="curve" smooth="yes"/>
      <point x="222.297" y="-41"/>
      <point x="68.463" y="91.9199"/>
      <point x="70.0408" y="330.5" type="curve"/>
      <point x="70.121" y="342.62" type="line"/>
      <point x="71.3222" y="524.246"/>
      <point x="153.316" y="641.398"/>
      <point x="403.56" y="665.48" type="curve"/>
      <point x="403.56" y="672.66" type="line"/>
      <point x="163.5" y="699.5"/>
      <point x="95" y="808.018"/>
      <point x="96.5417" y="958" type="curve" smooth="yes"/>
      <point x="96.6817" y="971.62" type="line" smooth="yes"/>
      <point x="98.7824" y="1175.99"/>
      <point x="242.052" y="1301.14"/>
      <point x="583.812" y="1301.14" type="curve" smooth="yes"/>
      <point x="733.151" y="1301.14"/>
      <point x="865.051" y="1278.81"/>
      <point x="967.961" y="1240.8" type="curve"/>
      <point x="987.901" y="966.08" type="line"/>
      <point x="869.203" y="1006.3"/>
      <point x="762.802" y="1022.74"/>
      <point x="648.703" y="1022.74" type="curve" smooth="yes"/>
      <point x="505.108" y="1022.74"/>
      <point x="445.441" y="985.76"/>
      <point x="445.441" y="921.12" type="curve" smooth="yes"/>
      <point x="445.441" y="912.6" type="line" smooth="yes"/>
      <point x="445.441" y="841.8"/>
      <point x="491.855" y="813.159"/>
      <point x="663.51" y="807.5" type="curve" smooth="yes"/>
      <point x="884.341" y="800.22" type="line"/>
      <point x="884.341" y="528.82" type="line"/>
      <point x="647.625" y="522.14" type="line" smooth="yes"/>
      <point x="468.149" y="517.076"/>
      <point x="418.552" y="470"/>
      <point x="418.061" y="379.101" type="curve"/>
      <point x="418" y="368.001" type="line"/>
      <point x="417.532" y="281.503"/>
      <point x="474.396" y="242.001"/>
      <point x="587.231" y="242.001" type="curve" smooth="yes"/>
      <point x="654.416" y="242.001"/>
      <point x="698.115" y="251.501"/>
      <point x="729.5" y="273.001" type="curve"/>
      <point x="794" y="47.5013" type="line"/>
      <point x="738.957" y="-8.49868"/>
      <point x="638.809" y="-40.9987"/>
    </contour>
    <contour>
      <point x="1039.59" y="379.92" type="line"/>
      <point x="1039.59" y="135.48" type="line"/>
      <point x="1099.97" y="-240.49" type="line"/>
      <point x="775.16" y="-240.49" type="line"/>
      <point x="730.12" y="130.08" type="line"/>
      <point x="712.08" y="145.51" type="line"/>
      <point x="712.08" y="379.92" type="line"/>
    </contour>
  </outline>
  <guideline angle="0" x="0" y="1249"/>
</glyph>
<glyph name="Aath.dv" format="2">
  <advance width="1034"/>
  <unicode hex="096E"/>
  <outline>
    <contour>
      <point x="968" y="79.5" type="line"/>
      <point x="868.5" y="8.5"/>
      <point x="751.5" y="-24"/>
      <point x="584" y="-24" type="curve" smooth="yes"/>
      <point x="256.5" y="-24"/>
      <point x="71.5" y="135.5"/>
      <point x="71.5" y="404" type="curve" smooth="yes"/>
      <point x="71.5" y="579.5"/>
      <point x="142.745" y="711.447"/>
      <point x="329" y="957" type="curve" smooth="yes"/>
      <point x="563" y="1265.5" type="line"/>
      <point x="959.5" y="1265.5" type="line"/>
      <point x="632" y="825" type="line" smooth="yes"/>
      <point x="471.115" y="608.604"/>
      <point x="418" y="531.5"/>
      <point x="418" y="430.5" type="curve" smooth="yes"/>
      <point x="418" y="326"/>
      <point x="496.5" y="266"/>
      <point x="628.5" y="266" type="curve" smooth="yes"/>
      <point x="763.5" y="266"/>
      <point x="876" y="314.5"/>
      <point x="985.5" y="396.5" type="curve"/>
    </contour>
  </outline>
</glyph>
<glyph name="uni097B" format="2">
  <advance width="1285"/>
  <unicode hex="097B"/>
  <anchor x="997.5" y="-298" name="bottom"/>
  <anchor x="990.5" y="-167" name="bottom2"/>
  <anchor x="1169.5" y="37" name="bottom3"/>
  <anchor x="997.5" y="55" name="bottom5"/>
  <anchor x="997.5" y="1234.5" name="top"/>
  <outline>
    <contour>
      <point x="825.5" y="37.5" type="line"/>
      <point x="825.5" y="178.5" type="line"/>
      <point x="1169.5" y="178.5" type="line"/>
      <point x="1169.5" y="-203" type="line"/>
      <point x="92" y="-203" type="line"/>
      <point x="92" y="37.5" type="line"/>
    </contour>
    <contour>
      <point x="1169.5" y="1119" type="line"/>
      <point x="1169.5" y="0" type="line"/>
      <point x="825.5" y="0" type="line"/>
      <point x="825.5" y="1119" type="line"/>
    </contour>
    <contour>
      <point x="777.5" y="1033" type="line"/>
      <point x="760" y="1287" type="line"/>
      <point x="1317" y="1287" type="line"/>
      <point x="1334.5" y="1033" type="line"/>
    </contour>
    <contour>
      <point x="-32" y="1033" type="line"/>
      <point x="-49.5" y="1287" type="line"/>
      <point x="1217" y="1287" type="line"/>
      <point x="1234.5" y="1033" type="line"/>
    </contour>
    <contour>
      <point x="539.5" y="1063" type="line"/>
      <point x="604.326" y="989.09"/>
      <point x="627" y="886.757"/>
      <point x="627" y="736" type="curve" smooth="yes"/>
      <point x="627" y="696" type="line" smooth="yes"/>
      <point x="627" y="387.218"/>
      <point x="487.229" y="245"/>
      <point x="215" y="245" type="curve" smooth="yes"/>
      <point x="158.566" y="245"/>
      <point x="107.622" y="251.03"/>
      <point x="63" y="264.5" type="curve"/>
      <point x="41.5" y="557" type="line"/>
      <point x="62.8666" y="552.821"/>
      <point x="87.4216" y="551"/>
      <point x="109.5" y="551" type="curve" smooth="yes"/>
      <point x="223.084" y="551"/>
      <point x="272.5" y="600.222"/>
      <point x="272.5" y="751.5" type="curve" smooth="yes"/>
      <point x="272.5" y="785" type="line" smooth="yes"/>
      <point x="272.5" y="923.761"/>
      <point x="246.441" y="1002.96"/>
      <point x="176.5" y="1063" type="curve"/>
    </contour>
  </outline>
  <guideline angle="0" x="0" y="119"/>
  <guideline angle="0" x="0" y="-75"/>
  <guideline angle="0" x="0" y="119"/>
  <guideline angle="90" x="50" y="0"/>
  <guideline angle="90" x="873" y="0"/>
  <guideline angle="0" x="0" y="9"/>
  <guideline angle="90" x="878" y="0"/>
  <guideline angle="90" x="861" y="0"/>
  <guideline angle="0" x="0" y="1262"/>
  <guideline angle="90" x="998" y="0"/>
  <guideline angle="0" x="0" y="30"/>
</glyph>
<glyph name="uni097D" format="2">
  <advance width="1074"/>
  <unicode hex="097D"/>
  <outline>
    <contour>
      <point x="201" y="587" type="line"/>
      <point x="362" y="587" type="line" smooth="yes"/>
      <point x="582" y="587"/>
      <point x="649" y="649"/>
      <point x="649" y="801.5" type="curve" smooth="yes"/>
      <point x="649" y="830" type="line" smooth="yes"/>
      <point x="649" y="966"/>
      <point x="594.5" y="1028.5"/>
      <point x="436.5" y="1028.5" type="curve" smooth="yes"/>
      <point x="314" y="1028.5"/>
      <point x="208" y="995"/>
      <point x="101.5" y="949.5" type="curve"/>
      <point x="122" y="1239" type="line"/>
      <point x="226" y="1283.5"/>
      <point x="352.5" y="1309.5"/>
      <point x="490" y="1309.5" type="curve" smooth="yes"/>
      <point x="841" y="1309.5"/>
      <point x="999.5" y="1147"/>
      <point x="999.5" y="833.5" type="curve" smooth="yes"/>
      <point x="999.5" y="790.5" type="line" smooth="yes"/>
      <point x="999.5" y="461"/>
      <point x="836.5" y="334.5"/>
      <point x="428" y="334.5" type="curve" smooth="yes"/>
      <point x="237.5" y="334.5" type="line"/>
    </contour>
    <contour>
      <point x="540" y="528.5" type="line"/>
      <point x="540" y="0" type="line"/>
      <point x="201" y="0" type="line"/>
      <point x="201" y="587" type="line"/>
    </contour>
  </outline>
  <guideline angle="0" x="0" y="712"/>
</glyph>
<glyph name="quotedblbase" format="2">
  <advance width="925"/>
  <unicode hex="201E"/>
  <outline>
    <contour>
      <point x="513" y="345" type="line"/>
      <point x="517" y="295"/>
      <point x="519" y="257"/>
      <point x="519" y="209" type="curve" smooth="yes"/>
      <point x="519" y="52"/>
      <point x="487" y="-71"/>
      <point x="431" y="-182" type="curve"/>
      <point x="672" y="-235" type="line"/>
      <point x="795" y="-100"/>
      <point x="846" y="47"/>
      <point x="846" y="222" type="curve" smooth="yes"/>
      <point x="846" y="268"/>
      <point x="841" y="309"/>
      <point x="836" y="345" type="curve"/>
    </contour>
    <contour>
      <point x="83" y="345" type="line"/>
      <point x="87" y="295"/>
      <point x="89" y="257"/>
      <point x="89" y="209" type="curve" smooth="yes"/>
      <point x="89" y="52"/>
      <point x="57" y="-71"/>
      <point x="1" y="-182" type="curve"/>
      <point x="242" y="-235" type="line"/>
      <point x="365" y="-100"/>
      <point x="416" y="47"/>
      <point x="416" y="222" type="curve" smooth="yes"/>
      <point x="416" y="268"/>
      <point x="411" y="309"/>
      <point x="406" y="345" type="curve"/>
    </contour>
  </outline>
</glyph>
<glyph name="uniA8FB" format="2">
  <advance width="880"/>
  <unicode hex="A8FB"/>
  <outline>
    <contour>
      <point x="929.5" y="1033" type="line"/>
      <point x="-32" y="1033" type="line"/>
      <point x="-49.5" y="1287" type="line"/>
      <point x="912" y="1287" type="line"/>
    </contour>
  </outline>
</glyph>
<glyph name="fl" format="2">
  <advance width="1313"/>
  <unicode hex="FB02"/>
  <anchor x="1045" y="0" name="bottom"/>
  <anchor x="657" y="0" name="caret_1"/>
  <anchor x="1045" y="657" name="center"/>
  <anchor x="1045" y="1319" name="top"/>
  <anchor x="1306" y="1319" name="topright"/>
  <outline>
    <contour>
      <point x="456" y="1354" type="curve" smooth="yes"/>
      <point x="212" y="1354"/>
      <point x="100" y="1274"/>
      <point x="100" y="1130" type="curve" smooth="yes"/>
      <point x="100" y="1125" type="line" smooth="yes"/>
      <point x="100" y="1029"/>
      <point x="163" y="972"/>
      <point x="242" y="947" type="curve"/>
      <point x="242" y="913" type="line"/>
      <point x="469" y="921" type="line"/>
      <point x="455" y="940"/>
      <point x="446" y="958"/>
      <point x="446" y="985" type="curve"/>
      <point x="446" y="987" type="line"/>
      <point x="446" y="1041"/>
      <point x="472" y="1076"/>
      <point x="593" y="1076" type="curve" smooth="yes"/>
      <point x="659" y="1076"/>
      <point x="716" y="1066"/>
      <point x="767" y="1054" type="curve"/>
      <point x="737" y="1312" type="line"/>
      <point x="667" y="1335"/>
      <point x="566" y="1354"/>
    </contour>
    <contour>
      <point x="486" y="0" type="line"/>
      <point x="486" y="841" type="line"/>
      <point x="134" y="841" type="line"/>
      <point x="134" y="0" type="line"/>
    </contour>
    <contour>
      <point x="738" y="662" type="line"/>
      <point x="767" y="940" type="line"/>
      <point x="422" y="940" type="line"/>
      <point x="290" y="937" type="line"/>
      <point x="11" y="940" type="line"/>
      <point x="11" y="662" type="line"/>
    </contour>
    <contour>
      <point x="1221" y="0" type="line"/>
      <point x="1221" y="1319" type="line"/>
      <point x="867" y="1319" type="line"/>
      <point x="867" y="0" type="line"/>
    </contour>
  </outline>
</glyph>
<glyph name="BaBa.dv" format="2">
  <advance width="2079"/>
  <anchor x="1792.5" y="37" name="bottom"/>
  <anchor x="1785" y="37" name="bottom2"/>
  <anchor x="1964" y="37" name="bottom3"/>
  <anchor x="1792" y="55" name="bottom5"/>
  <anchor x="1792" y="1234.5" name="top"/>
  <outline>
    <contour>
      <point x="-32.5" y="1033" type="line"/>
      <point x="-50" y="1287" type="line"/>
      <point x="904" y="1287" type="line"/>
      <point x="921.5" y="1033" type="line"/>
    </contour>
    <contour>
      <point x="366" y="682" type="line"/>
      <point x="495" y="780" type="line"/>
      <point x="875" y="367" type="line"/>
      <point x="769" y="252" type="line"/>
    </contour>
    <contour>
      <point x="69" y="495.738" type="curve" smooth="yes"/>
      <point x="69" y="514.47" type="line" smooth="yes"/>
      <point x="69" y="791.497"/>
      <point x="228.431" y="933"/>
      <point x="523.026" y="933" type="curve" smooth="yes"/>
      <point x="607.805" y="933"/>
      <point x="678" y="925"/>
      <point x="749" y="908" type="curve"/>
      <point x="773" y="674" type="line"/>
      <point x="720" y="684"/>
      <point x="665.358" y="690"/>
      <point x="603.885" y="690" type="curve" smooth="yes"/>
      <point x="463.421" y="690"/>
      <point x="398" y="633.472"/>
      <point x="398" y="517.442" type="curve" smooth="yes"/>
      <point x="398" y="502.566" type="line" smooth="yes"/>
      <point x="398" y="383.561"/>
      <point x="468.412" y="331"/>
      <point x="607.307" y="331" type="curve" smooth="yes"/>
      <point x="758.908" y="331"/>
      <point x="844" y="385"/>
      <point x="869" y="478" type="curve"/>
      <point x="895" y="271" type="line"/>
      <point x="864" y="271" type="line"/>
      <point x="820.566" y="158"/>
      <point x="729.469" y="79"/>
      <point x="512.473" y="79" type="curve" smooth="yes"/>
      <point x="232.584" y="79"/>
      <point x="69" y="217.696"/>
    </contour>
    <contour>
      <point x="1964" y="1119" type="line"/>
      <point x="1964" y="0" type="line"/>
      <point x="1620" y="0" type="line"/>
      <point x="1620" y="1119" type="line"/>
    </contour>
    <contour>
      <point x="1572" y="1033" type="line"/>
      <point x="1554.5" y="1287" type="line"/>
      <point x="2111.5" y="1287" type="line"/>
      <point x="2129" y="1033" type="line"/>
    </contour>
    <contour>
      <point x="724.5" y="1033" type="line"/>
      <point x="706.5" y="1287" type="line"/>
      <point x="2021.5" y="1287" type="line"/>
      <point x="2038.5" y="1033" type="line"/>
    </contour>
    <contour>
      <point x="1127.5" y="682" type="line"/>
      <point x="1256.5" y="780" type="line"/>
      <point x="1636.5" y="367" type="line"/>
      <point x="1530.5" y="252" type="line"/>
    </contour>
    <contour>
      <point x="825.5" y="495.738" type="curve" smooth="yes"/>
      <point x="825.5" y="514.47" type="line" smooth="yes"/>
      <point x="825.5" y="791.497"/>
      <point x="984.931" y="933"/>
      <point x="1279.53" y="933" type="curve" smooth="yes"/>
      <point x="1364.31" y="933"/>
      <point x="1434.5" y="925"/>
      <point x="1505.5" y="908" type="curve"/>
      <point x="1529.5" y="674" type="line"/>
      <point x="1476.5" y="684"/>
      <point x="1421.86" y="690"/>
      <point x="1360.38" y="690" type="curve" smooth="yes"/>
      <point x="1219.92" y="690"/>
      <point x="1154.5" y="633.472"/>
      <point x="1154.5" y="517.442" type="curve" smooth="yes"/>
      <point x="1154.5" y="502.566" type="line" smooth="yes"/>
      <point x="1154.5" y="383.561"/>
      <point x="1224.91" y="331"/>
      <point x="1363.81" y="331" type="curve" smooth="yes"/>
      <point x="1515.41" y="331"/>
      <point x="1600.5" y="385"/>
      <point x="1625.5" y="478" type="curve"/>
      <point x="1642.5" y="269" type="line"/>
      <point x="1609.5" y="269" type="line"/>
      <point x="1571.5" y="161"/>
      <point x="1475.7" y="79"/>
      <point x="1267.52" y="79" type="curve" smooth="yes"/>
      <point x="987.974" y="79"/>
      <point x="825.5" y="214.696"/>
    </contour>
  </outline>
  <guideline angle="90" x="483" y="0"/>
  <guideline angle="90" x="1667.5" y="0"/>
  <guideline angle="0" x="0" y="9"/>
  <guideline angle="90" x="1672.5" y="0"/>
  <guideline angle="90" x="1655.5" y="0"/>
  <guideline angle="0" x="0" y="1262"/>
  <guideline angle="90" x="1792.5" y="0"/>
  <guideline angle="0" x="0" y="30"/>
</glyph>
<glyph name="BaDha.dv" format="2">
  <advance width="2214"/>
  <anchor x="1927.5" y="37" name="bottom"/>
  <anchor x="1920" y="37" name="bottom2"/>
  <anchor x="2099" y="37" name="bottom3"/>
  <anchor x="1927" y="55" name="bottom5"/>
  <anchor x="1927" y="1234.5" name="top"/>
  <outline>
    <contour>
      <point x="-32.5" y="1033" type="line"/>
      <point x="-50" y="1287" type="line"/>
      <point x="723.5" y="1287" type="line"/>
      <point x="741" y="1033" type="line"/>
    </contour>
    <contour>
      <point x="361" y="682" type="line"/>
      <point x="490" y="780" type="line"/>
      <point x="870" y="367" type="line"/>
      <point x="764" y="252" type="line"/>
    </contour>
    <contour>
      <point x="69" y="495.738" type="curve" smooth="yes"/>
      <point x="69" y="514.47" type="line" smooth="yes"/>
      <point x="69" y="788.497"/>
      <point x="227.431" y="933"/>
      <point x="523.026" y="933" type="curve" smooth="yes"/>
      <point x="595.34" y="933"/>
      <point x="659.043" y="926.874"/>
      <point x="717.686" y="912.918" type="curve"/>
      <point x="742.128" y="679.323" type="line"/>
      <point x="698.678" y="686.09"/>
      <point x="653.507" y="690"/>
      <point x="603.885" y="690" type="curve" smooth="yes"/>
      <point x="463.421" y="690"/>
      <point x="398" y="633.472"/>
      <point x="398" y="517.442" type="curve" smooth="yes"/>
      <point x="398" y="502.566" type="line" smooth="yes"/>
      <point x="398" y="383.561"/>
      <point x="469.833" y="331"/>
      <point x="605.614" y="331" type="curve" smooth="yes"/>
      <point x="751.816" y="331"/>
      <point x="834.231" y="385"/>
      <point x="859" y="478" type="curve"/>
      <point x="882" y="252" type="line"/>
      <point x="848" y="252" type="line"/>
      <point x="805.928" y="152.663"/>
      <point x="715.938" y="79"/>
      <point x="509.535" y="79" type="curve" smooth="yes"/>
      <point x="230.927" y="79"/>
      <point x="69" y="214.696"/>
    </contour>
    <contour>
      <point x="2099" y="1119" type="line"/>
      <point x="2099" y="0" type="line"/>
      <point x="1755" y="0" type="line"/>
      <point x="1755" y="1119" type="line"/>
    </contour>
    <contour>
      <point x="1707" y="1033" type="line"/>
      <point x="1689.5" y="1287" type="line"/>
      <point x="2246.5" y="1287" type="line"/>
      <point x="2264" y="1033" type="line"/>
    </contour>
    <contour>
      <point x="1672" y="1033" type="line"/>
      <point x="1654" y="1287" type="line"/>
      <point x="2247" y="1287" type="line"/>
      <point x="2264" y="1033" type="line"/>
    </contour>
    <contour>
      <point x="823" y="405" type="line" smooth="yes"/>
      <point x="823" y="549"/>
      <point x="900" y="639"/>
      <point x="1131" y="651" type="curve"/>
      <point x="1131" y="660" type="line"/>
      <point x="893" y="683"/>
      <point x="789" y="779"/>
      <point x="789" y="959" type="curve" smooth="yes"/>
      <point x="789" y="981" type="line" smooth="yes"/>
      <point x="789" y="1198"/>
      <point x="920" y="1319"/>
      <point x="1208" y="1319" type="curve" smooth="yes"/>
      <point x="1485" y="1319"/>
      <point x="1605" y="1208"/>
      <point x="1605" y="1019" type="curve" smooth="yes"/>
      <point x="1605" y="969"/>
      <point x="1597" y="921"/>
      <point x="1585" y="881" type="curve"/>
      <point x="1301" y="881" type="line"/>
      <point x="1301" y="948" type="line" smooth="yes"/>
      <point x="1301" y="1029"/>
      <point x="1277" y="1057"/>
      <point x="1214" y="1057" type="curve" smooth="yes"/>
      <point x="1150" y="1057"/>
      <point x="1121" y="1023"/>
      <point x="1121" y="950" type="curve" smooth="yes"/>
      <point x="1121" y="932" type="line" smooth="yes"/>
      <point x="1121" y="824"/>
      <point x="1183.03" y="791.612"/>
      <point x="1360" y="784" type="curve" smooth="yes"/>
      <point x="1546" y="776" type="line"/>
      <point x="1546" y="522" type="line"/>
      <point x="1348" y="518" type="line" smooth="yes"/>
      <point x="1213.99" y="515.293"/>
      <point x="1173" y="495"/>
      <point x="1173" y="447" type="curve" smooth="yes"/>
      <point x="1173" y="442" type="line" smooth="yes"/>
      <point x="1173" y="393"/>
      <point x="1218" y="366"/>
      <point x="1433" y="366" type="curve" smooth="yes"/>
      <point x="1633" y="366"/>
      <point x="1734" y="415"/>
      <point x="1762" y="501" type="curve"/>
      <point x="1779" y="307" type="line"/>
      <point x="1744" y="307" type="line"/>
      <point x="1702" y="161"/>
      <point x="1575" y="82"/>
      <point x="1331" y="82" type="curve" smooth="yes"/>
      <point x="987" y="82"/>
      <point x="823" y="190"/>
      <point x="823" y="395" type="curve" smooth="yes"/>
    </contour>
  </outline>
  <guideline angle="90" x="279" y="0"/>
  <guideline angle="90" x="1257" y="0"/>
  <guideline angle="90" x="1802.5" y="0"/>
  <guideline angle="0" x="0" y="9"/>
  <guideline angle="90" x="1807.5" y="0"/>
  <guideline angle="90" x="1790.5" y="0"/>
  <guideline angle="0" x="0" y="1262"/>
  <guideline angle="90" x="1927.5" y="0"/>
  <guideline angle="0" x="0" y="30"/>
</glyph>
<glyph name="BaHalant.dv" format="2">
  <advance width="757"/>
  <outline>
    <contour>
      <point x="-32.5" y="1033" type="line"/>
      <point x="-50" y="1287" type="line"/>
      <point x="888.5" y="1287" type="line"/>
      <point x="906" y="1033" type="line"/>
    </contour>
    <contour>
      <point x="371" y="682" type="line"/>
      <point x="500" y="780" type="line"/>
      <point x="863.393" y="384.627" type="line"/>
      <point x="774" y="252" type="line"/>
    </contour>
    <contour>
      <point x="69" y="495.738" type="curve" smooth="yes"/>
      <point x="69" y="514.47" type="line" smooth="yes"/>
      <point x="69" y="791.497"/>
      <point x="228.431" y="933"/>
      <point x="523.026" y="933" type="curve" smooth="yes"/>
      <point x="607.805" y="933"/>
      <point x="678" y="925"/>
      <point x="749" y="908" type="curve"/>
      <point x="773" y="674" type="line"/>
      <point x="720" y="684"/>
      <point x="665.358" y="690"/>
      <point x="603.885" y="690" type="curve" smooth="yes"/>
      <point x="463.421" y="690"/>
      <point x="398" y="633.472"/>
      <point x="398" y="517.442" type="curve" smooth="yes"/>
      <point x="398" y="502.566" type="line" smooth="yes"/>
      <point x="398" y="383.561"/>
      <point x="468.412" y="331"/>
      <point x="607.307" y="331" type="curve" smooth="yes"/>
      <point x="751.807" y="331"/>
      <point x="834.5" y="385"/>
      <point x="881.5" y="466" type="curve"/>
      <point x="880" y="284.5" type="line"/>
      <point x="841.5" y="178"/>
      <point x="753.5" y="78.5"/>
      <point x="508" y="78.5" type="curve" smooth="yes"/>
      <point x="231.474" y="78.5"/>
      <point x="69" y="214.696"/>
    </contour>
  </outline>
  <guideline angle="90" x="471" y="0"/>
</glyph>
<glyph name="BaJaYa.dv" format="2">
  <advance width="3026"/>
  <anchor x="2739.5" y="37" name="bottom"/>
  <anchor x="2732" y="37" name="bottom2"/>
  <anchor x="2911" y="37" name="bottom3"/>
  <anchor x="2739" y="55" name="bottom5"/>
  <anchor x="2739" y="1234.5" name="top"/>
  <outline>
    <contour>
      <point x="921" y="572.5" type="line"/>
      <point x="921" y="833" type="line"/>
      <point x="1657" y="833" type="line" smooth="yes"/>
      <point x="1834.5" y="833"/>
      <point x="1904" y="820.5"/>
      <point x="1996" y="783" type="curve"/>
      <point x="1996" y="562.5" type="line"/>
      <point x="1597.5" y="562.5" type="line"/>
      <point x="1344.5" y="571.5" type="line"/>
    </contour>
    <contour>
      <point x="1423" y="644" type="line"/>
      <point x="1423" y="559" type="line"/>
      <point x="1541" y="519.5"/>
      <point x="1592.5" y="451.322"/>
      <point x="1592.5" y="323.728" type="curve" smooth="yes"/>
      <point x="1592.5" y="315.634" type="line" smooth="yes"/>
      <point x="1592.5" y="120.909"/>
      <point x="1453" y="21.5"/>
      <point x="1180" y="21.5" type="curve" smooth="yes"/>
      <point x="1029.5" y="21.5"/>
      <point x="917.5" y="54"/>
      <point x="833" y="108.5" type="curve"/>
      <point x="820" y="401" type="line"/>
      <point x="896.871" y="339"/>
      <point x="982.63" y="307"/>
      <point x="1076.12" y="307" type="curve" smooth="yes"/>
      <point x="1177.49" y="307"/>
      <point x="1222.5" y="345.304"/>
      <point x="1222.5" y="428.196" type="curve" smooth="yes"/>
      <point x="1222.5" y="435.93" type="line" smooth="yes"/>
      <point x="1222.5" y="519.637"/>
      <point x="1188.21" y="559.342"/>
      <point x="1071.99" y="565.5" type="curve" smooth="yes"/>
      <point x="921" y="573.5" type="line"/>
      <point x="921" y="644" type="line"/>
    </contour>
    <contour>
      <point x="2911" y="1119" type="line"/>
      <point x="2911" y="0" type="line"/>
      <point x="2567" y="0" type="line"/>
      <point x="2567" y="1119" type="line"/>
    </contour>
    <contour>
      <point x="2519" y="1033" type="line"/>
      <point x="2501.5" y="1287" type="line"/>
      <point x="3058.5" y="1287" type="line"/>
      <point x="3076" y="1033" type="line"/>
    </contour>
    <contour>
      <point x="1636.5" y="1287" type="line"/>
      <point x="2958" y="1287" type="line"/>
      <point x="2975.5" y="1033" type="line"/>
      <point x="1654" y="1033" type="line"/>
    </contour>
    <contour>
      <point x="2289.5" y="1079.5" type="line"/>
      <point x="2345" y="1025.43"/>
      <point x="2367.5" y="962.34"/>
      <point x="2367.5" y="865.576" type="curve" smooth="yes"/>
      <point x="2367.5" y="852.419" type="line" smooth="yes"/>
      <point x="2367.5" y="647.916"/>
      <point x="2258.92" y="542.353"/>
      <point x="1987.45" y="534.659" type="curve" smooth="yes"/>
      <point x="1876" y="531.5" type="line"/>
      <point x="1768" y="754" type="line"/>
      <point x="1814.12" y="754" type="line" smooth="yes"/>
      <point x="1967.8" y="754"/>
      <point x="2014" y="804.335"/>
      <point x="2014" y="907.881" type="curve" smooth="yes"/>
      <point x="2014" y="916.99" type="line" smooth="yes"/>
      <point x="2014" y="987.459"/>
      <point x="1996" y="1038.75"/>
      <point x="1935" y="1079.5" type="curve"/>
    </contour>
    <contour>
      <point x="1755.5" y="586.54" type="line" smooth="yes"/>
      <point x="1755.5" y="635.651"/>
      <point x="1759.35" y="683.99"/>
      <point x="1768" y="754" type="curve"/>
      <point x="2084" y="678" type="line"/>
      <point x="2084" y="552.464" type="line" smooth="yes"/>
      <point x="2084" y="465.134"/>
      <point x="2150.5" y="405.5"/>
      <point x="2315" y="405.5" type="curve" smooth="yes"/>
      <point x="2482.5" y="405.5"/>
      <point x="2555" y="462.5"/>
      <point x="2574.5" y="544" type="curve"/>
      <point x="2589" y="332.5" type="line"/>
      <point x="2555" y="332.5" type="line"/>
      <point x="2522" y="211"/>
      <point x="2423.5" y="122"/>
      <point x="2207.5" y="122" type="curve" smooth="yes"/>
      <point x="1921" y="122"/>
      <point x="1755.5" y="277.317"/>
      <point x="1755.5" y="571.09" type="curve" smooth="yes"/>
    </contour>
    <contour>
      <point x="-32.5" y="1033" type="line"/>
      <point x="-50" y="1287" type="line"/>
      <point x="1754" y="1287" type="line"/>
      <point x="1771.5" y="1033" type="line"/>
    </contour>
    <contour>
      <point x="356" y="657" type="line"/>
      <point x="485" y="755" type="line"/>
      <point x="850" y="332" type="line"/>
      <point x="744" y="217" type="line"/>
    </contour>
    <contour>
      <point x="69" y="469.738" type="curve" smooth="yes"/>
      <point x="69" y="488.47" type="line" smooth="yes"/>
      <point x="69" y="766.497"/>
      <point x="231.049" y="908"/>
      <point x="530.481" y="908" type="curve" smooth="yes"/>
      <point x="616.653" y="908"/>
      <point x="693" y="899"/>
      <point x="759" y="883" type="curve"/>
      <point x="783" y="649" type="line"/>
      <point x="730" y="659"/>
      <point x="673.661" y="665"/>
      <point x="610.279" y="665" type="curve" smooth="yes"/>
      <point x="465.453" y="665"/>
      <point x="398" y="608.472"/>
      <point x="398" y="492.442" type="curve" smooth="yes"/>
      <point x="398" y="477.566" type="line" smooth="yes"/>
      <point x="398" y="358.561"/>
      <point x="468.412" y="306"/>
      <point x="601.5" y="306" type="curve" smooth="yes"/>
      <point x="708" y="306"/>
      <point x="781" y="348.5"/>
      <point x="820" y="400" type="curve"/>
      <point x="852" y="206.5" type="line"/>
      <point x="816.5" y="207.5" type="line"/>
      <point x="771.5" y="114"/>
      <point x="682.5" y="54"/>
      <point x="503.021" y="54" type="curve" smooth="yes"/>
      <point x="233.473" y="54"/>
      <point x="69" y="188.696"/>
    </contour>
  </outline>
  <guideline angle="90" x="2614.5" y="0"/>
  <guideline angle="0" x="0" y="9"/>
  <guideline angle="90" x="2619.5" y="0"/>
  <guideline angle="90" x="2602.5" y="0"/>
  <guideline angle="0" x="0" y="1262"/>
  <guideline angle="90" x="2739.5" y="0"/>
  <guideline angle="0" x="0" y="30"/>
</glyph>
<glyph name="BaJha.dv" format="2">
  <advance width="2459"/>
  <outline>
    <contour>
      <point x="2414.5" y="1033" type="line"/>
      <point x="730" y="1033" type="line"/>
      <point x="712.5" y="1287" type="line"/>
      <point x="2397" y="1287" type="line"/>
    </contour>
    <contour>
      <point x="1418" y="1110" type="line"/>
      <point x="1751" y="1110" type="line"/>
      <point x="1751" y="694.5" type="line"/>
      <point x="1418" y="763.5" type="line"/>
    </contour>
    <contour>
      <point x="2062.5" y="552.5" type="line"/>
      <point x="2062.5" y="288.5" type="line"/>
      <point x="1963.5" y="288.5" type="line" smooth="yes"/>
      <point x="1864.5" y="288.5"/>
      <point x="1792.5" y="317.5"/>
      <point x="1732" y="376.5" type="curve"/>
      <point x="1640.5" y="552.5" type="line"/>
    </contour>
    <contour>
      <point x="1630" y="-370.5" type="line"/>
      <point x="1239.5" y="-370.5" type="line"/>
      <point x="1025.5" y="-16" type="line"/>
      <point x="900.891" y="33.159" type="line"/>
      <point x="1283.5" y="14.5" type="line"/>
      <point x="1283.5" y="-53.5" type="line"/>
      <point x="1404.5" y="-110.179"/>
      <point x="1458.12" y="-152.891"/>
      <point x="1530.5" y="-238" type="curve" smooth="yes"/>
      <point x="1630" y="-355" type="line"/>
    </contour>
    <contour>
      <point x="885.135" y="301.615" type="line"/>
      <point x="1009.72" y="247.574"/>
      <point x="1146.68" y="214"/>
      <point x="1280.04" y="214" type="curve" smooth="yes"/>
      <point x="1459.39" y="214"/>
      <point x="1490" y="237"/>
      <point x="1490" y="289.5" type="curve"/>
      <point x="1490" y="291.5" type="line"/>
      <point x="1490" y="337"/>
      <point x="1465.14" y="360.5"/>
      <point x="1359.5" y="360.5" type="curve" smooth="yes"/>
      <point x="1263.42" y="360.5"/>
      <point x="1179.29" y="342.5"/>
      <point x="1093.24" y="314.5" type="curve"/>
      <point x="928.802" y="360.5"/>
      <point x="837.5" y="465"/>
      <point x="837.5" y="627" type="curve" smooth="yes"/>
      <point x="837.5" y="636.5" type="line" smooth="yes"/>
      <point x="837.5" y="831"/>
      <point x="963.98" y="941.5"/>
      <point x="1283.56" y="941.5" type="curve" smooth="yes"/>
      <point x="1449.14" y="941.5"/>
      <point x="1593" y="925.5"/>
      <point x="1751" y="897" type="curve"/>
      <point x="1751" y="687.5" type="line"/>
      <point x="1628" y="702.5"/>
      <point x="1519.46" y="710"/>
      <point x="1396.75" y="710" type="curve" smooth="yes"/>
      <point x="1212.7" y="710"/>
      <point x="1174" y="679.5"/>
      <point x="1174" y="631.5" type="curve" smooth="yes"/>
      <point x="1174" y="628" type="line" smooth="yes"/>
      <point x="1174" y="605"/>
      <point x="1185.47" y="588"/>
      <point x="1203.16" y="576" type="curve"/>
      <point x="1285.39" y="597.5"/>
      <point x="1353.75" y="609"/>
      <point x="1451.27" y="609" type="curve" smooth="yes"/>
      <point x="1718.5" y="609"/>
      <point x="1827.5" y="496.5"/>
      <point x="1827.5" y="299" type="curve" smooth="yes"/>
      <point x="1827.5" y="286" type="line" smooth="yes"/>
      <point x="1827.5" y="73.5"/>
      <point x="1706.23" y="-45.5"/>
      <point x="1341.92" y="-45.5" type="curve" smooth="yes"/>
      <point x="1265.14" y="-45.5"/>
      <point x="1156.73" y="-31.4124"/>
      <point x="1077.84" y="-7.34941" type="curve"/>
      <point x="900.891" y="33.159" type="line"/>
    </contour>
    <contour>
      <point x="-32.5" y="1033" type="line"/>
      <point x="-50" y="1287" type="line"/>
      <point x="854" y="1287" type="line"/>
      <point x="871.5" y="1033" type="line"/>
    </contour>
    <contour>
      <point x="381" y="665" type="line"/>
      <point x="493" y="779" type="line"/>
      <point x="841" y="398" type="line"/>
      <point x="712" y="300" type="line"/>
    </contour>
    <contour>
      <point x="69" y="530.522" type="line" smooth="yes"/>
      <point x="69" y="787.946"/>
      <point x="239.693" y="939.5"/>
      <point x="550" y="939.5" type="curve" smooth="yes"/>
      <point x="784.5" y="939.5"/>
      <point x="887.5" y="877.5"/>
      <point x="945" y="761.5" type="curve"/>
      <point x="871.5" y="565" type="line"/>
      <point x="829" y="650"/>
      <point x="759.5" y="691"/>
      <point x="615.5" y="691" type="curve" smooth="yes"/>
      <point x="473.605" y="691"/>
      <point x="398" y="630.32"/>
      <point x="398" y="522.963" type="curve" smooth="yes"/>
      <point x="398" y="512.918" type="line" smooth="yes"/>
      <point x="398" y="407.37"/>
      <point x="472.237" y="352"/>
      <point x="617.364" y="352" type="curve" smooth="yes"/>
      <point x="701.818" y="352"/>
      <point x="779.106" y="378"/>
      <point x="841" y="398" type="curve"/>
      <point x="812" y="146" type="line"/>
      <point x="743" y="117"/>
      <point x="654.967" y="102"/>
      <point x="551.722" y="102" type="curve" smooth="yes"/>
      <point x="246.233" y="102"/>
      <point x="69" y="242.675"/>
      <point x="69" y="517.164" type="curve" smooth="yes"/>
    </contour>
    <contour>
      <point x="2343.5" y="0" type="line"/>
      <point x="1999.5" y="0" type="line"/>
      <point x="1999.5" y="1119" type="line"/>
      <point x="2343.5" y="1119" type="line"/>
    </contour>
    <contour>
      <point x="2508.5" y="1033" type="line"/>
      <point x="1852" y="1033" type="line"/>
      <point x="1834.5" y="1287" type="line"/>
      <point x="2491" y="1287" type="line"/>
    </contour>
  </outline>
</glyph>
<glyph name="BaLa.MAR.dv" format="2">
  <advance width="2306"/>
  <anchor x="1901" y="47" name="bottom"/>
  <anchor x="1877.5" y="37" name="bottom2"/>
  <anchor x="1993" y="37" name="bottom3"/>
  <anchor x="1546" y="55" name="bottom5"/>
  <anchor x="1866.5" y="1234.5" name="top"/>
  <outline>
    <contour>
      <point x="-32.5" y="1033" type="line"/>
      <point x="-50" y="1287" type="line"/>
      <point x="1038" y="1287" type="line"/>
      <point x="1055.5" y="1033" type="line"/>
    </contour>
    <contour>
      <point x="355" y="682" type="line"/>
      <point x="484" y="780" type="line"/>
      <point x="864" y="367" type="line"/>
      <point x="758" y="252" type="line"/>
    </contour>
    <contour>
      <point x="69" y="495.738" type="curve" smooth="yes"/>
      <point x="69" y="514.47" type="line" smooth="yes"/>
      <point x="69" y="791.497"/>
      <point x="224.68" y="933"/>
      <point x="512.343" y="933" type="curve" smooth="yes"/>
      <point x="595.127" y="933"/>
      <point x="663.671" y="925"/>
      <point x="733" y="908" type="curve"/>
      <point x="757" y="674" type="line"/>
      <point x="706.261" y="684"/>
      <point x="653.95" y="690"/>
      <point x="595.1" y="690" type="curve" smooth="yes"/>
      <point x="460.63" y="690"/>
      <point x="398" y="633.472"/>
      <point x="398" y="517.442" type="curve" smooth="yes"/>
      <point x="398" y="502.566" type="line" smooth="yes"/>
      <point x="398" y="383.561"/>
      <point x="466.02" y="331"/>
      <point x="600.197" y="331" type="curve" smooth="yes"/>
      <point x="746.648" y="331"/>
      <point x="828.849" y="385"/>
      <point x="853" y="478" type="curve"/>
      <point x="870" y="267" type="line"/>
      <point x="839" y="267" type="line"/>
      <point x="799.814" y="161"/>
      <point x="710.489" y="79"/>
      <point x="503.765" y="79" type="curve" smooth="yes"/>
      <point x="232.807" y="79"/>
      <point x="69" y="216.696"/>
    </contour>
    <contour>
      <point x="1634.5" y="1033" type="line"/>
      <point x="1617" y="1287" type="line"/>
      <point x="2183.5" y="1287" type="line"/>
      <point x="2201" y="1033" type="line"/>
    </contour>
    <contour>
      <point x="2036" y="1119" type="line"/>
      <point x="2036" y="927.5" type="line"/>
      <point x="1702.5" y="927.5" type="line"/>
      <point x="1702.5" y="1119" type="line"/>
    </contour>
    <contour>
      <point x="729.5" y="1033" type="line"/>
      <point x="712" y="1287" type="line"/>
      <point x="2338.5" y="1287" type="line"/>
      <point x="2356" y="1033" type="line"/>
    </contour>
    <contour>
      <point x="2036" y="1076" type="line"/>
      <point x="2036" y="823" type="line"/>
      <point x="1702.5" y="823.5" type="line"/>
      <point x="1702.5" y="1076" type="line"/>
    </contour>
    <contour>
      <point x="1234.5" y="882" type="curve" smooth="yes"/>
      <point x="1411" y="882"/>
      <point x="1499" y="815.555"/>
      <point x="1534" y="703.5" type="curve"/>
      <point x="1543" y="703.5" type="line"/>
      <point x="1579.5" y="815.526"/>
      <point x="1672.5" y="882"/>
      <point x="1847.5" y="882" type="curve" smooth="yes"/>
      <point x="2108.5" y="882"/>
      <point x="2235.5" y="740.5"/>
      <point x="2235.5" y="454" type="curve" smooth="yes"/>
      <point x="2235.5" y="428.5" type="line" smooth="yes"/>
      <point x="2235.5" y="238.131"/>
      <point x="2189.22" y="111.843"/>
      <point x="2080.5" y="0" type="curve"/>
      <point x="1691.5" y="0" type="line"/>
      <point x="1691.5" y="6.5" type="line"/>
      <point x="1831.04" y="134.151"/>
      <point x="1889" y="240.081"/>
      <point x="1889" y="409.5" type="curve" smooth="yes"/>
      <point x="1889" y="438" type="line" smooth="yes"/>
      <point x="1889" y="550.523"/>
      <point x="1859.96" y="600"/>
      <point x="1793.01" y="600" type="curve" smooth="yes"/>
      <point x="1734.2" y="600"/>
      <point x="1703.6" y="569.602"/>
      <point x="1699.5" y="469.5" type="curve" smooth="yes"/>
      <point x="1690" y="237.5" type="line"/>
      <point x="1384" y="237.5" type="line"/>
      <point x="1375.74" y="469.5" type="line" smooth="yes"/>
      <point x="1372.28" y="566.598"/>
      <point x="1347.28" y="600"/>
      <point x="1283.95" y="600" type="curve" smooth="yes"/>
      <point x="1217.66" y="600"/>
      <point x="1183.5" y="552.676"/>
      <point x="1183.5" y="440" type="curve" smooth="yes"/>
      <point x="1183.5" y="410.5" type="line" smooth="yes"/>
      <point x="1183.5" y="240.642"/>
      <point x="1237.98" y="136.033"/>
      <point x="1380" y="5.5" type="curve"/>
      <point x="1380" y="0" type="line"/>
      <point x="991.5" y="0" type="line"/>
      <point x="878.941" y="113.576"/>
      <point x="836.5" y="238.69"/>
      <point x="836.5" y="430" type="curve" smooth="yes"/>
      <point x="836.5" y="455.428" type="line" smooth="yes"/>
      <point x="836.5" y="746.456"/>
      <point x="979.5" y="882"/>
    </contour>
  </outline>
  <guideline angle="0" x="0" y="9"/>
  <guideline angle="90" x="1204.5" y="0"/>
  <guideline angle="90" x="1747" y="0"/>
</glyph>
<glyph name="BaLaYa.dv" format="2">
  <advance width="3140"/>
  <anchor x="2853" y="37" name="bottom"/>
  <anchor x="2846" y="37" name="bottom2"/>
  <anchor x="3025" y="37" name="bottom3"/>
  <anchor x="2853" y="55" name="bottom5"/>
  <anchor x="2853" y="1234.5" name="top"/>
  <outline>
    <contour>
      <point x="-32.5" y="1033" type="line"/>
      <point x="-50" y="1287" type="line"/>
      <point x="1054" y="1287" type="line"/>
      <point x="1071.5" y="1033" type="line"/>
    </contour>
    <contour>
      <point x="371" y="682" type="line"/>
      <point x="500" y="780" type="line"/>
      <point x="880" y="367" type="line"/>
      <point x="774" y="252" type="line"/>
    </contour>
    <contour>
      <point x="69" y="495.738" type="curve" smooth="yes"/>
      <point x="69" y="514.47" type="line" smooth="yes"/>
      <point x="69" y="791.497"/>
      <point x="228.431" y="933"/>
      <point x="523.026" y="933" type="curve" smooth="yes"/>
      <point x="607.805" y="933"/>
      <point x="678" y="925"/>
      <point x="749" y="908" type="curve"/>
      <point x="773" y="674" type="line"/>
      <point x="720" y="684"/>
      <point x="665.358" y="690"/>
      <point x="603.885" y="690" type="curve" smooth="yes"/>
      <point x="463.421" y="690"/>
      <point x="398" y="633.472"/>
      <point x="398" y="517.442" type="curve" smooth="yes"/>
      <point x="398" y="502.566" type="line" smooth="yes"/>
      <point x="398" y="383.561"/>
      <point x="468.412" y="331"/>
      <point x="607.307" y="331" type="curve" smooth="yes"/>
      <point x="758.908" y="331"/>
      <point x="844" y="385"/>
      <point x="869" y="478" type="curve"/>
      <point x="886" y="269" type="line"/>
      <point x="855" y="269" type="line"/>
      <point x="811" y="158"/>
      <point x="717.947" y="79"/>
      <point x="512.206" y="79" type="curve" smooth="yes"/>
      <point x="231.909" y="79"/>
      <point x="69" y="214.696"/>
    </contour>
    <contour>
      <point x="3025" y="1119" type="line"/>
      <point x="3025" y="0" type="line"/>
      <point x="2681" y="0" type="line"/>
      <point x="2681" y="1119" type="line"/>
    </contour>
    <contour>
      <point x="2633" y="1033" type="line"/>
      <point x="2615.5" y="1287" type="line"/>
      <point x="3172.5" y="1287" type="line"/>
      <point x="3190" y="1033" type="line"/>
    </contour>
    <contour>
      <point x="1750.5" y="1287" type="line"/>
      <point x="3072" y="1287" type="line"/>
      <point x="3089.5" y="1033" type="line"/>
      <point x="1768" y="1033" type="line"/>
    </contour>
    <contour>
      <point x="2403.5" y="1079.5" type="line"/>
      <point x="2459" y="1025.43"/>
      <point x="2481.5" y="962.34"/>
      <point x="2481.5" y="865.576" type="curve" smooth="yes"/>
      <point x="2481.5" y="852.419" type="line" smooth="yes"/>
      <point x="2481.5" y="647.916"/>
      <point x="2372.92" y="542.353"/>
      <point x="2101.45" y="534.659" type="curve" smooth="yes"/>
      <point x="1990" y="531.5" type="line"/>
      <point x="1882" y="754" type="line"/>
      <point x="1928.12" y="754" type="line" smooth="yes"/>
      <point x="2081.8" y="754"/>
      <point x="2128" y="804.335"/>
      <point x="2128" y="907.881" type="curve" smooth="yes"/>
      <point x="2128" y="916.99" type="line" smooth="yes"/>
      <point x="2128" y="987.459"/>
      <point x="2110" y="1038.75"/>
      <point x="2049" y="1079.5" type="curve"/>
    </contour>
    <contour>
      <point x="1869.5" y="586.54" type="line" smooth="yes"/>
      <point x="1869.5" y="635.651"/>
      <point x="1873.35" y="683.99"/>
      <point x="1882" y="754" type="curve"/>
      <point x="2198" y="678" type="line"/>
      <point x="2198" y="552.464" type="line" smooth="yes"/>
      <point x="2198" y="465.134"/>
      <point x="2264.5" y="405.5"/>
      <point x="2429" y="405.5" type="curve" smooth="yes"/>
      <point x="2596.5" y="405.5"/>
      <point x="2669" y="462.5"/>
      <point x="2688.5" y="544" type="curve"/>
      <point x="2703" y="332.5" type="line"/>
      <point x="2669" y="332.5" type="line"/>
      <point x="2636" y="211"/>
      <point x="2537.5" y="122"/>
      <point x="2321.5" y="122" type="curve" smooth="yes"/>
      <point x="2035" y="122"/>
      <point x="1869.5" y="277.317"/>
      <point x="1869.5" y="571.09" type="curve" smooth="yes"/>
    </contour>
    <contour>
      <point x="1798.43" y="599" type="curve" smooth="yes"/>
      <point x="1741.76" y="599"/>
      <point x="1712.75" y="562.806"/>
      <point x="1708.95" y="470.977" type="curve" smooth="yes"/>
      <point x="1700" y="255" type="line"/>
      <point x="1542.5" y="255" type="line"/>
      <point x="1542.5" y="705.749" type="line"/>
      <point x="1571" y="813.478"/>
      <point x="1647.53" y="882"/>
      <point x="1779.07" y="882" type="curve" smooth="yes"/>
      <point x="1927.94" y="882"/>
      <point x="1997.76" y="808.156"/>
      <point x="2025.5" y="677.156" type="curve"/>
      <point x="1877.5" y="530" type="line"/>
      <point x="1868.5" y="576.149"/>
      <point x="1845.15" y="599"/>
    </contour>
    <contour>
      <point x="732" y="1033" type="line"/>
      <point x="714.5" y="1287" type="line"/>
      <point x="1772.5" y="1287" type="line"/>
      <point x="1790" y="1033" type="line"/>
    </contour>
    <contour>
      <point x="1566.5" y="255" type="line"/>
      <point x="1395" y="255" type="line"/>
      <point x="1386.38" y="467" type="line" smooth="yes"/>
      <point x="1382.54" y="561.547"/>
      <point x="1357.07" y="600"/>
      <point x="1291.53" y="600" type="curve" smooth="yes"/>
      <point x="1223.53" y="600"/>
      <point x="1188.5" y="552.5"/>
      <point x="1188.5" y="460" type="curve" smooth="yes"/>
      <point x="1188.5" y="314"/>
      <point x="1253" y="181.684"/>
      <point x="1393.5" y="5.38715" type="curve"/>
      <point x="1393.5" y="0" type="line"/>
      <point x="1013.41" y="0" type="line"/>
      <point x="886.544" y="159.856"/>
      <point x="834.5" y="314"/>
      <point x="834.5" y="483.5" type="curve" smooth="yes"/>
      <point x="834.5" y="738"/>
      <point x="984.5" y="882"/>
      <point x="1240" y="882" type="curve" smooth="yes"/>
      <point x="1407.5" y="882"/>
      <point x="1498" y="821.5"/>
      <point x="1535.5" y="714.5" type="curve"/>
      <point x="1576.5" y="714.5" type="line"/>
    </contour>
  </outline>
  <guideline angle="90" x="251" y="0"/>
  <guideline angle="0" x="0" y="882"/>
  <guideline angle="90" x="2728.5" y="0"/>
  <guideline angle="0" x="0" y="9"/>
  <guideline angle="90" x="2733.5" y="0"/>
  <guideline angle="90" x="2716.5" y="0"/>
  <guideline angle="0" x="0" y="1262"/>
  <guideline angle="90" x="2853.5" y="0"/>
  <guideline angle="0" x="0" y="30"/>
</glyph>
<glyph name="BaNa.dv" format="2">
  <advance width="1323"/>
  <anchor x="1036" y="-35" name="bottom"/>
  <anchor x="1028.5" y="-35" name="bottom2"/>
  <anchor x="1207.5" y="-35" name="bottom3"/>
  <anchor x="1035" y="1234.5" name="top"/>
  <outline>
    <contour>
      <point x="-31.5" y="1033" type="line"/>
      <point x="-49" y="1287" type="line"/>
      <point x="1355" y="1287" type="line"/>
      <point x="1372.5" y="1033" type="line"/>
    </contour>
    <contour>
      <point x="1207.5" y="1089" type="line"/>
      <point x="1207.5" y="862.5" type="line"/>
      <point x="863.5" y="862.5" type="line"/>
      <point x="863.5" y="1089" type="line"/>
    </contour>
    <contour>
      <point x="371" y="682" type="line"/>
      <point x="500" y="780" type="line"/>
      <point x="880" y="367" type="line"/>
      <point x="774" y="252" type="line"/>
    </contour>
    <contour>
      <point x="573.5" y="243.5" type="line"/>
      <point x="644.5" y="155.5" type="line"/>
      <point x="603.5" y="138.5"/>
      <point x="543" y="128.622"/>
      <point x="475" y="128.622" type="curve" smooth="yes"/>
      <point x="220.453" y="128.622"/>
      <point x="69" y="277.173"/>
      <point x="69" y="502.202" type="curve" smooth="yes"/>
      <point x="69" y="513" type="line" smooth="yes"/>
      <point x="69" y="791"/>
      <point x="228.431" y="933"/>
      <point x="523.026" y="933" type="curve" smooth="yes"/>
      <point x="607.805" y="933"/>
      <point x="678" y="925"/>
      <point x="749" y="908" type="curve"/>
      <point x="773" y="674" type="line"/>
      <point x="720" y="684"/>
      <point x="665.358" y="690"/>
      <point x="603.885" y="690" type="curve" smooth="yes"/>
      <point x="463.421" y="690"/>
      <point x="398" y="635"/>
      <point x="398" y="516" type="curve" smooth="yes"/>
      <point x="398" y="509" type="line" smooth="yes"/>
      <point x="398" y="387"/>
      <point x="468.105" y="336"/>
      <point x="607" y="336" type="curve" smooth="yes"/>
      <point x="712" y="336"/>
      <point x="777.5" y="366.5"/>
      <point x="846.5" y="405.5" type="curve" smooth="yes"/>
      <point x="889" y="430.5" type="line"/>
      <point x="889" y="145.5" type="line"/>
      <point x="410.5" y="-71" type="line"/>
      <point x="471" y="0" type="line"/>
      <point x="563" y="-200.5" type="line"/>
      <point x="335.5" y="-311" type="line"/>
      <point x="227" y="-257.5"/>
      <point x="144" y="-180"/>
      <point x="94" y="-75.5" type="curve"/>
      <point x="169" y="71" type="line"/>
    </contour>
    <contour>
      <point x="1207.5" y="892" type="line"/>
      <point x="1207.5" y="-72" type="line"/>
      <point x="863.5" y="-72" type="line"/>
      <point x="863.5" y="892" type="line"/>
    </contour>
  </outline>
  <guideline angle="90" x="544" y="0"/>
  <guideline angle="90" x="1035" y="0"/>
  <guideline angle="90" x="916" y="0"/>
</glyph>
<glyph name="BaSha.MAR.dv" format="2">
  <advance width="2385"/>
  <anchor x="2098" y="37" name="bottom"/>
  <anchor x="2090.5" y="37" name="bottom2"/>
  <anchor x="2269.5" y="37" name="bottom3"/>
  <anchor x="2097.5" y="55" name="bottom5"/>
  <anchor x="2097.5" y="1234.5" name="top"/>
  <outline>
    <contour>
      <point x="-32.5" y="1033" type="line"/>
      <point x="-50" y="1287" type="line"/>
      <point x="854" y="1287" type="line"/>
      <point x="871.5" y="1033" type="line"/>
    </contour>
    <contour>
      <point x="371" y="682" type="line"/>
      <point x="500" y="780" type="line"/>
      <point x="880" y="367" type="line"/>
      <point x="774" y="252" type="line"/>
    </contour>
    <contour>
      <point x="69" y="495.738" type="curve" smooth="yes"/>
      <point x="69" y="514.47" type="line" smooth="yes"/>
      <point x="69" y="791.497"/>
      <point x="228.431" y="933"/>
      <point x="523.026" y="933" type="curve" smooth="yes"/>
      <point x="607.805" y="933"/>
      <point x="681" y="926"/>
      <point x="749" y="908" type="curve"/>
      <point x="773" y="674" type="line"/>
      <point x="721" y="684"/>
      <point x="665.358" y="690"/>
      <point x="603.885" y="690" type="curve" smooth="yes"/>
      <point x="463.421" y="690"/>
      <point x="398" y="632.472"/>
      <point x="398" y="516.442" type="curve" smooth="yes"/>
      <point x="398" y="503.566" type="line" smooth="yes"/>
      <point x="398" y="384.561"/>
      <point x="468.412" y="331"/>
      <point x="607.307" y="331" type="curve" smooth="yes"/>
      <point x="748.908" y="331"/>
      <point x="826" y="381"/>
      <point x="861" y="474" type="curve"/>
      <point x="881" y="254" type="line"/>
      <point x="850" y="254" type="line"/>
      <point x="804" y="152"/>
      <point x="708.818" y="79"/>
      <point x="509.799" y="79" type="curve" smooth="yes"/>
      <point x="234.127" y="79"/>
      <point x="69" y="214.696"/>
    </contour>
    <contour>
      <point x="2269.5" y="1119" type="line"/>
      <point x="2269.5" y="0" type="line"/>
      <point x="1925.5" y="0" type="line"/>
      <point x="1925.5" y="1119" type="line"/>
    </contour>
    <contour>
      <point x="1877.5" y="1033" type="line"/>
      <point x="1860" y="1287" type="line"/>
      <point x="2417" y="1287" type="line"/>
      <point x="2434.5" y="1033" type="line"/>
    </contour>
    <contour>
      <point x="746.5" y="1287" type="line"/>
      <point x="2317" y="1287" type="line"/>
      <point x="2334.5" y="1033" type="line"/>
      <point x="764" y="1033" type="line"/>
    </contour>
    <contour>
      <point x="1157.5" y="879" type="line"/>
      <point x="1157.5" y="1113.5" type="line"/>
      <point x="1486.5" y="1113.5" type="line"/>
      <point x="1486.5" y="877" type="line"/>
    </contour>
    <contour>
      <point x="1688.5" y="-96.5" type="line"/>
      <point x="1242.5" y="-96.5" type="line"/>
      <point x="1013.5" y="189.5" type="line"/>
      <point x="861" y="208.5" type="line"/>
      <point x="861" y="474" type="line"/>
      <point x="1322.5" y="311" type="line"/>
      <point x="1322.5" y="191.5" type="line"/>
      <point x="1427.8" y="156.116"/>
      <point x="1502.93" y="109.349"/>
      <point x="1580.5" y="32.5" type="curve" smooth="yes"/>
      <point x="1688.5" y="-74.5" type="line"/>
    </contour>
    <contour>
      <point x="1302" y="951" type="curve" smooth="yes"/>
      <point x="1618" y="951"/>
      <point x="1763" y="809.457"/>
      <point x="1763" y="582.5" type="curve" smooth="yes"/>
      <point x="1763" y="562" type="line" smooth="yes"/>
      <point x="1763" y="318.463"/>
      <point x="1609.07" y="200"/>
      <point x="1247" y="200" type="curve" smooth="yes"/>
      <point x="1155.03" y="200"/>
      <point x="1071.62" y="206.5"/>
      <point x="985" y="217" type="curve"/>
      <point x="861" y="474" type="line"/>
      <point x="964" y="461.5"/>
      <point x="1042" y="455.5"/>
      <point x="1143" y="455.5" type="curve" smooth="yes"/>
      <point x="1341.51" y="455.5"/>
      <point x="1410" y="489.189"/>
      <point x="1410" y="564" type="curve" smooth="yes"/>
      <point x="1410" y="572.5" type="line" smooth="yes"/>
      <point x="1410" y="640.925"/>
      <point x="1366.79" y="676"/>
      <point x="1240.5" y="676" type="curve" smooth="yes"/>
      <point x="1115.75" y="676"/>
      <point x="1004.81" y="647"/>
      <point x="884" y="598.5" type="curve"/>
      <point x="907" y="885.5" type="line"/>
      <point x="1017.5" y="926.5"/>
      <point x="1138" y="951"/>
    </contour>
  </outline>
  <guideline angle="90" x="1973" y="0"/>
  <guideline angle="0" x="0" y="9"/>
  <guideline angle="90" x="1978" y="0"/>
  <guideline angle="90" x="1961" y="0"/>
  <guideline angle="0" x="0" y="1262"/>
  <guideline angle="90" x="2098" y="0"/>
  <guideline angle="0" x="0" y="30"/>
</glyph>
<glyph name="BaSha.dv" format="2">
  <advance width="2357"/>
  <anchor x="2070.5" y="37" name="bottom"/>
  <anchor x="2063" y="37" name="bottom2"/>
  <anchor x="2242" y="37" name="bottom3"/>
  <anchor x="2070" y="55" name="bottom5"/>
  <anchor x="2070" y="1234.5" name="top"/>
  <outline>
    <contour>
      <point x="-32.5" y="1033" type="line"/>
      <point x="-50" y="1287" type="line"/>
      <point x="776" y="1287" type="line"/>
      <point x="793.5" y="1033" type="line"/>
    </contour>
    <contour>
      <point x="367" y="682" type="line"/>
      <point x="496" y="780" type="line"/>
      <point x="880" y="367" type="line"/>
      <point x="774" y="252" type="line"/>
    </contour>
    <contour>
      <point x="743.647" y="679.085" type="line"/>
      <point x="697.731" y="685.999"/>
      <point x="652.085" y="690"/>
      <point x="603.885" y="690" type="curve" smooth="yes"/>
      <point x="463.421" y="690"/>
      <point x="398" y="633.472"/>
      <point x="398" y="517.442" type="curve" smooth="yes"/>
      <point x="398" y="502.566" type="line" smooth="yes"/>
      <point x="398" y="383.561"/>
      <point x="466.605" y="333"/>
      <point x="611.5" y="333" type="curve" smooth="yes"/>
      <point x="740.5" y="333"/>
      <point x="820" y="392"/>
      <point x="838.5" y="492" type="curve"/>
      <point x="995" y="382" type="line"/>
      <point x="949" y="197.5"/>
      <point x="823" y="80.437"/>
      <point x="551" y="80.5004" type="curve" smooth="yes"/>
      <point x="256.357" y="80.5691"/>
      <point x="69" y="214.696"/>
      <point x="69" y="495.738" type="curve" smooth="yes"/>
      <point x="69" y="514.47" type="line" smooth="yes"/>
      <point x="69" y="791.497"/>
      <point x="229.431" y="933"/>
      <point x="525.026" y="933" type="curve" smooth="yes"/>
      <point x="598.438" y="933"/>
      <point x="660.615" y="926.837"/>
      <point x="720.963" y="913.834" type="curve"/>
    </contour>
    <contour>
      <point x="2242" y="1119" type="line"/>
      <point x="2242" y="0" type="line"/>
      <point x="1898" y="0" type="line"/>
      <point x="1898" y="1119" type="line"/>
    </contour>
    <contour>
      <point x="1850" y="1033" type="line"/>
      <point x="1832.5" y="1287" type="line"/>
      <point x="2389.5" y="1287" type="line"/>
      <point x="2407" y="1033" type="line"/>
    </contour>
    <contour>
      <point x="1783" y="1287" type="line"/>
      <point x="2289.5" y="1287" type="line"/>
      <point x="2307" y="1033" type="line"/>
      <point x="1800.5" y="1033" type="line"/>
    </contour>
    <contour>
      <point x="1700" y="0" type="line"/>
      <point x="1243.5" y="0" type="line"/>
      <point x="983" y="332" type="line"/>
      <point x="825.5" y="348.5" type="line"/>
      <point x="825.5" y="620.5" type="line"/>
      <point x="1232" y="497" type="line"/>
      <point x="1232" y="386" type="line"/>
      <point x="1361" y="345.5"/>
      <point x="1463.01" y="269.451"/>
      <point x="1552.5" y="174.5" type="curve" smooth="yes"/>
      <point x="1700" y="18" type="line"/>
    </contour>
    <contour>
      <point x="1737.5" y="884" type="curve" smooth="yes"/>
      <point x="1737.5" y="831" type="line" smooth="yes"/>
      <point x="1737.5" y="515"/>
      <point x="1557" y="363"/>
      <point x="1188" y="363" type="curve" smooth="yes"/>
      <point x="1121" y="363"/>
      <point x="1036" y="363"/>
      <point x="977.5" y="365.5" type="curve"/>
      <point x="825.5" y="620.5" type="line"/>
      <point x="911" y="616"/>
      <point x="968" y="614"/>
      <point x="1046" y="614" type="curve" smooth="yes"/>
      <point x="1304.5" y="614"/>
      <point x="1390" y="681.5"/>
      <point x="1390" y="851.5" type="curve" smooth="yes"/>
      <point x="1390" y="891.5" type="line" smooth="yes"/>
      <point x="1390" y="1001.27"/>
      <point x="1358" y="1039.5"/>
      <point x="1284.5" y="1039.5" type="curve" smooth="yes"/>
      <point x="1212" y="1039.5"/>
      <point x="1179" y="998.5"/>
      <point x="1179" y="902.5" type="curve" smooth="yes"/>
      <point x="1179" y="888" type="line" smooth="yes"/>
      <point x="1179" y="831.5"/>
      <point x="1187.5" y="789"/>
      <point x="1205.5" y="743" type="curve"/>
      <point x="891.5" y="743" type="line"/>
      <point x="863.5" y="802.5"/>
      <point x="852" y="861.5"/>
      <point x="852" y="940.5" type="curve" smooth="yes"/>
      <point x="852" y="957.5" type="line" smooth="yes"/>
      <point x="852" y="1190"/>
      <point x="1009.42" y="1317.5"/>
      <point x="1286.5" y="1317.5" type="curve" smooth="yes"/>
      <point x="1585.54" y="1317.5"/>
      <point x="1737.5" y="1164.5"/>
    </contour>
  </outline>
  <guideline angle="90" x="308" y="0"/>
  <guideline angle="90" x="1945.5" y="0"/>
  <guideline angle="0" x="0" y="9"/>
  <guideline angle="90" x="1950.5" y="0"/>
  <guideline angle="90" x="1933.5" y="0"/>
  <guideline angle="0" x="0" y="1262"/>
  <guideline angle="90" x="2070.5" y="0"/>
  <guideline angle="0" x="0" y="30"/>
</glyph>
<glyph name="BaVa.dv" format="2">
  <advance width="2038"/>
  <anchor x="1751" y="37" name="bottom"/>
  <anchor x="1743.5" y="37" name="bottom2"/>
  <anchor x="1922.5" y="37" name="bottom3"/>
  <anchor x="1750.5" y="55" name="bottom5"/>
  <anchor x="1750.5" y="1234.5" name="top"/>
  <outline>
    <contour>
      <point x="-32.5" y="1033" type="line"/>
      <point x="-50" y="1287" type="line"/>
      <point x="904" y="1287" type="line"/>
      <point x="921.5" y="1033" type="line"/>
    </contour>
    <contour>
      <point x="371" y="682" type="line"/>
      <point x="500" y="780" type="line"/>
      <point x="880" y="367" type="line"/>
      <point x="774" y="252" type="line"/>
    </contour>
    <contour>
      <point x="69" y="495.738" type="curve" smooth="yes"/>
      <point x="69" y="514.47" type="line" smooth="yes"/>
      <point x="69" y="791.497"/>
      <point x="228.431" y="933"/>
      <point x="523.026" y="933" type="curve" smooth="yes"/>
      <point x="607.805" y="933"/>
      <point x="678" y="925"/>
      <point x="749" y="908" type="curve"/>
      <point x="773" y="674" type="line"/>
      <point x="720" y="684"/>
      <point x="665.358" y="690"/>
      <point x="603.885" y="690" type="curve" smooth="yes"/>
      <point x="463.421" y="690"/>
      <point x="398" y="633.472"/>
      <point x="398" y="517.442" type="curve" smooth="yes"/>
      <point x="398" y="502.566" type="line" smooth="yes"/>
      <point x="398" y="383.561"/>
      <point x="468.412" y="331"/>
      <point x="607.307" y="331" type="curve" smooth="yes"/>
      <point x="758.908" y="331"/>
      <point x="844" y="385"/>
      <point x="869" y="478" type="curve"/>
      <point x="899" y="269" type="line"/>
      <point x="868" y="269" type="line"/>
      <point x="817.064" y="153.688"/>
      <point x="723.865" y="79"/>
      <point x="516.949" y="79" type="curve" smooth="yes"/>
      <point x="221.388" y="79"/>
      <point x="69" y="223.696"/>
    </contour>
    <contour>
      <point x="1922.5" y="1119" type="line"/>
      <point x="1922.5" y="0" type="line"/>
      <point x="1578.5" y="0" type="line"/>
      <point x="1578.5" y="1119" type="line"/>
    </contour>
    <contour>
      <point x="1530.5" y="1033" type="line"/>
      <point x="1513" y="1287" type="line"/>
      <point x="2070" y="1287" type="line"/>
      <point x="2087.5" y="1033" type="line"/>
    </contour>
    <contour>
      <point x="728.5" y="1033" type="line"/>
      <point x="711.5" y="1287" type="line"/>
      <point x="1970.5" y="1287" type="line"/>
      <point x="1987.5" y="1033" type="line"/>
    </contour>
    <contour>
      <point x="829.5" y="494" type="curve" smooth="yes"/>
      <point x="829.5" y="516" type="line" smooth="yes"/>
      <point x="829.5" y="794"/>
      <point x="977.5" y="928"/>
      <point x="1258.5" y="928" type="curve" smooth="yes"/>
      <point x="1338.5" y="928"/>
      <point x="1401.5" y="921"/>
      <point x="1463.5" y="906" type="curve"/>
      <point x="1485.5" y="640" type="line"/>
      <point x="1448.85" y="646"/>
      <point x="1409.26" y="649"/>
      <point x="1364.7" y="649" type="curve" smooth="yes"/>
      <point x="1239.94" y="649"/>
      <point x="1183.5" y="608"/>
      <point x="1183.5" y="514" type="curve" smooth="yes"/>
      <point x="1183.5" y="505" type="line" smooth="yes"/>
      <point x="1183.5" y="408"/>
      <point x="1240.36" y="370"/>
      <point x="1376.16" y="370" type="curve" smooth="yes"/>
      <point x="1501.83" y="370"/>
      <point x="1564.93" y="414"/>
      <point x="1584.5" y="490" type="curve"/>
      <point x="1601.5" y="289" type="line"/>
      <point x="1566.5" y="289" type="line"/>
      <point x="1533.5" y="160"/>
      <point x="1436.5" y="87"/>
      <point x="1240.5" y="87" type="curve" smooth="yes"/>
      <point x="979.5" y="87"/>
      <point x="829.5" y="221"/>
    </contour>
  </outline>
  <guideline angle="90" x="1626" y="0"/>
  <guideline angle="0" x="0" y="9"/>
  <guideline angle="90" x="1631" y="0"/>
  <guideline angle="90" x="1614" y="0"/>
  <guideline angle="0" x="0" y="1262"/>
  <guideline angle="90" x="1751" y="0"/>
  <guideline angle="0" x="0" y="30"/>
</glyph>
<glyph name="BhaHalant.dv" format="2">
  <advance width="719"/>
  <outline>
    <contour>
      <point x="729" y="1033" type="line"/>
      <point x="711" y="1287" type="line"/>
      <point x="1000" y="1287" type="line"/>
      <point x="1017.5" y="1033" type="line"/>
    </contour>
    <contour>
      <point x="285.5" y="408" type="line"/>
      <point x="285.5" y="680" type="line"/>
      <point x="953.5" y="680" type="line"/>
      <point x="953.5" y="408" type="line"/>
    </contour>
    <contour>
      <point x="209.5" y="149.5" type="line"/>
      <point x="123" y="263"/>
      <point x="61.5" y="412"/>
      <point x="49" y="583.5" type="curve"/>
      <point x="184.5" y="663" type="line"/>
      <point x="525" y="663" type="line"/>
      <point x="525" y="149.5" type="line"/>
    </contour>
    <contour>
      <point x="184.5" y="537" type="line"/>
      <point x="184.5" y="911" type="line" smooth="yes"/>
      <point x="184.5" y="1003"/>
      <point x="160.5" y="1033"/>
      <point x="76.5" y="1033" type="curve" smooth="yes"/>
      <point x="-31.5" y="1033" type="line"/>
      <point x="-49.5" y="1287" type="line"/>
      <point x="134.5" y="1287" type="line" smooth="yes"/>
      <point x="425.5" y="1287"/>
      <point x="525" y="1179.5"/>
      <point x="525" y="916.5" type="curve" smooth="yes"/>
      <point x="525" y="537" type="line"/>
    </contour>
  </outline>
</glyph>
<glyph name="BhaLa.MAR.dv" format="2">
  <advance width="2255"/>
  <anchor x="1849.5" y="47" name="bottom"/>
  <anchor x="1826" y="37" name="bottom2"/>
  <anchor x="1941.5" y="37" name="bottom3"/>
  <anchor x="1494.5" y="55" name="bottom5"/>
  <anchor x="1815" y="1234.5" name="top"/>
  <outline>
    <contour>
      <point x="878" y="1033" type="line"/>
      <point x="860.5" y="1287" type="line"/>
      <point x="2287" y="1287" type="line"/>
      <point x="2304.5" y="1033" type="line"/>
    </contour>
    <contour>
      <point x="1984.5" y="1076" type="line"/>
      <point x="1984.5" y="823" type="line"/>
      <point x="1651" y="823.5" type="line"/>
      <point x="1651" y="1076" type="line"/>
    </contour>
    <contour>
      <point x="1183" y="882" type="curve" smooth="yes"/>
      <point x="1359.5" y="882"/>
      <point x="1447.5" y="815.555"/>
      <point x="1482.5" y="703.5" type="curve"/>
      <point x="1491.5" y="703.5" type="line"/>
      <point x="1528" y="815.526"/>
      <point x="1621" y="882"/>
      <point x="1796" y="882" type="curve" smooth="yes"/>
      <point x="2057" y="882"/>
      <point x="2184" y="740.5"/>
      <point x="2184" y="454" type="curve" smooth="yes"/>
      <point x="2184" y="428.5" type="line" smooth="yes"/>
      <point x="2184" y="238.131"/>
      <point x="2137.72" y="111.843"/>
      <point x="2029" y="0" type="curve"/>
      <point x="1640" y="0" type="line"/>
      <point x="1640" y="6.5" type="line"/>
      <point x="1779.54" y="134.151"/>
      <point x="1837.5" y="240.081"/>
      <point x="1837.5" y="409.5" type="curve" smooth="yes"/>
      <point x="1837.5" y="438" type="line" smooth="yes"/>
      <point x="1837.5" y="550.523"/>
      <point x="1808.46" y="600"/>
      <point x="1741.51" y="600" type="curve" smooth="yes"/>
      <point x="1682.7" y="600"/>
      <point x="1652.1" y="569.602"/>
      <point x="1648" y="469.5" type="curve" smooth="yes"/>
      <point x="1638.5" y="237.5" type="line"/>
      <point x="1332.5" y="237.5" type="line"/>
      <point x="1324.24" y="469.5" type="line" smooth="yes"/>
      <point x="1320.78" y="566.598"/>
      <point x="1295.78" y="600"/>
      <point x="1232.45" y="600" type="curve" smooth="yes"/>
      <point x="1166.16" y="600"/>
      <point x="1132" y="552.676"/>
      <point x="1132" y="440" type="curve" smooth="yes"/>
      <point x="1132" y="410.5" type="line" smooth="yes"/>
      <point x="1132" y="240.642"/>
      <point x="1186.48" y="136.033"/>
      <point x="1328.5" y="5.5" type="curve"/>
      <point x="1328.5" y="0" type="line"/>
      <point x="940" y="0" type="line"/>
      <point x="827.441" y="113.576"/>
      <point x="785" y="238.69"/>
      <point x="785" y="430" type="curve" smooth="yes"/>
      <point x="785" y="455.428" type="line" smooth="yes"/>
      <point x="785" y="746.456"/>
      <point x="928" y="882"/>
    </contour>
    <contour>
      <point x="729" y="1033" type="line"/>
      <point x="711" y="1287" type="line"/>
      <point x="1000" y="1287" type="line"/>
      <point x="1017.5" y="1033" type="line"/>
    </contour>
    <contour>
      <point x="285.5" y="408" type="line"/>
      <point x="285.5" y="680" type="line"/>
      <point x="953.5" y="680" type="line"/>
      <point x="953.5" y="408" type="line"/>
    </contour>
    <contour>
      <point x="209.5" y="149.5" type="line"/>
      <point x="123" y="263"/>
      <point x="61.5" y="412"/>
      <point x="49" y="583.5" type="curve"/>
      <point x="184.5" y="663" type="line"/>
      <point x="525" y="663" type="line"/>
      <point x="525" y="149.5" type="line"/>
    </contour>
    <contour>
      <point x="184.5" y="537" type="line"/>
      <point x="184.5" y="911" type="line" smooth="yes"/>
      <point x="184.5" y="1003"/>
      <point x="160.5" y="1033"/>
      <point x="76.5" y="1033" type="curve" smooth="yes"/>
      <point x="-31.5" y="1033" type="line"/>
      <point x="-49.5" y="1287" type="line"/>
      <point x="134.5" y="1287" type="line" smooth="yes"/>
      <point x="425.5" y="1287"/>
      <point x="525" y="1179.5"/>
      <point x="525" y="916.5" type="curve" smooth="yes"/>
      <point x="525" y="537" type="line"/>
    </contour>
    <contour>
      <point x="1583" y="1033" type="line"/>
      <point x="1565.5" y="1287" type="line"/>
      <point x="2132" y="1287" type="line"/>
      <point x="2149.5" y="1033" type="line"/>
    </contour>
    <contour>
      <point x="1984.5" y="1119" type="line"/>
      <point x="1984.5" y="927.5" type="line"/>
      <point x="1651" y="927.5" type="line"/>
      <point x="1651" y="1119" type="line"/>
    </contour>
  </outline>
  <guideline angle="0" x="0" y="518"/>
  <guideline angle="90" x="816" y="0"/>
  <guideline angle="0" x="0" y="9"/>
  <guideline angle="90" x="1153" y="0"/>
  <guideline angle="90" x="1695.5" y="0"/>
</glyph>
<glyph name="BhaVa.dv" format="2">
  <advance width="1983"/>
  <anchor x="1696" y="37" name="bottom"/>
  <anchor x="1688.5" y="37" name="bottom2"/>
  <anchor x="1867.5" y="37" name="bottom3"/>
  <anchor x="1695.5" y="55" name="bottom5"/>
  <anchor x="1695.5" y="1234.5" name="top"/>
  <outline>
    <contour>
      <point x="874" y="1033" type="line"/>
      <point x="857" y="1287" type="line"/>
      <point x="1916" y="1287" type="line"/>
      <point x="1933" y="1033" type="line"/>
    </contour>
    <contour>
      <point x="775" y="494" type="curve" smooth="yes"/>
      <point x="775" y="516" type="line" smooth="yes"/>
      <point x="775" y="794"/>
      <point x="923" y="928"/>
      <point x="1204" y="928" type="curve" smooth="yes"/>
      <point x="1284" y="928"/>
      <point x="1347" y="921"/>
      <point x="1409" y="906" type="curve"/>
      <point x="1431" y="640" type="line"/>
      <point x="1394.35" y="646"/>
      <point x="1354.76" y="649"/>
      <point x="1310.2" y="649" type="curve" smooth="yes"/>
      <point x="1185.44" y="649"/>
      <point x="1129" y="608"/>
      <point x="1129" y="514" type="curve" smooth="yes"/>
      <point x="1129" y="505" type="line" smooth="yes"/>
      <point x="1129" y="408"/>
      <point x="1185.86" y="370"/>
      <point x="1321.66" y="370" type="curve" smooth="yes"/>
      <point x="1447.33" y="370"/>
      <point x="1510.43" y="414"/>
      <point x="1530" y="490" type="curve"/>
      <point x="1547" y="289" type="line"/>
      <point x="1512" y="289" type="line"/>
      <point x="1479" y="160"/>
      <point x="1382" y="87"/>
      <point x="1186" y="87" type="curve" smooth="yes"/>
      <point x="925" y="87"/>
      <point x="775" y="221"/>
    </contour>
    <contour>
      <point x="729" y="1033" type="line"/>
      <point x="711" y="1287" type="line"/>
      <point x="1000" y="1287" type="line"/>
      <point x="1017.5" y="1033" type="line"/>
    </contour>
    <contour>
      <point x="285.5" y="408" type="line"/>
      <point x="285.5" y="680" type="line"/>
      <point x="953.5" y="680" type="line"/>
      <point x="953.5" y="408" type="line"/>
    </contour>
    <contour>
      <point x="209.5" y="149.5" type="line"/>
      <point x="123" y="263"/>
      <point x="61.5" y="412"/>
      <point x="49" y="583.5" type="curve"/>
      <point x="184.5" y="663" type="line"/>
      <point x="525" y="663" type="line"/>
      <point x="525" y="149.5" type="line"/>
    </contour>
    <contour>
      <point x="184.5" y="537" type="line"/>
      <point x="184.5" y="911" type="line" smooth="yes"/>
      <point x="184.5" y="1003"/>
      <point x="160.5" y="1033"/>
      <point x="76.5" y="1033" type="curve" smooth="yes"/>
      <point x="-31.5" y="1033" type="line"/>
      <point x="-49.5" y="1287" type="line"/>
      <point x="134.5" y="1287" type="line" smooth="yes"/>
      <point x="425.5" y="1287"/>
      <point x="525" y="1179.5"/>
      <point x="525" y="916.5" type="curve" smooth="yes"/>
      <point x="525" y="537" type="line"/>
    </contour>
    <contour>
      <point x="1867.5" y="1119" type="line"/>
      <point x="1867.5" y="0" type="line"/>
      <point x="1523.5" y="0" type="line"/>
      <point x="1523.5" y="1119" type="line"/>
    </contour>
    <contour>
      <point x="1475.5" y="1033" type="line"/>
      <point x="1458" y="1287" type="line"/>
      <point x="2015" y="1287" type="line"/>
      <point x="2032.5" y="1033" type="line"/>
    </contour>
  </outline>
  <guideline angle="90" x="1571" y="0"/>
  <guideline angle="0" x="0" y="9"/>
  <guideline angle="90" x="1576" y="0"/>
  <guideline angle="90" x="1559" y="0"/>
  <guideline angle="0" x="0" y="1262"/>
  <guideline angle="90" x="1696" y="0"/>
  <guideline angle="0" x="0" y="30"/>
</glyph>
<glyph name="CaCha.dv" format="2">
  <advance width="2367"/>
  <anchor x="1612.5" y="-7" name="bottom"/>
  <anchor x="1551" y="-7" name="bottom2"/>
  <anchor x="2029" y="-7" name="bottom3"/>
  <anchor x="1597.5" y="15.5" name="bottom4"/>
  <anchor x="1573.5" y="11" name="bottom5"/>
  <anchor x="1952.5" y="1234.5" name="top"/>
  <outline>
    <contour>
      <point x="-32" y="1033" type="line"/>
      <point x="-49.5" y="1287" type="line"/>
      <point x="912" y="1287" type="line"/>
      <point x="929.5" y="1033" type="line"/>
    </contour>
    <contour>
      <point x="797" y="901" type="line"/>
      <point x="797" y="637.5" type="line"/>
      <point x="367.5" y="636.5" type="line"/>
      <point x="260.5" y="631.5" type="line"/>
      <point x="49.5" y="631.5" type="line"/>
      <point x="49.5" y="901" type="line"/>
    </contour>
    <contour>
      <point x="550.304" y="83.5" type="curve" smooth="yes"/>
      <point x="312.23" y="83.5"/>
      <point x="176" y="191.354"/>
      <point x="176" y="389" type="curve" smooth="yes"/>
      <point x="176" y="395.5" type="line" smooth="yes"/>
      <point x="176" y="508.435"/>
      <point x="222.132" y="587.015"/>
      <point x="330.5" y="623.5" type="curve"/>
      <point x="329.5" y="705" type="line"/>
      <point x="797" y="704" type="line"/>
      <point x="797" y="637.5" type="line"/>
      <point x="692.82" y="633" type="line" smooth="yes"/>
      <point x="586.69" y="628.416"/>
      <point x="528" y="592.33"/>
      <point x="528" y="505.5" type="curve" smooth="yes"/>
      <point x="528" y="495.5" type="line" smooth="yes"/>
      <point x="528" y="410.575"/>
      <point x="575.419" y="367.471"/>
      <point x="706.674" y="367.5" type="curve" smooth="yes"/>
      <point x="836.442" y="367.528"/>
      <point x="888.898" y="404.5"/>
      <point x="923.5" y="487.5" type="curve"/>
      <point x="920" y="266" type="line"/>
      <point x="885.5" y="266" type="line"/>
      <point x="844.264" y="153.38"/>
      <point x="756.519" y="83.5"/>
    </contour>
    <contour>
      <point x="1720.5" y="1033" type="line"/>
      <point x="1703" y="1287" type="line"/>
      <point x="2269.5" y="1287" type="line"/>
      <point x="2287" y="1033" type="line"/>
    </contour>
    <contour>
      <point x="2122" y="1119" type="line"/>
      <point x="2122" y="927.5" type="line"/>
      <point x="1788.5" y="927.5" type="line"/>
      <point x="1788.5" y="1119" type="line"/>
    </contour>
    <contour>
      <point x="2391" y="1287" type="line"/>
      <point x="2408.5" y="1033" type="line"/>
      <point x="755.5" y="1033" type="line"/>
      <point x="738" y="1287" type="line"/>
    </contour>
    <contour>
      <point x="1787" y="885" type="line"/>
      <point x="1787" y="1123.5" type="line"/>
      <point x="2122" y="1123.5" type="line"/>
      <point x="2122" y="885" type="line"/>
    </contour>
    <contour>
      <point x="1563.31" y="-44" type="curve" smooth="yes"/>
      <point x="1105.66" y="-44"/>
      <point x="889.5" y="91.1539"/>
      <point x="889.5" y="348.5" type="curve" smooth="yes"/>
      <point x="889.5" y="358.5" type="line" smooth="yes"/>
      <point x="889.5" y="514.559"/>
      <point x="960.673" y="611.902"/>
      <point x="1161" y="637.5" type="curve"/>
      <point x="1161" y="646" type="line"/>
      <point x="960.185" y="673.486"/>
      <point x="891" y="758.57"/>
      <point x="891" y="900" type="curve" smooth="yes"/>
      <point x="891" y="907.5" type="line" smooth="yes"/>
      <point x="891" y="980.234"/>
      <point x="915.545" y="1043.32"/>
      <point x="972.278" y="1071" type="curve"/>
      <point x="1339.5" y="1071" type="line"/>
      <point x="1275.45" y="1051"/>
      <point x="1245.5" y="997.308"/>
      <point x="1245.5" y="931" type="curve" smooth="yes"/>
      <point x="1245.5" y="921" type="line" smooth="yes"/>
      <point x="1245.5" y="834.351"/>
      <point x="1291.34" y="782.145"/>
      <point x="1409.35" y="775.5" type="curve" smooth="yes"/>
      <point x="1471.5" y="772" type="line"/>
      <point x="1471.5" y="510.5" type="line"/>
      <point x="1404.23" y="507.5" type="line" smooth="yes"/>
      <point x="1285.75" y="502.216"/>
      <point x="1243" y="459.5"/>
      <point x="1243" y="393" type="curve" smooth="yes"/>
      <point x="1243" y="386" type="line" smooth="yes"/>
      <point x="1243" y="278.5"/>
      <point x="1352.65" y="235"/>
      <point x="1593.69" y="235" type="curve" smooth="yes"/>
      <point x="1879.35" y="235"/>
      <point x="2003.5" y="340.5"/>
      <point x="2003.5" y="511.5" type="curve" smooth="yes"/>
      <point x="2003.5" y="533.5" type="line"/>
      <point x="1999.5" y="556" type="line"/>
      <point x="1999.5" y="612.5" type="line" smooth="yes"/>
      <point x="1999.5" y="688.117"/>
      <point x="1976.39" y="722.5"/>
      <point x="1916" y="722.5" type="curve" smooth="yes"/>
      <point x="1862.45" y="722.5"/>
      <point x="1839.5" y="692.177"/>
      <point x="1839.5" y="641" type="curve" smooth="yes"/>
      <point x="1839.5" y="632.5" type="line" smooth="yes"/>
      <point x="1839.5" y="579.5"/>
      <point x="1866.5" y="554.5"/>
      <point x="1920.5" y="554.5" type="curve" smooth="yes"/>
      <point x="1960.51" y="554.5"/>
      <point x="1991.97" y="569.5"/>
      <point x="2009.5" y="592.5" type="curve"/>
      <point x="2007.5" y="464.5" type="line"/>
      <point x="1984.5" y="464.5" type="line"/>
      <point x="1959.1" y="392"/>
      <point x="1901.1" y="347"/>
      <point x="1799.5" y="347" type="curve" smooth="yes"/>
      <point x="1650.89" y="347"/>
      <point x="1562.5" y="440"/>
      <point x="1562.5" y="620" type="curve" smooth="yes"/>
      <point x="1562.5" y="638" type="line" smooth="yes"/>
      <point x="1562.5" y="845.5"/>
      <point x="1682.5" y="945.5"/>
      <point x="1923.5" y="945.5" type="curve" smooth="yes"/>
      <point x="2200" y="945.5"/>
      <point x="2304" y="802"/>
      <point x="2304" y="559.5" type="curve" smooth="yes"/>
      <point x="2304" y="536" type="line" smooth="yes"/>
      <point x="2304" y="174"/>
      <point x="2071.69" y="-44"/>
    </contour>
  </outline>
  <guideline angle="0" x="0" y="94"/>
  <guideline angle="90" x="68" y="0"/>
  <guideline angle="0" x="0" y="1383"/>
  <guideline angle="0" x="0" y="20"/>
  <guideline angle="0" x="0" y="20"/>
  <guideline angle="0" x="0" y="41"/>
  <guideline angle="90" x="2304.5" y="0"/>
  <guideline angle="90" x="1833" y="0"/>
</glyph>
<glyph name="CaHalant.dv" format="2">
  <advance width="807"/>
  <outline>
    <contour>
      <point x="-32" y="1033" type="line"/>
      <point x="-49.5" y="1287" type="line"/>
      <point x="966" y="1287" type="line"/>
      <point x="984" y="1033" type="line"/>
    </contour>
    <contour>
      <point x="797" y="901" type="line"/>
      <point x="797" y="637.5" type="line"/>
      <point x="367.5" y="636.5" type="line"/>
      <point x="260.5" y="631.5" type="line"/>
      <point x="49.5" y="631.5" type="line"/>
      <point x="49.5" y="901" type="line"/>
    </contour>
    <contour>
      <point x="577.809" y="83.5" type="curve" smooth="yes"/>
      <point x="318.455" y="83.5"/>
      <point x="176" y="196.354"/>
      <point x="176" y="395" type="curve" smooth="yes"/>
      <point x="176" y="406.5" type="line" smooth="yes"/>
      <point x="176" y="519.435"/>
      <point x="221.132" y="595.117"/>
      <point x="330.5" y="623.5" type="curve"/>
      <point x="329.5" y="705" type="line"/>
      <point x="797" y="704" type="line"/>
      <point x="797" y="637.5" type="line"/>
      <point x="692.82" y="633" type="line" smooth="yes"/>
      <point x="588.686" y="628.502"/>
      <point x="528" y="590.33"/>
      <point x="528" y="501.5" type="curve" smooth="yes"/>
      <point x="528" y="493.5" type="line" smooth="yes"/>
      <point x="528" y="408.575"/>
      <point x="581.342" y="367.463"/>
      <point x="707.403" y="367.482" type="curve" smooth="yes"/>
      <point x="830.823" y="367.5"/>
      <point x="891.383" y="405.5"/>
      <point x="926.5" y="470.5" type="curve"/>
      <point x="943.5" y="323" type="line"/>
      <point x="917.768" y="186"/>
      <point x="815.83" y="83.5"/>
    </contour>
  </outline>
  <guideline angle="0" x="0" y="94"/>
</glyph>
<glyph name="Component_Bindu_I_kar.dv" format="2">
  <note>For Ikar Bindu</note>
  <outline>
    <contour>
      <point x="-98.396" y="1451.06" type="curve" smooth="yes"/>
      <point x="-215.312" y="1451.06"/>
      <point x="-263" y="1514.94"/>
      <point x="-263" y="1604.53" type="curve" smooth="yes"/>
      <point x="-263" y="1612.03" type="line" smooth="yes"/>
      <point x="-263" y="1702.16"/>
      <point x="-215.312" y="1767.65"/>
      <point x="-98.396" y="1767.65" type="curve" smooth="yes"/>
      <point x="19.6183" y="1767.65"/>
      <point x="68.9215" y="1702.16"/>
      <point x="68.9215" y="1612.03" type="curve" smooth="yes"/>
      <point x="68.9215" y="1604.53" type="line" smooth="yes"/>
      <point x="68.9215" y="1514.94"/>
      <point x="19.0588" y="1451.06"/>
    </contour>
  </outline>
  <guideline angle="90" x="79" y="0"/>
  <guideline angle="90" x="33.2961" y="0"/>
</glyph>
<glyph name="Component_matraA.dv" format="2">
  <advance width="575"/>
  <anchor x="288" y="37" name="bottom"/>
  <anchor x="280.5" y="37" name="bottom2"/>
  <anchor x="459.5" y="37" name="bottom3"/>
  <anchor x="287.5" y="55" name="bottom5"/>
  <anchor x="287.5" y="1234.5" name="top"/>
  <outline>
    <contour>
      <point x="459.5" y="1119" type="line"/>
      <point x="459.5" y="0" type="line"/>
      <point x="115.5" y="0" type="line"/>
      <point x="115.5" y="1119" type="line"/>
    </contour>
    <contour>
      <point x="67.5" y="1033" type="line"/>
      <point x="50" y="1287" type="line"/>
      <point x="607" y="1287" type="line"/>
      <point x="624.5" y="1033" type="line"/>
    </contour>
  </outline>
  <guideline angle="90" x="163" y="0"/>
  <guideline angle="0" x="0" y="9"/>
  <guideline angle="90" x="168" y="0"/>
  <guideline angle="90" x="151" y="0"/>
  <guideline angle="0" x="0" y="1262"/>
  <guideline angle="90" x="288" y="0"/>
  <guideline angle="0" x="0" y="30"/>
</glyph>
<glyph name="DaDhaYa.dv" format="2">
  <advance width="2927"/>
  <anchor x="2640" y="37" name="bottom"/>
  <anchor x="2632.5" y="37" name="bottom2"/>
  <anchor x="2811.5" y="37" name="bottom3"/>
  <anchor x="2639.5" y="55" name="bottom5"/>
  <anchor x="2639.5" y="1234.5" name="top"/>
  <outline>
    <contour>
      <point x="1212.5" y="738" type="line"/>
      <point x="1212.5" y="1123" type="line"/>
      <point x="1552" y="1123.5" type="line"/>
      <point x="1552" y="678.5" type="line"/>
    </contour>
    <contour>
      <point x="1081.87" y="922" type="curve" smooth="yes"/>
      <point x="1231.87" y="922"/>
      <point x="1383" y="910.5"/>
      <point x="1552" y="894" type="curve"/>
      <point x="1552" y="666.5" type="line"/>
      <point x="1485.08" y="666.404"/>
      <point x="1262.44" y="666.086"/>
      <point x="1202.19" y="666" type="curve" smooth="yes"/>
      <point x="981.396" y="666"/>
      <point x="905" y="615.041"/>
      <point x="905" y="485.145" type="curve" smooth="yes"/>
      <point x="905" y="469.147" type="line" smooth="yes"/>
      <point x="905" y="366.437"/>
      <point x="968.109" y="315"/>
      <point x="1078.88" y="315" type="curve" smooth="yes"/>
      <point x="1149.65" y="315"/>
      <point x="1195.18" y="328.5"/>
      <point x="1232.5" y="353" type="curve"/>
      <point x="1275" y="131" type="line"/>
      <point x="1221.8" y="72"/>
      <point x="1126.83" y="36.5"/>
      <point x="993.071" y="36.5" type="curve" smooth="yes"/>
      <point x="724.069" y="36.5"/>
      <point x="557" y="175.359"/>
      <point x="557" y="461.224" type="curve" smooth="yes"/>
      <point x="557" y="486.905" type="line" smooth="yes"/>
      <point x="557" y="792.037"/>
      <point x="733.283" y="922"/>
    </contour>
    <contour>
      <point x="1560" y="518.5" type="line"/>
      <point x="1559.5" y="220" type="line"/>
      <point x="1635.5" y="-411" type="line"/>
      <point x="1310.5" y="-411" type="line"/>
      <point x="1255" y="162" type="line"/>
      <point x="1217.5" y="196" type="line"/>
      <point x="1217.5" y="518.5" type="line"/>
    </contour>
    <contour>
      <point x="371.5" y="646.5" type="line"/>
      <point x="391.5" y="608"/>
      <point x="401.5" y="560"/>
      <point x="401.5" y="509.5" type="curve" smooth="yes"/>
      <point x="401.5" y="445.5"/>
      <point x="380.5" y="384"/>
      <point x="380.5" y="314" type="curve" smooth="yes"/>
      <point x="380.5" y="230"/>
      <point x="424.5" y="189.5"/>
      <point x="506.5" y="189.5" type="curve" smooth="yes"/>
      <point x="575" y="189.5"/>
      <point x="614.5" y="212.5"/>
      <point x="665" y="267.5" type="curve"/>
      <point x="914.5" y="81" type="line"/>
      <point x="867" y="39.0667"/>
      <point x="857.5" y="15.92"/>
      <point x="857.5" y="-25.0267" type="curve" smooth="yes"/>
      <point x="857.5" y="-96.0667"/>
      <point x="915.5" y="-141"/>
      <point x="1053" y="-141" type="curve" smooth="yes"/>
      <point x="1193.5" y="-141"/>
      <point x="1263" y="-88"/>
      <point x="1281" y="5.5" type="curve"/>
      <point x="1344" y="-211.5" type="line"/>
      <point x="1277" y="-211.5" type="line"/>
      <point x="1245.59" y="-341.5"/>
      <point x="1150.41" y="-415"/>
      <point x="950" y="-415" type="curve" smooth="yes"/>
      <point x="713" y="-415"/>
      <point x="581.5" y="-302.301"/>
      <point x="581.5" y="-127.536" type="curve" smooth="yes"/>
      <point x="581.5" y="-73.4104"/>
      <point x="593" y="-30.2257"/>
      <point x="616.5" y="8.5" type="curve"/>
      <point x="608" y="16" type="line"/>
      <point x="559.717" y="-24.7726"/>
      <point x="497.5" y="-46"/>
      <point x="391" y="-46" type="curve" smooth="yes"/>
      <point x="193" y="-46"/>
      <point x="61" y="63.5"/>
      <point x="61" y="278" type="curve" smooth="yes"/>
      <point x="61" y="375.5"/>
      <point x="84.5" y="440"/>
      <point x="84.5" y="518" type="curve" smooth="yes"/>
      <point x="84.5" y="571.5"/>
      <point x="73.5" y="609.5"/>
      <point x="54.5" y="646.5" type="curve"/>
    </contour>
    <contour>
      <point x="2811.5" y="1119" type="line"/>
      <point x="2811.5" y="0" type="line"/>
      <point x="2467.5" y="0" type="line"/>
      <point x="2467.5" y="1119" type="line"/>
    </contour>
    <contour>
      <point x="2419.5" y="1033" type="line"/>
      <point x="2402" y="1287" type="line"/>
      <point x="2959" y="1287" type="line"/>
      <point x="2976.5" y="1033" type="line"/>
    </contour>
    <contour>
      <point x="1736" y="910.5" type="line"/>
      <point x="1965" y="910.5" type="line" smooth="yes"/>
      <point x="2231" y="910.5"/>
      <point x="2336.5" y="812"/>
      <point x="2336.5" y="619.5" type="curve" smooth="yes"/>
      <point x="2336.5" y="610.5" type="line" smooth="yes"/>
      <point x="2336.5" y="430"/>
      <point x="2226" y="342.5"/>
      <point x="1996.5" y="342.5" type="curve" smooth="yes"/>
      <point x="1856" y="342.5" type="line"/>
      <point x="1747" y="543.5" type="line"/>
      <point x="1891.5" y="543.5" type="line" smooth="yes"/>
      <point x="1973.67" y="543.5"/>
      <point x="1996.5" y="561.626"/>
      <point x="1996.5" y="602" type="curve" smooth="yes"/>
      <point x="1996.5" y="606" type="line" smooth="yes"/>
      <point x="1996.5" y="645.542"/>
      <point x="1972.79" y="666"/>
      <point x="1893" y="666" type="curve" smooth="yes"/>
      <point x="1736" y="666" type="line"/>
    </contour>
    <contour>
      <point x="1736" y="395" type="line" smooth="yes"/>
      <point x="1736" y="441.867"/>
      <point x="1740" y="496.567"/>
      <point x="1747" y="543.5" type="curve"/>
      <point x="1799.39" y="520.654"/>
      <point x="2004.73" y="431.113"/>
      <point x="2052" y="410.5" type="curve"/>
      <point x="2052" y="371" type="line" smooth="yes"/>
      <point x="2052" y="302"/>
      <point x="2103.5" y="276"/>
      <point x="2244.5" y="276" type="curve" smooth="yes"/>
      <point x="2386.5" y="276"/>
      <point x="2457.5" y="319.109"/>
      <point x="2477.5" y="394.5" type="curve"/>
      <point x="2491" y="192.5" type="line"/>
      <point x="2456.5" y="192.5" type="line"/>
      <point x="2425" y="86"/>
      <point x="2336" y="6.5"/>
      <point x="2135" y="6.5" type="curve" smooth="yes"/>
      <point x="1871.5" y="6.5"/>
      <point x="1736" y="130.727"/>
      <point x="1736" y="385.5" type="curve" smooth="yes"/>
    </contour>
    <contour>
      <point x="-49.5" y="1287" type="line"/>
      <point x="2854" y="1287" type="line"/>
      <point x="2871.5" y="1033" type="line"/>
      <point x="-32" y="1033" type="line"/>
    </contour>
    <contour>
      <point x="1792.5" y="665.5" type="line"/>
      <point x="1424" y="665.5" type="line"/>
      <point x="1424" y="910.5" type="line"/>
      <point x="1792.5" y="910.5" type="line"/>
    </contour>
  </outline>
  <guideline angle="90" x="1560" y="0"/>
  <guideline angle="90" x="2515" y="0"/>
  <guideline angle="0" x="0" y="9"/>
  <guideline angle="90" x="2520" y="0"/>
  <guideline angle="90" x="2503" y="0"/>
  <guideline angle="0" x="0" y="1262"/>
  <guideline angle="90" x="2640" y="0"/>
  <guideline angle="0" x="0" y="30"/>
</glyph>
<glyph name="DaMa.dv" format="2">
  <advance width="1529"/>
  <anchor x="1242.5" y="-48.5" name="bottom"/>
  <anchor x="1235" y="-48.5" name="bottom2"/>
  <anchor x="1414" y="-48.5" name="bottom3"/>
  <anchor x="1242" y="1234.5" name="top"/>
  <outline>
    <contour>
      <point x="229.5" y="378.5" type="line"/>
      <point x="114" y="439"/>
      <point x="45" y="531.5"/>
      <point x="45" y="661" type="curve" smooth="yes"/>
      <point x="45" y="670.5" type="line" smooth="yes"/>
      <point x="45" y="849.5"/>
      <point x="159" y="948.5"/>
      <point x="432.5" y="948.5" type="curve" smooth="yes"/>
      <point x="504" y="948.5"/>
      <point x="560.5" y="945.5"/>
      <point x="635" y="935.5" type="curve"/>
      <point x="519" y="907.5" type="line"/>
      <point x="519" y="1123.5" type="line"/>
      <point x="847.5" y="1123.5" type="line"/>
      <point x="847.5" y="711" type="line"/>
      <point x="745" y="720.5"/>
      <point x="656" y="724.5"/>
      <point x="568" y="724.5" type="curve" smooth="yes"/>
      <point x="416.327" y="724.5"/>
      <point x="381" y="704"/>
      <point x="381" y="657.5" type="curve" smooth="yes"/>
      <point x="381" y="654" type="line" smooth="yes"/>
      <point x="381" y="635"/>
      <point x="390" y="619.5"/>
      <point x="405.5" y="608" type="curve"/>
      <point x="613.644" y="608" type="line" smooth="yes"/>
      <point x="813.181" y="608"/>
      <point x="878" y="528.5"/>
      <point x="878" y="376.5" type="curve" smooth="yes"/>
      <point x="878" y="231.5" type="line"/>
      <point x="560" y="231.5" type="line"/>
      <point x="560" y="340" type="line" smooth="yes"/>
      <point x="560" y="366"/>
      <point x="550.5" y="378.5"/>
      <point x="515" y="378.5" type="curve" smooth="yes"/>
    </contour>
    <contour>
      <point x="1579" y="1033" type="line"/>
      <point x="-32" y="1033" type="line"/>
      <point x="-49.5" y="1287" type="line"/>
      <point x="1561.5" y="1287" type="line"/>
    </contour>
    <contour>
      <point x="1199" y="319" type="line"/>
      <point x="1199" y="68" type="line"/>
      <point x="662" y="68" type="line"/>
      <point x="662" y="319" type="line"/>
    </contour>
    <contour>
      <point x="1070" y="843.5" type="line"/>
      <point x="1070" y="1123.5" type="line"/>
      <point x="1414" y="1123.5" type="line"/>
      <point x="1414" y="843.5" type="line"/>
    </contour>
    <contour>
      <point x="567" y="-64.5" type="line"/>
      <point x="496.5" y="12.5"/>
      <point x="444" y="122"/>
      <point x="436" y="236" type="curve"/>
      <point x="568.5" y="303" type="line"/>
      <point x="869.5" y="303" type="line"/>
      <point x="869.5" y="-64.5" type="line"/>
    </contour>
    <contour>
      <point x="1414" y="878.5" type="line"/>
      <point x="1414" y="-85.5" type="line"/>
      <point x="1070" y="-85.5" type="line"/>
      <point x="1070" y="878.5" type="line"/>
    </contour>
  </outline>
  <guideline angle="90" x="666" y="0"/>
  <guideline angle="90" x="1122.5" y="0"/>
</glyph>
